<svg width="32" height="32" viewBox="0 0 32 32" fill="none" xmlns="http://www.w3.org/2000/svg">
<rect width="32" height="32" fill="white"/>
<path d="M6.57143 4C5.15179 4 4 5.15179 4 6.57143V25.4286C4 26.8482 5.15179 28 6.57143 28H25.4286C26.8482 28 28 26.8482 28 25.4286V6.57143C28 5.15179 26.8482 4 25.4286 4H6.57143ZM11.8686 11.1375C12.9205 11.1375 13.8551 11.5012 14.5433 12.0467C15.1798 12.5531 15.4778 13.0596 15.7379 13.5142L13.9206 14.4222C13.7906 14.124 13.6341 13.8121 13.2324 13.4749C12.7905 13.1239 12.3496 13.0204 11.9722 13.0204C10.4922 13.0204 9.71307 14.3968 9.71307 15.9286C9.71307 17.9415 10.7396 18.9404 11.9722 18.9404C13.1668 18.9404 13.6478 18.1095 13.9586 17.5778L15.7643 18.4996C15.426 19.0314 15.1014 19.5515 14.3741 20.0569C13.9851 20.3296 13.0896 20.8625 11.8168 20.8625C9.38854 20.8625 7.42857 19.097 7.42857 15.993C7.42857 13.2804 9.27223 11.1375 11.8686 11.1375ZM15.9123 11.4229H18.3533L20.2488 17.9414L22.1304 11.423H24.5714L21.3904 20.5897H19.0541L15.9123 11.4229Z" fill="#4D5566"/>
<path fill-rule="evenodd" clip-rule="evenodd" d="M8 3C5.23858 3 3 5.23858 3 8V24C3 26.7614 5.23858 29 8 29H24C26.7614 29 29 26.7614 29 24V8C29 5.23858 26.7614 3 24 3H8ZM11 6C8.23858 6 6 8.23858 6 11V21C6 23.7614 8.23858 26 11 26H21C23.7614 26 26 23.7614 26 21V11C26 8.23858 23.7614 6 21 6H11Z" fill="#4D5566"/>
</svg>
