<svg width="406" height="660" viewBox="0 0 406 660" fill="none" xmlns="http://www.w3.org/2000/svg">
<g clip-path="url(#clip0_581_945)">
<path d="M203 102V1" stroke="#B4B4B4" stroke-width="2" stroke-linejoin="round"/>
<path d="M406 102L203 102" stroke="#B4B4B4" stroke-width="2" stroke-linejoin="round"/>
<path d="M202.408 406.97L149.637 314.999C187.632 313.584 201.235 281.395 203.287 265.477V406.97H202.408Z" fill="#162A4B" stroke="#B4B4B4" stroke-width="2"/>
<path d="M202.597 202.788H151.585C184.786 206.344 199.427 234.49 202.597 248.118V202.788Z" fill="#162A4B" stroke="#B4B4B4" stroke-width="2"/>
<path d="M1.03906 203H146.289C177.333 203 202.498 228.166 202.498 259.21C202.498 290.253 177.333 315.419 146.289 315.419H1.03906V203Z" stroke="#B4B4B4" stroke-width="2"/>
<path d="M0.990234 406.97V202.685" stroke="#B4B4B4" stroke-width="2" stroke-linejoin="round"/>
<path d="M149.623 315.299L202.597 406.834" stroke="#B4B4B4" stroke-width="2" stroke-linejoin="round"/>
<path d="M0 406.97L203.97 406.97" stroke="#B4B4B4" stroke-width="2"/>
<path d="M103.021 315.971L103.021 406.947" stroke="#B4B4B4" stroke-width="2"/>
<path d="M102.927 315.916L202.989 203.183" stroke="#B4B4B4" stroke-width="2"/>
<path d="M0.998047 202.689L103.022 315.884" stroke="#B4B4B4" stroke-width="2"/>
<path d="M202.989 407.166V203.784" stroke="#B4B4B4" stroke-width="2"/>
<circle cx="102" cy="558" r="101" stroke="#B4B4B4" stroke-width="2"/>
<path d="M403 271C403 289.349 392.064 306.074 374.148 318.256C356.238 330.435 331.44 338 304 338C276.56 338 251.761 330.435 233.852 318.256C215.936 306.074 205 289.349 205 271C205 252.651 215.936 235.926 233.852 223.744C251.761 211.565 276.56 204 304 204C331.44 204 356.238 211.565 374.148 223.744C392.064 235.926 403 252.651 403 271Z" stroke="#B4B4B4" stroke-width="2"/>
<path d="M403 341C403 359.349 392.064 376.074 374.148 388.256C356.238 400.435 331.44 408 304 408C276.56 408 251.761 400.435 233.852 388.256C215.936 376.074 205 359.349 205 341C205 322.651 215.936 305.926 233.852 293.744C251.761 281.565 276.56 274 304 274C331.44 274 356.238 281.565 374.148 293.744C392.064 305.926 403 322.651 403 341Z" stroke="#B4B4B4" stroke-width="2"/>
<rect x="1" y="408" width="344" height="251" stroke="#B4B4B4" stroke-width="2"/>
<path d="M230 409V456M230 658V456M230 456L345 659.5" stroke="#B4B4B4" stroke-width="2"/>
<path d="M346 456L1 456" stroke="#B4B4B4" stroke-width="2"/>
<path d="M230 558L102 558" stroke="#B4B4B4" stroke-width="2"/>
<path d="M103 409V660" stroke="#B4B4B4" stroke-width="2"/>
<rect x="203" y="1" width="202" height="202" stroke="#B4B4B4" stroke-width="2"/>
<rect x="345" y="408" width="60" height="251" stroke="#B4B4B4" stroke-width="2"/>
<rect x="1" y="1" width="202" height="202" stroke="#B4B4B4" stroke-width="2"/>
<path fill-rule="evenodd" clip-rule="evenodd" d="M102 204C158.333 204 204 158.333 204 102C204 45.667 158.333 0 102 0V2C157.228 2 202 46.7715 202 102C202 157.228 157.228 202 102 202V204Z" fill="#B4B4B4"/>
<path d="M1 102H205" stroke="#B4B4B4" stroke-width="2"/>
</g>
<defs>
<clipPath id="clip0_581_945">
<rect width="406" height="660" fill="white"/>
</clipPath>
</defs>
</svg>
