<svg width="32" height="32" viewBox="0 0 32 32" fill="none" xmlns="http://www.w3.org/2000/svg">
<g clip-path="url(#clip0_182_120)">
<path d="M14.1462 17.8789C14.1462 18.859 13.4541 19.1687 12.6037 19.1687H10.3741V16.4824H12.6482C13.5678 16.4875 14.1462 16.8785 14.1462 17.8789ZM13.7655 13.6996C13.7655 12.8008 13.0882 12.5875 12.3368 12.5875H10.379V14.8625H12.49C13.2365 14.8625 13.7655 14.5273 13.7655 13.6996ZM20.3061 14.8777C19.4014 14.8777 18.7983 15.4566 18.739 16.3859H21.814C21.7299 15.4465 21.2553 14.8777 20.3061 14.8777ZM27.0742 7.0625V24.9375C27.0742 26.2832 26.0113 27.375 24.7012 27.375H7.29904C5.98894 27.375 4.92603 26.2832 4.92603 24.9375V7.0625C4.92603 5.7168 5.98894 4.625 7.29904 4.625H24.7012C26.0113 4.625 27.0742 5.7168 27.0742 7.0625ZM18.3583 12.3945H22.2045V11.4348H18.3583V12.3945ZM16.2325 17.9957C16.2325 16.7719 15.6689 15.7156 14.5021 15.3754C15.3525 14.959 15.7974 14.4766 15.7974 13.4965C15.7974 11.5566 14.3884 11.0844 12.7619 11.0844H8.2878V20.8344H12.8905C14.6158 20.8242 16.2325 19.9762 16.2325 17.9957ZM23.7124 17.2441C23.7124 15.157 22.5209 13.4152 20.3704 13.4152C18.2742 13.4152 16.8554 15.0301 16.8554 17.1527C16.8554 19.3516 18.205 20.8598 20.3704 20.8598C22.0117 20.8598 23.0747 20.1031 23.5888 18.4832H21.9227C21.7398 19.0875 21.0032 19.4023 20.4297 19.4023C19.3223 19.4023 18.7439 18.7371 18.7439 17.6098H23.6976C23.7025 17.493 23.7124 17.366 23.7124 17.2441Z" fill="#4D5566"/>
</g>
<rect x="5.5" y="5.5" width="21" height="21" rx="3.5" stroke="#4D5566" stroke-width="5"/>
<defs>
<clipPath id="clip0_182_120">
<rect width="22.1481" height="26" fill="white" transform="translate(4.92603 3)"/>
</clipPath>
</defs>
</svg>
