<svg width="32" height="32" viewBox="0 0 32 32" fill="none" xmlns="http://www.w3.org/2000/svg">
<path d="M23.5556 5H6.44444C5.1 5 4 6.1 4 7.44444V24.5556C4 25.9012 5.1 27 6.44444 27H15V18.4444H12.5556V15.4194H15V12.9139C15 10.269 16.4813 8.41122 19.6029 8.41122L21.8066 8.41367V11.5976H20.3436C19.1287 11.5976 18.6667 12.5093 18.6667 13.3551V15.4207H21.8053L21.1111 18.4444H18.6667V27H23.5556C24.9 27 26 25.9012 26 24.5556V7.44444C26 6.1 24.9 5 23.5556 5Z" fill="#4D5566"/>
<rect x="5.5" y="5.5" width="21" height="21" rx="3.5" stroke="#4D5566" stroke-width="5"/>
</svg>
