<svg width="32" height="32" viewBox="0 0 32 32" fill="none" xmlns="http://www.w3.org/2000/svg">
<circle cx="16" cy="16" r="16" fill="#162A4B"/>
<path fill-rule="evenodd" clip-rule="evenodd" d="M9 11.75C9 11.5511 9.06914 11.3603 9.19221 11.2197C9.31528 11.079 9.4822 11 9.65625 11H22.3438C22.5178 11 22.6847 11.079 22.8078 11.2197C22.9309 11.3603 23 11.5511 23 11.75C23 11.9489 22.9309 12.1397 22.8078 12.2803C22.6847 12.421 22.5178 12.5 22.3438 12.5H9.65625C9.4822 12.5 9.31528 12.421 9.19221 12.2803C9.06914 12.1397 9 11.9489 9 11.75ZM9 16C9 15.8011 9.06914 15.6103 9.19221 15.4697C9.31528 15.329 9.4822 15.25 9.65625 15.25H22.3438C22.5178 15.25 22.6847 15.329 22.8078 15.4697C22.9309 15.6103 23 15.8011 23 16C23 16.1989 22.9309 16.3897 22.8078 16.5303C22.6847 16.671 22.5178 16.75 22.3438 16.75H9.65625C9.4822 16.75 9.31528 16.671 9.19221 16.5303C9.06914 16.3897 9 16.1989 9 16ZM9.65625 19.5C9.4822 19.5 9.31528 19.579 9.19221 19.7197C9.06914 19.8603 9 20.0511 9 20.25C9 20.4489 9.06914 20.6397 9.19221 20.7803C9.31528 20.921 9.4822 21 9.65625 21H22.3438C22.5178 21 22.6847 20.921 22.8078 20.7803C22.9309 20.6397 23 20.4489 23 20.25C23 20.0511 22.9309 19.8603 22.8078 19.7197C22.6847 19.579 22.5178 19.5 22.3438 19.5H9.65625Z" fill="white"/>
</svg>
