<svg width="32" height="32" viewBox="0 0 32 32" fill="none" xmlns="http://www.w3.org/2000/svg">
<path d="M15.9993 19.7607C18.0659 19.7607 19.7593 18.0674 19.7593 16.0007C19.7593 13.9341 18.0659 12.2407 15.9993 12.2407C13.9326 12.2407 12.2393 13.9341 12.2393 16.0007C12.2393 18.0674 13.9326 19.7607 15.9993 19.7607Z" fill="#4D5566"/>
<path d="M22.8527 2.66699H9.146C5.57266 2.66699 2.66602 5.57366 2.66602 9.14699V22.8537C2.66602 26.427 5.57266 29.3337 9.146 29.3337H22.8527C26.426 29.3337 29.3327 26.427 29.3327 22.8537V9.14699C29.3327 5.57366 26.426 2.66699 22.8527 2.66699ZM22.866 10.547C22.106 10.547 21.4927 9.93366 21.4927 9.18699C21.4927 8.42699 22.106 7.81366 22.866 7.81366C23.6127 7.81366 24.226 8.42699 24.226 9.18699C24.226 9.93366 23.6127 10.547 22.866 10.547ZM15.9993 10.2403C19.1727 10.2403 21.7594 12.827 21.7594 16.0003C21.7594 19.1737 19.1727 21.7603 15.9993 21.7603C12.826 21.7603 10.2393 19.1737 10.2393 16.0003C10.2393 12.827 12.826 10.2403 15.9993 10.2403Z" fill="#4D5566"/>
</svg>
