<svg width="32" height="32" viewBox="0 0 32 32" fill="none" xmlns="http://www.w3.org/2000/svg">
<path d="M22.8527 2.6665H9.146C5.57266 2.6665 2.66602 5.57317 2.66602 9.1465V22.8532C2.66602 26.4265 5.57266 29.3332 9.146 29.3332H22.8527C26.426 29.3332 29.3327 26.4265 29.3327 22.8532V9.1465C29.3327 5.57317 26.426 2.6665 22.8527 2.6665ZM11.8927 12.2265C11.146 12.2265 10.5194 11.6132 10.5194 10.8665C10.5194 10.1065 11.1327 9.49317 11.8794 9.49317H11.8927C12.6527 9.49317 13.266 10.1065 13.266 10.8665C13.266 11.6132 12.6527 12.2265 11.8927 12.2265ZM12.866 14.2932V21.1332C12.866 21.6932 12.426 22.1332 11.866 22.1332C11.3193 22.1332 10.866 21.6932 10.866 21.1332V14.2932C10.866 13.7332 11.3193 13.2932 11.866 13.2932C12.426 13.2932 12.866 13.7332 12.866 14.2932ZM21.1327 21.1332C21.1327 21.6932 20.6794 22.1332 20.1327 22.1332C19.5727 22.1332 19.1327 21.6932 19.1327 21.1332V18.0132C19.1327 17.1732 18.9593 17.0265 18.826 16.9065C18.666 16.7598 18.386 16.6665 18.0393 16.6532C17.7593 16.6665 17.4793 16.7598 17.3193 16.9065C17.186 17.0265 17.0127 17.1732 17.0127 18.0132V21.1332C17.0127 21.6932 16.5727 22.1332 16.0127 22.1332C15.466 22.1332 15.0127 21.6932 15.0127 21.1332V18.0132C15.0127 16.7998 15.306 16.0265 15.986 15.4132C16.506 14.9465 17.2127 14.6932 18.0393 14.6532C18.9327 14.6932 19.6394 14.9465 20.1727 15.4132C20.8394 16.0265 21.1327 16.7998 21.1327 18.0132V21.1332Z" fill="#4D5566"/>
</svg>
