<?xml version="1.0" encoding="utf-8"?>
<!-- Generator: Adobe Illustrator 25.4.1, SVG Export Plug-In . SVG Version: 6.00 Build 0)  -->
<svg version="1.1" xmlns="http://www.w3.org/2000/svg" xmlns:xlink="http://www.w3.org/1999/xlink" x="0px" y="0px"
	 viewBox="0 0 841.89 592.66" style="enable-background:new 0 0 841.89 592.66;" xml:space="preserve">
<style type="text/css">
	.st0{fill:#181B21;}
	.st1{opacity:0.05;fill:#FFFFFF;stroke:#FFFFFF;stroke-width:0.25;stroke-miterlimit:10;}
	.st2{fill:#E47651;}
	.st3{fill:#7F7639;}
	.st4{fill:#FBD7C0;}
	.st5{fill:#372B26;}
	.st6{fill:#39637F;}
	.st7{fill:#FFFFFF;stroke:#FFFFFF;stroke-width:0.25;stroke-miterlimit:10;}
	.st8{fill:#FFFFFF;}
	.st9{fill:none;stroke:#FFFFFF;stroke-width:0.25;stroke-miterlimit:10;}
	.st10{fill:none;stroke:#E47651;stroke-width:1.5;stroke-miterlimit:10;}
	.st11{font-family:'Roboto-Regular';}
	.st12{font-size:37.3568px;}
	.st13{letter-spacing:1;}
	.st14{font-size:21.7915px;}
	.st15{fill:#F47950;}
	.st16{fill:#171A20;}
	.st17{font-family:'SFCompactText-Regular';}
	.st18{font-size:5.8114px;}
	.st19{fill:none;stroke:#E47651;stroke-width:0.5;stroke-miterlimit:10;}
	.st20{fill:none;stroke:#E47651;stroke-width:0.75;stroke-miterlimit:10;}
	.st21{fill:none;stroke:#FFFFFF;}
	.st22{opacity:0.08;fill:#FFFFFF;}
	.st23{opacity:0.4;fill:#F47950;}
	.st24{fill:none;stroke:#F47950;stroke-width:0.3;stroke-miterlimit:10;}
	.st25{fill:none;stroke:#FFFFFF;stroke-width:0.75;stroke-miterlimit:10;}
	.st26{fill:#606161;}
	.st27{opacity:0.6;}
	.st28{fill:none;stroke:#FFFFFF;stroke-width:0.5;stroke-miterlimit:10;}
	.st29{fill:#C2584E;}
	.st30{fill:#62647A;}
	.st31{fill:#DA6A39;}
	.st32{fill:#898A8D;}
	.st33{fill:#B6C277;}
	.st34{fill:#75C2CD;}
	.st35{fill:#21458D;}
	.st36{fill:#555C66;}
	.st37{fill:none;stroke:#555C66;stroke-miterlimit:10;}
	.st38{fill:none;stroke:#E47651;stroke-miterlimit:10;}
	.st39{fill:#353A42;}
	.st40{fill:#A8B3BF;}
	.st41{fill:none;stroke:#F47950;stroke-miterlimit:10;}
	.st42{fill:none;stroke:#F47950;stroke-width:1.5;stroke-miterlimit:10;}
	.st43{opacity:0.1;fill:#FFFFFF;}
</style>
<g id="Layer_2">
	<rect y="592" class="st0" width="841.89" height="593.97"/>
	<rect x="-0.49" y="-1.31" class="st0" width="841.89" height="595.28"/>
</g>
<g id="Layer_1">
	<g>
		<text transform="matrix(1 2.349993e-03 -2.349993e-03 1 507.6553 173.713)" class="st8 st11 st12 st13">User Flow</text>
	</g>
	<g>
		<text transform="matrix(1 2.349993e-03 -2.349993e-03 1 509.1719 201.5527)" class="st8 st11 st14">First time print</text>
	</g>
	<g>
		
			<ellipse transform="matrix(0.2272 -0.9739 0.9739 0.2272 -81.2939 215.8005)" class="st15" cx="95.32" cy="159.12" rx="27.58" ry="27.58"/>
		<g>
			<g>
				<path class="st16" d="M84.08,162.15c-0.57-0.34-1-0.83-1.31-1.46c-0.31-0.63-0.46-1.38-0.46-2.25v-0.01
					c0-0.87,0.15-1.61,0.46-2.24c0.31-0.63,0.75-1.12,1.31-1.46c0.57-0.34,1.23-0.52,2.01-0.52s1.44,0.17,2,0.52
					c0.56,0.34,1,0.83,1.31,1.46s0.46,1.38,0.46,2.24v0.01c0,0.87-0.15,1.62-0.46,2.25s-0.74,1.12-1.3,1.46
					c-0.56,0.34-1.23,0.52-2.01,0.52S84.65,162.49,84.08,162.15z M87.55,161.32c0.41-0.27,0.72-0.65,0.94-1.14
					c0.22-0.49,0.33-1.07,0.33-1.74v-0.01c0-0.67-0.11-1.25-0.33-1.74c-0.22-0.49-0.54-0.87-0.94-1.14s-0.89-0.4-1.45-0.4
					s-1.04,0.13-1.45,0.4c-0.41,0.27-0.73,0.65-0.95,1.13c-0.22,0.49-0.33,1.07-0.33,1.75v0.01c0,0.67,0.11,1.25,0.33,1.74
					c0.22,0.49,0.54,0.87,0.95,1.14c0.41,0.27,0.89,0.4,1.45,0.4C86.66,161.72,87.14,161.59,87.55,161.32z"/>
				<path class="st16" d="M90.98,156.63h0.99v1h0.02c0.12-0.23,0.28-0.43,0.46-0.59c0.18-0.17,0.39-0.29,0.63-0.38
					c0.24-0.09,0.5-0.14,0.78-0.14c0.5,0,0.94,0.13,1.32,0.38c0.38,0.25,0.67,0.61,0.88,1.07c0.21,0.46,0.31,1,0.31,1.62v0.01
					c0,0.62-0.1,1.16-0.31,1.62s-0.5,0.81-0.87,1.06c-0.37,0.25-0.81,0.38-1.3,0.38c-0.28,0-0.54-0.04-0.78-0.13
					s-0.46-0.22-0.64-0.38c-0.19-0.16-0.34-0.36-0.47-0.59h-0.02v2.97h-0.99V156.63z M94.57,161.5c0.25-0.18,0.45-0.43,0.58-0.76
					s0.2-0.71,0.2-1.16v-0.01c0-0.45-0.07-0.84-0.2-1.17s-0.33-0.58-0.58-0.75c-0.25-0.18-0.55-0.26-0.9-0.26
					c-0.33,0-0.63,0.09-0.89,0.27s-0.46,0.44-0.6,0.76c-0.15,0.33-0.22,0.71-0.22,1.16v0.01c0,0.44,0.07,0.82,0.22,1.15
					c0.15,0.33,0.35,0.58,0.6,0.76s0.55,0.27,0.88,0.27C94.02,161.77,94.32,161.68,94.57,161.5z"/>
				<path class="st16" d="M98.34,162.27c-0.41-0.25-0.72-0.6-0.94-1.06c-0.22-0.46-0.33-0.99-0.33-1.61v0
					c0-0.61,0.11-1.15,0.33-1.61c0.22-0.46,0.53-0.83,0.92-1.08c0.4-0.26,0.86-0.39,1.4-0.39s1,0.12,1.39,0.37
					c0.39,0.25,0.69,0.59,0.89,1.04s0.31,0.96,0.31,1.55v0.36h-4.76v-0.77h4.27l-0.5,0.71v-0.38c0-0.46-0.07-0.84-0.21-1.14
					c-0.14-0.3-0.33-0.52-0.57-0.67s-0.52-0.22-0.83-0.22s-0.6,0.08-0.85,0.23c-0.25,0.15-0.45,0.38-0.59,0.68
					c-0.14,0.3-0.22,0.67-0.22,1.11v0.38c0,0.42,0.07,0.77,0.21,1.07c0.14,0.29,0.34,0.52,0.6,0.68s0.57,0.24,0.92,0.24
					c0.25,0,0.47-0.04,0.67-0.11c0.2-0.08,0.36-0.18,0.49-0.31c0.13-0.13,0.23-0.28,0.28-0.45l0.02-0.05h0.97l-0.01,0.06
					c-0.05,0.24-0.14,0.47-0.28,0.68s-0.31,0.4-0.53,0.56c-0.22,0.16-0.46,0.29-0.74,0.38c-0.28,0.09-0.58,0.13-0.9,0.13
					C99.23,162.64,98.74,162.52,98.34,162.27z"/>
				<path class="st16" d="M103.32,156.63h0.99v0.84h0.02c0.16-0.28,0.39-0.5,0.69-0.68s0.68-0.27,1.12-0.27
					c0.65,0,1.15,0.2,1.51,0.59c0.36,0.39,0.54,0.92,0.54,1.6v3.83h-0.99v-3.66c0-0.48-0.11-0.85-0.34-1.1
					c-0.23-0.25-0.56-0.38-1.02-0.38c-0.31,0-0.58,0.07-0.81,0.21c-0.23,0.14-0.41,0.33-0.54,0.58c-0.13,0.25-0.19,0.54-0.19,0.88
					v3.47h-0.99V156.63z"/>
			</g>
		</g>
		<text transform="matrix(1 0 0 1 73.8912 226.7267)" class="st8 st17 st18">Select Language</text>
		<g>
			<g>
				<line class="st19" x1="95.32" y1="213.87" x2="95.32" y2="186.7"/>
				<g>
					<polygon class="st2" points="97.36,212.21 97,211.87 95.32,213.67 93.64,211.87 93.27,212.21 95.32,214.41 					"/>
				</g>
			</g>
		</g>
		<g>
			<g>
				<line class="st19" x1="159.76" y1="224.6" x2="132.59" y2="224.6"/>
				<g>
					<polygon class="st2" points="158.1,222.56 157.76,222.92 159.56,224.6 157.76,226.28 158.1,226.65 160.3,224.6 					"/>
				</g>
			</g>
		</g>
		<g>
			<g>
				<line class="st19" x1="262.12" y1="224.6" x2="235.84" y2="224.6"/>
				<g>
					<polygon class="st2" points="260.47,222.56 260.13,222.93 261.93,224.6 260.13,226.28 260.47,226.65 262.67,224.6 					"/>
				</g>
			</g>
		</g>
		<text transform="matrix(1 0 0 1 174.4019 226.7267)" class="st8 st17 st18">Name Your Printer</text>
		<text transform="matrix(1 0 0 1 278.0977 226.7267)" class="st8 st17 st18">Connect Network</text>
		<path class="st2" d="M123.45,411.35H67.18c-5.3,0-9.64-4.34-9.64-9.64v-1.11c0-5.3,4.34-9.64,9.64-9.64h56.27
			c5.3,0,9.64,4.34,9.64,9.64v1.11C133.09,407.01,128.75,411.35,123.45,411.35z"/>
		<g>
			<g>
				<line class="st19" x1="95.32" y1="390.42" x2="95.32" y2="365.03"/>
				<g>
					<polygon class="st2" points="97.36,388.76 97,388.42 95.32,390.23 93.64,388.42 93.27,388.76 95.32,390.96 					"/>
				</g>
			</g>
		</g>
		<g>
			<g>
				<path class="st16" d="M69.48,398.16h0.64v2.21h2.81v-2.21h0.64v5.12h-0.64v-2.33h-2.81v2.33h-0.64V398.16z"/>
				<path class="st16" d="M75.09,403.12c-0.26-0.16-0.46-0.38-0.6-0.67s-0.21-0.63-0.21-1.02v-0.01c0-0.39,0.07-0.73,0.21-1.02
					c0.14-0.28,0.34-0.5,0.6-0.66c0.26-0.16,0.55-0.23,0.89-0.23c0.34,0,0.64,0.08,0.9,0.23c0.26,0.16,0.46,0.38,0.6,0.66
					c0.14,0.29,0.21,0.62,0.21,1.02v0.01c0,0.39-0.07,0.73-0.21,1.02s-0.34,0.51-0.6,0.66s-0.55,0.23-0.89,0.23
					C75.65,403.35,75.35,403.27,75.09,403.12z M76.56,402.64c0.16-0.11,0.28-0.26,0.37-0.47c0.09-0.21,0.13-0.45,0.13-0.74v-0.01
					c0-0.29-0.04-0.53-0.13-0.74c-0.09-0.2-0.21-0.36-0.38-0.46c-0.16-0.11-0.35-0.16-0.57-0.16c-0.21,0-0.4,0.05-0.56,0.16
					c-0.16,0.11-0.29,0.26-0.38,0.46s-0.13,0.45-0.13,0.74v0.01c0,0.29,0.04,0.54,0.13,0.74c0.09,0.2,0.22,0.36,0.38,0.47
					s0.35,0.16,0.57,0.16C76.21,402.8,76.4,402.75,76.56,402.64z"/>
				<path class="st16" d="M78.31,399.59h0.62v0.54h0.01c0.08-0.18,0.21-0.33,0.39-0.44s0.38-0.17,0.62-0.17
					c0.17,0,0.32,0.03,0.46,0.08c0.14,0.06,0.25,0.14,0.35,0.24c0.1,0.11,0.18,0.23,0.23,0.38h0.01c0.07-0.15,0.16-0.28,0.27-0.38
					s0.25-0.19,0.4-0.24c0.15-0.06,0.31-0.08,0.48-0.08c0.24,0,0.46,0.05,0.64,0.15s0.32,0.24,0.42,0.42
					c0.1,0.18,0.15,0.39,0.15,0.64v2.55h-0.62v-2.41c0-0.25-0.07-0.45-0.2-0.59c-0.13-0.14-0.32-0.21-0.57-0.21
					c-0.16,0-0.31,0.04-0.43,0.11c-0.13,0.07-0.22,0.18-0.29,0.31c-0.07,0.13-0.11,0.28-0.11,0.45v2.34h-0.62v-2.47
					c0-0.22-0.07-0.4-0.21-0.54c-0.14-0.13-0.32-0.2-0.55-0.2c-0.16,0-0.31,0.04-0.43,0.12s-0.23,0.19-0.3,0.32
					s-0.11,0.29-0.11,0.46v2.31h-0.62V399.59z"/>
				<path class="st16" d="M84.76,403.12c-0.25-0.16-0.45-0.38-0.59-0.66c-0.14-0.29-0.2-0.62-0.2-1.01v0c0-0.38,0.07-0.72,0.21-1
					c0.14-0.29,0.33-0.52,0.58-0.68c0.25-0.16,0.54-0.24,0.88-0.24s0.62,0.08,0.87,0.23s0.43,0.37,0.56,0.65
					c0.13,0.28,0.2,0.6,0.2,0.97v0.23h-2.97v-0.48h2.67l-0.31,0.45v-0.24c0-0.29-0.04-0.52-0.13-0.71
					c-0.09-0.19-0.21-0.33-0.36-0.42c-0.15-0.09-0.33-0.14-0.52-0.14s-0.37,0.05-0.53,0.14c-0.16,0.1-0.28,0.24-0.37,0.43
					c-0.09,0.19-0.13,0.42-0.13,0.69v0.24c0,0.26,0.04,0.48,0.13,0.67c0.09,0.18,0.21,0.33,0.38,0.42c0.16,0.1,0.36,0.15,0.58,0.15
					c0.16,0,0.3-0.02,0.42-0.07c0.12-0.05,0.23-0.11,0.31-0.2c0.08-0.08,0.14-0.18,0.18-0.28l0.01-0.03h0.61l-0.01,0.04
					c-0.03,0.15-0.09,0.29-0.18,0.43c-0.09,0.13-0.2,0.25-0.33,0.35s-0.29,0.18-0.46,0.23c-0.17,0.06-0.36,0.08-0.56,0.08
					C85.31,403.35,85.01,403.27,84.76,403.12z"/>
				<path class="st16" d="M89.46,398.16h0.64v5.12h-0.64V398.16z M89.77,400.88h1.34c0.37,0,0.65-0.09,0.85-0.29s0.3-0.45,0.3-0.79
					v-0.01c0-0.34-0.1-0.6-0.3-0.79c-0.2-0.19-0.48-0.28-0.85-0.28h-1.34v-0.57h1.5c0.32,0,0.6,0.07,0.85,0.21
					c0.25,0.14,0.44,0.33,0.58,0.57s0.21,0.53,0.21,0.85v0.01c0,0.32-0.07,0.61-0.21,0.86c-0.14,0.25-0.33,0.44-0.58,0.58
					s-0.53,0.21-0.85,0.21h-1.5V400.88z"/>
				<path class="st16" d="M93.99,403.21c-0.18-0.09-0.33-0.22-0.43-0.39c-0.1-0.17-0.15-0.36-0.15-0.58v-0.01
					c0-0.31,0.12-0.57,0.35-0.75c0.23-0.19,0.56-0.29,0.99-0.32l1.37-0.08v0.48l-1.29,0.08c-0.25,0.01-0.44,0.07-0.57,0.18
					c-0.14,0.1-0.2,0.24-0.2,0.42v0.01c0,0.18,0.07,0.32,0.2,0.42c0.13,0.1,0.31,0.16,0.53,0.16c0.19,0,0.37-0.04,0.52-0.12
					c0.15-0.08,0.28-0.19,0.37-0.33c0.09-0.14,0.14-0.3,0.14-0.48v-1.09c0-0.22-0.07-0.4-0.21-0.53s-0.34-0.19-0.6-0.19
					c-0.24,0-0.43,0.05-0.57,0.15c-0.15,0.1-0.24,0.24-0.27,0.4l-0.01,0.03h-0.6l0-0.04c0.02-0.2,0.09-0.39,0.21-0.55
					c0.12-0.17,0.28-0.3,0.5-0.4c0.21-0.1,0.46-0.15,0.75-0.15c0.29,0,0.54,0.05,0.75,0.15c0.21,0.1,0.38,0.24,0.49,0.42
					s0.17,0.39,0.17,0.64v2.55H95.8v-0.6h-0.01c-0.07,0.13-0.17,0.25-0.28,0.35s-0.25,0.18-0.4,0.23c-0.15,0.06-0.3,0.08-0.47,0.08
					C94.39,403.35,94.18,403.3,93.99,403.21z"/>
				<path class="st16" d="M97.97,404.46c-0.23-0.09-0.41-0.2-0.55-0.35c-0.14-0.15-0.23-0.31-0.27-0.5l-0.01-0.03h0.62l0.01,0.03
					c0.06,0.13,0.17,0.24,0.34,0.31c0.17,0.08,0.38,0.12,0.63,0.12c0.32,0,0.57-0.08,0.75-0.25c0.18-0.17,0.27-0.39,0.27-0.68v-0.47
					h-0.01c-0.07,0.14-0.17,0.25-0.28,0.35s-0.25,0.18-0.4,0.23c-0.15,0.06-0.31,0.08-0.49,0.08c-0.31,0-0.58-0.08-0.82-0.24
					c-0.23-0.16-0.42-0.38-0.55-0.66c-0.13-0.29-0.2-0.62-0.2-1v0c0-0.38,0.07-0.72,0.2-1c0.13-0.28,0.32-0.5,0.56-0.66
					c0.24-0.16,0.51-0.23,0.82-0.23c0.17,0,0.34,0.03,0.48,0.09c0.15,0.06,0.28,0.14,0.39,0.24c0.11,0.1,0.21,0.22,0.29,0.36h0.01
					v-0.62h0.62v3.59c0,0.29-0.07,0.53-0.2,0.75c-0.13,0.21-0.32,0.38-0.56,0.49c-0.24,0.12-0.53,0.18-0.87,0.18
					C98.46,404.59,98.2,404.55,97.97,404.46z M99.27,402.6c0.16-0.11,0.28-0.27,0.37-0.47c0.09-0.2,0.13-0.44,0.13-0.71v0
					c0-0.27-0.04-0.51-0.13-0.71c-0.09-0.2-0.21-0.36-0.37-0.47c-0.16-0.11-0.34-0.17-0.55-0.17c-0.22,0-0.41,0.06-0.57,0.17
					c-0.16,0.11-0.28,0.27-0.37,0.47c-0.09,0.2-0.13,0.44-0.13,0.71v0c0,0.28,0.04,0.52,0.13,0.72c0.09,0.2,0.21,0.36,0.37,0.47
					c0.16,0.11,0.35,0.17,0.57,0.17C98.93,402.77,99.11,402.71,99.27,402.6z"/>
				<path class="st16" d="M101.8,403.12c-0.25-0.16-0.45-0.38-0.59-0.66c-0.14-0.29-0.2-0.62-0.2-1.01v0c0-0.38,0.07-0.72,0.21-1
					c0.14-0.29,0.33-0.52,0.58-0.68c0.25-0.16,0.54-0.24,0.88-0.24s0.62,0.08,0.87,0.23s0.43,0.37,0.56,0.65
					c0.13,0.28,0.2,0.6,0.2,0.97v0.23h-2.97v-0.48h2.67l-0.31,0.45v-0.24c0-0.29-0.04-0.52-0.13-0.71
					c-0.09-0.19-0.21-0.33-0.36-0.42c-0.15-0.09-0.33-0.14-0.52-0.14s-0.37,0.05-0.53,0.14c-0.16,0.1-0.28,0.24-0.37,0.43
					c-0.09,0.19-0.13,0.42-0.13,0.69v0.24c0,0.26,0.04,0.48,0.13,0.67c0.09,0.18,0.21,0.33,0.38,0.42c0.16,0.1,0.36,0.15,0.58,0.15
					c0.16,0,0.3-0.02,0.42-0.07c0.12-0.05,0.23-0.11,0.31-0.2c0.08-0.08,0.14-0.18,0.18-0.28l0.01-0.03h0.61l-0.01,0.04
					c-0.03,0.15-0.09,0.29-0.18,0.43c-0.09,0.13-0.2,0.25-0.33,0.35s-0.29,0.18-0.46,0.23c-0.17,0.06-0.36,0.08-0.56,0.08
					C102.35,403.35,102.05,403.27,101.8,403.12z"/>
				<path class="st16" d="M105.1,404.52h-0.59l1.44-6.36h0.59L105.1,404.52z"/>
				<path class="st16" d="M108.52,398.16h0.64v5.12h-0.64V398.16z M108.84,400.88h1.34c0.37,0,0.65-0.09,0.85-0.29
					s0.3-0.45,0.3-0.79v-0.01c0-0.34-0.1-0.6-0.3-0.79c-0.2-0.19-0.48-0.28-0.85-0.28h-1.34v-0.57h1.5c0.32,0,0.6,0.07,0.85,0.21
					c0.25,0.14,0.44,0.33,0.58,0.57s0.21,0.53,0.21,0.85v0.01c0,0.32-0.07,0.61-0.21,0.86c-0.14,0.25-0.33,0.44-0.58,0.58
					s-0.53,0.21-0.85,0.21h-1.5V400.88z"/>
				<path class="st16" d="M112.62,399.59h0.62v0.62h0.01c0.06-0.21,0.17-0.38,0.32-0.51c0.15-0.12,0.33-0.19,0.54-0.19
					c0.05,0,0.1,0,0.15,0.01c0.04,0.01,0.08,0.01,0.1,0.02v0.6c-0.02-0.01-0.07-0.02-0.13-0.02c-0.06-0.01-0.13-0.01-0.2-0.01
					c-0.16,0-0.3,0.04-0.42,0.11c-0.12,0.07-0.21,0.17-0.28,0.31c-0.07,0.13-0.1,0.29-0.1,0.48v2.28h-0.62V399.59z"/>
				<path class="st16" d="M114.94,398.85c-0.08-0.08-0.11-0.17-0.11-0.27c0-0.11,0.04-0.2,0.11-0.27s0.17-0.11,0.27-0.11
					c0.11,0,0.2,0.04,0.27,0.11c0.07,0.07,0.11,0.17,0.11,0.27c0,0.11-0.04,0.2-0.11,0.27c-0.07,0.08-0.17,0.11-0.27,0.11
					C115.1,398.97,115.01,398.93,114.94,398.85z M114.9,399.59h0.62v3.69h-0.62V399.59z"/>
				<path class="st16" d="M116.36,399.59h0.62v0.52h0.01c0.1-0.17,0.24-0.31,0.43-0.43s0.42-0.17,0.7-0.17
					c0.4,0,0.72,0.12,0.94,0.37s0.34,0.58,0.34,1v2.39h-0.62v-2.28c0-0.3-0.07-0.53-0.21-0.69c-0.14-0.16-0.35-0.24-0.64-0.24
					c-0.19,0-0.36,0.04-0.51,0.13c-0.14,0.09-0.26,0.21-0.34,0.36s-0.12,0.34-0.12,0.55v2.17h-0.62V399.59z"/>
				<path class="st16" d="M120.63,403.11c-0.17-0.16-0.25-0.42-0.25-0.77v-2.24h-0.54v-0.51h0.54v-1h0.64v1h0.7v0.51h-0.7v2.23
					c0,0.2,0.04,0.33,0.13,0.4c0.08,0.07,0.21,0.11,0.38,0.11c0.04,0,0.07,0,0.11-0.01c0.03,0,0.06-0.01,0.09-0.01v0.5
					c-0.04,0-0.09,0.01-0.15,0.02c-0.06,0.01-0.12,0.01-0.18,0.01C121.05,403.35,120.79,403.27,120.63,403.11z"/>
			</g>
		</g>
		<text transform="matrix(1 0 0 1 146.4 319.4377)" class="st8 st17 st18">Yes</text>
		<text transform="matrix(1 0 0 1 468.2032 315.4221)" class="st8 st17 st18">Yes</text>
		<text transform="matrix(1 0 0 1 416.6612 353.7004)" class="st8 st17 st18">No</text>
		<text transform="matrix(1 0 0 1 76.2779 313.5666)"><tspan x="0" y="0" class="st8 st17 st18">Set up printer </tspan><tspan x="2.59" y="6.97" class="st8 st17 st18">to first time </tspan><tspan x="14.25" y="13.95" class="st8 st17 st18">use</tspan></text>
		<text transform="matrix(1 0 0 1 389.3419 319.0891)" class="st8 st17 st18">Print the XP Finder</text>
		<g>
			<g>
				<line class="st19" x1="172.68" y1="317.31" x2="158.81" y2="317.31"/>
				<g>
					<polygon class="st2" points="171.02,315.26 170.68,315.63 172.48,317.31 170.68,318.98 171.02,319.35 173.22,317.31 					"/>
				</g>
			</g>
		</g>
		<line class="st19" x1="129.52" y1="317.31" x2="143.94" y2="317.31"/>
		<text transform="matrix(1 0 0 1 199.2481 319.0891)" class="st8 st17 st18">LCD Test</text>
		<text transform="matrix(1 0 0 1 291.8321 319.0891)" class="st8 st17 st18">Z-axis Calibration</text>
		<g>
			<g>
				<line class="st19" x1="275.94" y1="317.39" x2="248.76" y2="317.39"/>
				<g>
					<polygon class="st2" points="274.28,315.34 273.94,315.71 275.74,317.39 273.94,319.07 274.28,319.43 276.48,317.39 					"/>
				</g>
			</g>
		</g>
		<text transform="matrix(1 0 0 1 166.3731 402.8537)" class="st8 st17 st18">USB / Local File / History</text>
		<text transform="matrix(1 0 0 1 189.6539 444.9533)" class="st8 st17 st18">Search</text>
		<g>
			<g>
				<line class="st19" x1="160.26" y1="401.16" x2="133.09" y2="401.16"/>
				<g>
					<polygon class="st2" points="158.6,399.11 158.26,399.48 160.07,401.15 158.26,402.83 158.6,403.2 160.8,401.15 					"/>
				</g>
			</g>
		</g>
		<text transform="matrix(1 0 0 1 284.3531 402.8537)" class="st8 st17 st18"> Print Preview</text>
		<g>
			<g>
				<line class="st19" x1="263.52" y1="401.16" x2="236.35" y2="401.16"/>
				<g>
					<polygon class="st2" points="261.86,399.11 261.52,399.48 263.33,401.15 261.52,402.83 261.86,403.2 264.06,401.15 					"/>
				</g>
			</g>
		</g>
		<g>
			<g>
				<line class="st19" x1="379.19" y1="317.39" x2="352.02" y2="317.39"/>
				<g>
					<polygon class="st2" points="377.54,315.34 377.2,315.71 379,317.39 377.2,319.07 377.54,319.43 379.74,317.39 					"/>
				</g>
			</g>
		</g>
		<text transform="matrix(1 0 0 1 393.1305 402.8537)" class="st8 st17 st18">Checking</text>
		<g>
			<g>
				<line class="st19" x1="366.78" y1="401.16" x2="339.61" y2="401.16"/>
				<g>
					<polygon class="st2" points="365.12,399.11 364.78,399.48 366.59,401.15 364.78,402.83 365.12,403.2 367.32,401.15 					"/>
				</g>
			</g>
		</g>
		<text transform="matrix(1 0 0 1 490.3331 402.8537)" class="st8 st17 st18"> Printing Page</text>
		<g>
			<g>
				<line class="st19" x1="470.04" y1="401.16" x2="442.87" y2="401.16"/>
				<g>
					<polygon class="st2" points="468.38,399.11 468.04,399.48 469.85,401.15 468.04,402.83 468.38,403.2 470.58,401.15 					"/>
				</g>
			</g>
		</g>
		<line class="st19" x1="546.13" y1="401.15" x2="562.49" y2="401.15"/>
		<text transform="matrix(1 0 0 1 601.1827 353.091)" class="st8 st17 st18">Parameters Settings</text>
		<text transform="matrix(1 0 0 1 619.4249 386.2668)" class="st8 st17 st18">Pause</text>
		<text transform="matrix(1 0 0 1 596.085 419.4416)" class="st8 st17 st18">End the Printing Session</text>
		<text transform="matrix(1 0 0 1 616.96 452.6174)" class="st8 st17 st18">Standby</text>
		<path class="st20" d="M123.45,234.8H67.18c-5.3,0-9.64-4.34-9.64-9.64v-1.12c0-5.3,4.34-9.64,9.64-9.64h56.27
			c5.3,0,9.64,4.34,9.64,9.64v1.12C133.09,230.46,128.75,234.8,123.45,234.8z"/>
		<path class="st20" d="M226.21,234.8h-56.27c-5.3,0-9.64-4.34-9.64-9.64v-1.12c0-5.3,4.34-9.64,9.64-9.64h56.27
			c5.3,0,9.64,4.34,9.64,9.64v1.12C235.84,230.46,231.51,234.8,226.21,234.8z"/>
		<path class="st20" d="M328.57,234.8H272.3c-5.3,0-9.64-4.34-9.64-9.64v-1.12c0-5.3,4.34-9.64,9.64-9.64h56.27
			c5.3,0,9.64,4.34,9.64,9.64v1.12C338.21,230.46,333.87,234.8,328.57,234.8z"/>
		<polygon class="st20" points="95.39,289.28 129.75,317.31 95.39,345.49 60.88,317.39 		"/>
		<polygon class="st20" points="414.25,289.28 448.61,317.31 414.25,345.49 379.74,317.39 		"/>
		<path class="st20" d="M239.13,327.58h-56.27c-5.3,0-9.64-4.34-9.64-9.64v-1.12c0-5.3,4.34-9.64,9.64-9.64h56.27
			c5.3,0,9.64,4.34,9.64,9.64v1.12C248.76,323.25,244.43,327.58,239.13,327.58z"/>
		<path class="st20" d="M342.39,327.58h-56.27c-5.3,0-9.64-4.34-9.64-9.64v-1.12c0-5.3,4.34-9.64,9.64-9.64h56.27
			c5.3,0,9.64,4.34,9.64,9.64v1.12C352.02,323.25,347.69,327.58,342.39,327.58z"/>
		<path class="st20" d="M226.71,411.35h-56.27c-5.3,0-9.64-4.34-9.64-9.64v-1.11c0-5.3,4.34-9.64,9.64-9.64h56.27
			c5.3,0,9.64,4.34,9.64,9.64v1.11C236.35,407.01,232.01,411.35,226.71,411.35z"/>
		<path class="st20" d="M226.71,453.45h-56.27c-5.3,0-9.64-4.34-9.64-9.64v-1.11c0-5.3,4.34-9.64,9.64-9.64h56.27
			c5.3,0,9.64,4.34,9.64,9.64v1.12C236.35,449.11,232.01,453.45,226.71,453.45z"/>
		<path class="st20" d="M329.97,411.35H273.7c-5.3,0-9.64-4.34-9.64-9.64v-1.11c0-5.3,4.34-9.64,9.64-9.64h56.27
			c5.3,0,9.64,4.34,9.64,9.64v1.11C339.61,407.01,335.27,411.35,329.97,411.35z"/>
		<path class="st20" d="M433.23,411.35h-56.27c-5.3,0-9.64-4.34-9.64-9.64v-1.11c0-5.3,4.34-9.64,9.64-9.64h56.27
			c5.3,0,9.64,4.34,9.64,9.64v1.11C442.87,407.01,438.53,411.35,433.23,411.35z"/>
		<path class="st20" d="M536.49,411.35h-56.27c-5.3,0-9.64-4.34-9.64-9.64v-1.11c0-5.3,4.34-9.64,9.64-9.64h56.27
			c5.3,0,9.64,4.34,9.64,9.64v1.11C546.13,407.01,541.79,411.35,536.49,411.35z"/>
		<path class="st20" d="M655.6,361.59h-56.27c-5.3,0-9.64-4.34-9.64-9.64v-1.12c0-5.3,4.34-9.64,9.64-9.64h56.27
			c5.3,0,9.64,4.34,9.64,9.64v1.12C665.24,357.25,660.9,361.59,655.6,361.59z"/>
		<path class="st20" d="M655.6,394.76h-56.27c-5.3,0-9.64-4.34-9.64-9.64v-1.11c0-5.3,4.34-9.64,9.64-9.64h56.27
			c5.3,0,9.64,4.34,9.64,9.64v1.11C665.24,390.42,660.9,394.76,655.6,394.76z"/>
		<path class="st20" d="M655.6,427.94h-56.27c-5.3,0-9.64-4.34-9.64-9.64v-1.11c0-5.3,4.34-9.64,9.64-9.64h56.27
			c5.3,0,9.64,4.34,9.64,9.64v1.11C665.24,423.6,660.9,427.94,655.6,427.94z"/>
		<path class="st20" d="M655.6,461.11h-56.27c-5.3,0-9.64-4.34-9.64-9.64v-1.12c0-5.3,4.34-9.64,9.64-9.64h56.27
			c5.3,0,9.64,4.34,9.64,9.64v1.11C665.24,456.78,660.9,461.11,655.6,461.11z"/>
		<g>
			<g>
				<line class="st19" x1="562.49" y1="384.57" x2="589.15" y2="384.57"/>
				<g>
					<polygon class="st2" points="587.49,386.61 587.15,386.25 588.96,384.57 587.15,382.89 587.49,382.52 589.69,384.57 					"/>
				</g>
			</g>
		</g>
		<g>
			<g>
				<line class="st19" x1="562.49" y1="417.74" x2="589.15" y2="417.74"/>
				<g>
					<polygon class="st2" points="587.49,419.79 587.15,419.42 588.96,417.74 587.15,416.06 587.49,415.7 589.69,417.74 					"/>
				</g>
			</g>
		</g>
		<g>
			<g>
				<line class="st19" x1="708.26" y1="401.16" x2="692.44" y2="401.16"/>
				<g>
					<polygon class="st2" points="706.6,399.11 706.26,399.48 708.07,401.15 706.26,402.83 706.6,403.2 708.8,401.15 					"/>
				</g>
			</g>
		</g>
		<path class="st2" d="M774.71,411.35h-56.27c-5.3,0-9.64-4.34-9.64-9.64v-1.12c0-5.3,4.34-9.64,9.64-9.64h56.27
			c5.3,0,9.64,4.34,9.64,9.64v1.12C784.35,407.01,780.01,411.35,774.71,411.35z"/>
		<g>
			<g>
				<path class="st16" d="M722.5,398.16h0.64v5.12h-0.64V398.16z M722.82,400.88h1.34c0.37,0,0.65-0.09,0.85-0.29s0.3-0.45,0.3-0.79
					v-0.01c0-0.34-0.1-0.6-0.3-0.79c-0.2-0.19-0.48-0.28-0.85-0.28h-1.34v-0.57h1.5c0.32,0,0.61,0.07,0.85,0.21
					c0.25,0.14,0.44,0.33,0.58,0.57s0.21,0.53,0.21,0.85v0.01c0,0.32-0.07,0.61-0.21,0.86c-0.14,0.25-0.33,0.44-0.58,0.58
					s-0.53,0.21-0.85,0.21h-1.5V400.88z"/>
				<path class="st16" d="M726.6,399.59h0.62v0.62h0.01c0.06-0.21,0.17-0.38,0.32-0.51c0.15-0.12,0.33-0.19,0.54-0.19
					c0.05,0,0.1,0,0.15,0.01c0.04,0.01,0.08,0.01,0.1,0.02v0.6c-0.02-0.01-0.07-0.02-0.13-0.02s-0.13-0.01-0.2-0.01
					c-0.16,0-0.3,0.04-0.42,0.11c-0.12,0.07-0.21,0.17-0.28,0.31c-0.06,0.13-0.1,0.29-0.1,0.48v2.28h-0.62V399.59z"/>
				<path class="st16" d="M728.92,398.85c-0.08-0.08-0.11-0.17-0.11-0.27c0-0.11,0.04-0.2,0.11-0.27c0.08-0.07,0.17-0.11,0.27-0.11
					c0.11,0,0.2,0.04,0.28,0.11s0.11,0.17,0.11,0.27c0,0.11-0.04,0.2-0.11,0.27c-0.07,0.08-0.17,0.11-0.28,0.11
					C729.08,398.97,728.99,398.93,728.92,398.85z M728.88,399.59h0.62v3.69h-0.62V399.59z"/>
				<path class="st16" d="M730.34,399.59h0.62v0.52h0.01c0.1-0.17,0.24-0.31,0.43-0.43s0.42-0.17,0.7-0.17
					c0.4,0,0.72,0.12,0.94,0.37c0.22,0.25,0.33,0.58,0.33,1v2.39h-0.62v-2.28c0-0.3-0.07-0.53-0.21-0.69
					c-0.14-0.16-0.35-0.24-0.64-0.24c-0.19,0-0.36,0.04-0.51,0.13c-0.14,0.09-0.26,0.21-0.33,0.36s-0.12,0.34-0.12,0.55v2.17h-0.62
					V399.59z"/>
				<path class="st16" d="M734.61,403.11c-0.17-0.16-0.25-0.42-0.25-0.77v-2.24h-0.54v-0.51h0.54v-1h0.64v1h0.7v0.51h-0.7v2.23
					c0,0.2,0.04,0.33,0.13,0.4c0.09,0.07,0.21,0.11,0.38,0.11c0.04,0,0.07,0,0.11-0.01c0.03,0,0.06-0.01,0.09-0.01v0.5
					c-0.04,0-0.09,0.01-0.15,0.02c-0.06,0.01-0.12,0.01-0.18,0.01C735.03,403.35,734.77,403.27,734.61,403.11z"/>
				<path class="st16" d="M738.84,403.04c-0.35-0.22-0.62-0.52-0.81-0.92c-0.19-0.4-0.29-0.86-0.29-1.4v0c0-0.54,0.1-1,0.29-1.4
					s0.46-0.7,0.81-0.92s0.76-0.32,1.24-0.32c0.35,0,0.68,0.07,0.97,0.2s0.53,0.32,0.73,0.56c0.19,0.24,0.32,0.52,0.39,0.85
					l0.01,0.04h-0.65l-0.03-0.08c-0.07-0.21-0.17-0.38-0.3-0.53c-0.13-0.15-0.29-0.26-0.48-0.33c-0.19-0.08-0.4-0.12-0.65-0.12
					c-0.34,0-0.64,0.08-0.89,0.25s-0.45,0.41-0.58,0.71c-0.14,0.31-0.21,0.67-0.21,1.08v0c0,0.41,0.07,0.77,0.21,1.08
					c0.14,0.31,0.33,0.55,0.59,0.72c0.25,0.17,0.55,0.25,0.89,0.25c0.24,0,0.45-0.04,0.64-0.12c0.19-0.08,0.35-0.19,0.48-0.35
					s0.24-0.34,0.31-0.57l0.01-0.03h0.65l-0.01,0.04c-0.06,0.33-0.19,0.61-0.39,0.85c-0.19,0.24-0.44,0.43-0.73,0.56
					c-0.29,0.13-0.62,0.2-0.97,0.2C739.61,403.36,739.19,403.26,738.84,403.04z"/>
				<path class="st16" d="M743.46,403.12c-0.26-0.16-0.46-0.38-0.6-0.67c-0.14-0.29-0.21-0.63-0.21-1.02v-0.01
					c0-0.39,0.07-0.73,0.21-1.02c0.14-0.28,0.34-0.5,0.6-0.66c0.26-0.16,0.55-0.23,0.89-0.23c0.34,0,0.64,0.08,0.9,0.23
					c0.26,0.16,0.46,0.38,0.6,0.66c0.14,0.29,0.21,0.62,0.21,1.02v0.01c0,0.39-0.07,0.73-0.21,1.02c-0.14,0.29-0.34,0.51-0.6,0.66
					c-0.25,0.16-0.55,0.23-0.89,0.23S743.72,403.27,743.46,403.12z M744.93,402.64c0.16-0.11,0.28-0.26,0.37-0.47
					c0.09-0.21,0.13-0.45,0.13-0.74v-0.01c0-0.29-0.04-0.53-0.13-0.74c-0.09-0.2-0.21-0.36-0.38-0.46s-0.35-0.16-0.57-0.16
					c-0.21,0-0.4,0.05-0.56,0.16c-0.16,0.11-0.29,0.26-0.38,0.46s-0.13,0.45-0.13,0.74v0.01c0,0.29,0.04,0.54,0.13,0.74
					c0.09,0.2,0.22,0.36,0.38,0.47c0.16,0.11,0.35,0.16,0.57,0.16C744.58,402.8,744.77,402.75,744.93,402.64z"/>
				<path class="st16" d="M746.68,399.59h0.62v0.54h0.01c0.08-0.18,0.21-0.33,0.39-0.44c0.18-0.11,0.38-0.17,0.62-0.17
					c0.17,0,0.32,0.03,0.46,0.08s0.25,0.14,0.35,0.24c0.1,0.11,0.17,0.23,0.23,0.38h0.01c0.07-0.15,0.16-0.28,0.28-0.38
					c0.11-0.11,0.25-0.19,0.4-0.24c0.15-0.06,0.31-0.08,0.48-0.08c0.24,0,0.46,0.05,0.63,0.15s0.32,0.24,0.42,0.42
					c0.1,0.18,0.15,0.39,0.15,0.64v2.55h-0.62v-2.41c0-0.25-0.07-0.45-0.2-0.59c-0.13-0.14-0.32-0.21-0.57-0.21
					c-0.16,0-0.31,0.04-0.43,0.11c-0.12,0.07-0.22,0.18-0.29,0.31c-0.07,0.13-0.11,0.28-0.11,0.45v2.34h-0.62v-2.47
					c0-0.22-0.07-0.4-0.21-0.54c-0.14-0.13-0.32-0.2-0.55-0.2c-0.16,0-0.31,0.04-0.43,0.12c-0.13,0.08-0.23,0.19-0.3,0.32
					s-0.11,0.29-0.11,0.46v2.31h-0.62V399.59z"/>
				<path class="st16" d="M752.52,399.59h0.62v0.62h0.01c0.08-0.14,0.17-0.27,0.29-0.37c0.11-0.1,0.25-0.18,0.4-0.24
					c0.15-0.06,0.31-0.08,0.49-0.08c0.31,0,0.59,0.08,0.82,0.24s0.42,0.38,0.55,0.67c0.13,0.29,0.2,0.62,0.2,1.01v0
					c0,0.39-0.07,0.72-0.2,1.01c-0.13,0.29-0.31,0.51-0.55,0.67c-0.23,0.16-0.5,0.24-0.81,0.24c-0.17,0-0.33-0.03-0.49-0.08
					s-0.29-0.13-0.4-0.24c-0.12-0.1-0.21-0.23-0.29-0.37h-0.01v1.86h-0.62V399.59z M754.76,402.64c0.16-0.11,0.28-0.27,0.37-0.47
					c0.08-0.21,0.13-0.45,0.13-0.73v0c0-0.28-0.04-0.53-0.13-0.73c-0.09-0.2-0.21-0.36-0.37-0.47c-0.16-0.11-0.35-0.17-0.56-0.17
					c-0.21,0-0.39,0.06-0.55,0.17c-0.16,0.11-0.29,0.27-0.38,0.48c-0.09,0.21-0.14,0.45-0.14,0.72v0c0,0.27,0.05,0.51,0.14,0.72
					c0.09,0.21,0.22,0.36,0.38,0.48c0.16,0.11,0.34,0.17,0.55,0.17C754.42,402.8,754.6,402.75,754.76,402.64z"/>
				<path class="st16" d="M756.54,398.16h0.62v5.12h-0.62V398.16z"/>
				<path class="st16" d="M758.6,403.12c-0.25-0.16-0.45-0.38-0.58-0.66c-0.14-0.29-0.2-0.62-0.2-1.01v0c0-0.38,0.07-0.72,0.21-1
					c0.14-0.29,0.33-0.52,0.58-0.68s0.54-0.24,0.88-0.24s0.62,0.08,0.87,0.23s0.43,0.37,0.56,0.65c0.13,0.28,0.2,0.6,0.2,0.97v0.23
					h-2.97v-0.48h2.67l-0.31,0.45v-0.24c0-0.29-0.04-0.52-0.13-0.71c-0.09-0.19-0.21-0.33-0.36-0.42s-0.33-0.14-0.52-0.14
					s-0.37,0.05-0.53,0.14s-0.28,0.24-0.37,0.43c-0.09,0.19-0.13,0.42-0.13,0.69v0.24c0,0.26,0.04,0.48,0.13,0.67
					c0.09,0.18,0.21,0.33,0.38,0.42c0.16,0.1,0.36,0.15,0.58,0.15c0.16,0,0.3-0.02,0.42-0.07c0.12-0.05,0.23-0.11,0.31-0.2
					s0.14-0.18,0.18-0.28l0.01-0.03h0.61l-0.01,0.04c-0.03,0.15-0.09,0.29-0.17,0.43c-0.09,0.13-0.2,0.25-0.33,0.35
					s-0.29,0.18-0.46,0.23s-0.36,0.08-0.56,0.08C759.16,403.35,758.85,403.27,758.6,403.12z"/>
				<path class="st16" d="M762.15,403.11c-0.17-0.16-0.25-0.42-0.25-0.77v-2.24h-0.54v-0.51h0.54v-1h0.64v1h0.7v0.51h-0.7v2.23
					c0,0.2,0.04,0.33,0.13,0.4c0.09,0.07,0.21,0.11,0.38,0.11c0.04,0,0.07,0,0.11-0.01c0.03,0,0.06-0.01,0.09-0.01v0.5
					c-0.04,0-0.09,0.01-0.15,0.02c-0.06,0.01-0.12,0.01-0.18,0.01C762.57,403.35,762.32,403.27,762.15,403.11z"/>
				<path class="st16" d="M764.51,403.12c-0.25-0.16-0.45-0.38-0.58-0.66c-0.14-0.29-0.2-0.62-0.2-1.01v0c0-0.38,0.07-0.72,0.21-1
					c0.14-0.29,0.33-0.52,0.58-0.68s0.54-0.24,0.88-0.24s0.62,0.08,0.87,0.23s0.43,0.37,0.56,0.65c0.13,0.28,0.2,0.6,0.2,0.97v0.23
					h-2.97v-0.48h2.67l-0.31,0.45v-0.24c0-0.29-0.04-0.52-0.13-0.71c-0.09-0.19-0.21-0.33-0.36-0.42s-0.33-0.14-0.52-0.14
					s-0.37,0.05-0.53,0.14s-0.28,0.24-0.37,0.43c-0.09,0.19-0.13,0.42-0.13,0.69v0.24c0,0.26,0.04,0.48,0.13,0.67
					c0.09,0.18,0.21,0.33,0.38,0.42c0.16,0.1,0.36,0.15,0.58,0.15c0.16,0,0.3-0.02,0.42-0.07c0.12-0.05,0.23-0.11,0.31-0.2
					s0.14-0.18,0.18-0.28l0.01-0.03h0.61l-0.01,0.04c-0.03,0.15-0.09,0.29-0.17,0.43c-0.09,0.13-0.2,0.25-0.33,0.35
					s-0.29,0.18-0.46,0.23s-0.36,0.08-0.56,0.08C765.07,403.35,764.76,403.27,764.51,403.12z"/>
				<path class="st16" d="M768.18,403.11c-0.24-0.16-0.42-0.38-0.55-0.67s-0.2-0.62-0.2-1.01v0c0-0.39,0.07-0.72,0.2-1.01
					c0.13-0.29,0.31-0.51,0.55-0.67s0.5-0.24,0.81-0.24c0.26,0,0.49,0.06,0.7,0.18c0.21,0.12,0.37,0.29,0.48,0.5h0.01v-2.05h0.62
					v5.12h-0.62v-0.62h-0.01c-0.12,0.21-0.27,0.38-0.47,0.51c-0.2,0.12-0.43,0.19-0.7,0.19
					C768.69,403.35,768.42,403.27,768.18,403.11z M769.68,402.63c0.16-0.11,0.29-0.27,0.38-0.48c0.09-0.21,0.14-0.45,0.14-0.72v0
					c0-0.27-0.05-0.51-0.14-0.72c-0.09-0.2-0.22-0.36-0.38-0.48c-0.16-0.11-0.34-0.17-0.55-0.17c-0.22,0-0.41,0.06-0.56,0.17
					c-0.16,0.11-0.28,0.27-0.37,0.47c-0.08,0.2-0.13,0.45-0.13,0.73v0c0,0.28,0.04,0.53,0.13,0.73c0.09,0.21,0.21,0.36,0.37,0.47
					c0.16,0.11,0.35,0.17,0.56,0.17C769.34,402.8,769.52,402.75,769.68,402.63z"/>
			</g>
		</g>
		<g>
			<g>
				<path class="st19" d="M448.61,317.31h49.54c5.61,0,10.21,4.45,10.21,9.89v63.22"/>
				<g>
					<polygon class="st2" points="506.31,388.76 506.67,388.42 508.35,390.23 510.03,388.42 510.4,388.76 508.35,390.96 					"/>
				</g>
			</g>
		</g>
		<g>
			<g>
				<path class="st19" d="M589.15,351.39h-5.29h-15.54c-3.21,0-5.83,2.62-5.83,5.83v87.87c0,3.21,2.62,5.83,5.83,5.83h15.54h5.29"/>
				<g>
					<polygon class="st2" points="587.49,349.35 587.15,349.71 588.96,351.39 587.15,353.07 587.49,353.43 589.69,351.39 					"/>
				</g>
				<g>
					<polygon class="st2" points="587.49,452.96 587.15,452.6 588.96,450.92 587.15,449.24 587.49,448.87 589.69,450.92 					"/>
				</g>
			</g>
		</g>
		<line class="st19" x1="692.44" y1="417.74" x2="665.24" y2="417.74"/>
		<line class="st19" x1="692.44" y1="384.57" x2="665.24" y2="384.57"/>
		<path class="st19" d="M665.24,450.92h5.83h15.54c3.21,0,5.83-2.62,5.83-5.83v-87.87c0-3.21-2.62-5.83-5.83-5.83h-15.54h-5.83"/>
		<text transform="matrix(1 0 0 1 92.357 362.3391)" class="st8 st17 st18">No</text>
		<line class="st19" x1="95.32" y1="345.49" x2="95.32" y2="355.76"/>
		<g>
			<g>
				<line class="st19" x1="198.58" y1="411.89" x2="198.58" y2="433.06"/>
				<g>
					<polygon class="st2" points="196.53,413.55 196.9,413.89 198.58,412.08 200.25,413.89 200.62,413.55 198.58,411.35 					"/>
				</g>
			</g>
		</g>
		<g>
			<g>
				<path class="st19" d="M303.17,234.8v3.67v3.89v5.14c0,2.14-0.98,3.89-2.18,3.89h-16.1H116.78h-5.23H98.32
					c-1.65,0-3.01,2.41-3.01,5.36v8.52v23.47"/>
				<g>
					<polygon class="st2" points="93.27,287.08 93.64,286.74 95.32,288.55 97,286.74 97.36,287.08 95.32,289.28 					"/>
				</g>
			</g>
		</g>
		<g>
			<g>
				<path class="st19" d="M414.17,345.49v3.06v3.24v4.29c0,1.78-1.46,3.24-3.24,3.24h-23.98h-242.7h-13.97h-19.71
					c-3.28,0-5.96,2.67-5.96,5.92v25.16"/>
				<g>
					<polygon class="st2" points="102.56,388.76 102.93,388.42 104.61,390.23 106.29,388.42 106.65,388.76 104.61,390.96 					"/>
				</g>
			</g>
		</g>
		<g>
			<g>
				<path class="st19" d="M104.61,411.35v6.24v19.71c0,3.28,2.68,5.96,5.96,5.96h25.88h23.73"/>
				<g>
					<polygon class="st2" points="158.53,445.3 158.19,444.93 159.99,443.26 158.19,441.58 158.53,441.21 160.73,443.26 					"/>
				</g>
			</g>
		</g>
	</g>
	<g>
		<g>
			<path class="st21" d="M717.5,197.25c-2.61-2.02-4.61-4.87-6-8.56s-2.07-8.07-2.06-13.13v-0.07c0.01-5.06,0.72-9.43,2.12-13.12
				c1.4-3.69,3.41-6.52,6.04-8.52c2.62-1.99,5.77-2.99,9.43-2.98s6.81,1.02,9.44,3.02s4.63,4.85,6.03,8.55
				c1.39,3.69,2.08,8.07,2.07,13.13v0.07c-0.01,5.06-0.72,9.43-2.13,13.12c-1.41,3.69-3.43,6.53-6.07,8.54c-2.63,2-5.78,3-9.45,2.99
				S720.12,199.27,717.5,197.25z M733.19,192.74c1.74-1.58,3.07-3.82,3.99-6.73c0.92-2.91,1.39-6.37,1.4-10.37v-0.07
				c0.01-4-0.44-7.45-1.35-10.36c-0.91-2.91-2.23-5.15-3.96-6.72s-3.81-2.36-6.24-2.37s-4.51,0.77-6.24,2.34
				c-1.73,1.56-3.05,3.8-3.96,6.7c-0.91,2.9-1.37,6.35-1.38,10.35v0.07c-0.01,4,0.44,7.46,1.33,10.37c0.9,2.92,2.21,5.17,3.93,6.75
				c1.72,1.58,3.79,2.38,6.22,2.38S731.45,194.31,733.19,192.74z"/>
			<path class="st21" d="M775.9,157.23l0-0.13l-25.75-0.06l0.01-5.3l31.64,0.07l-0.01,5.53l-21.37,42.23l-6.26-0.01L775.9,157.23z"
				/>
		</g>
	</g>
</g>
</svg>
