<?xml version="1.0" encoding="utf-8"?>
<!-- Generator: Adobe Illustrator 25.4.1, SVG Export Plug-In . SVG Version: 6.00 Build 0)  -->
<svg version="1.1" xmlns="http://www.w3.org/2000/svg" xmlns:xlink="http://www.w3.org/1999/xlink" x="0px" y="0px"
	 viewBox="0 0 841.89 649.82" style="enable-background:new 0 0 841.89 649.82;" xml:space="preserve">
<style type="text/css">
	.st0{fill:#181B21;}
	.st1{opacity:0.05;fill:#FFFFFF;stroke:#FFFFFF;stroke-width:0.25;stroke-miterlimit:10;}
	.st2{fill:#E47651;}
	.st3{fill:#7F7639;}
	.st4{fill:#FBD7C0;}
	.st5{fill:#372B26;}
	.st6{fill:#39637F;}
	.st7{fill:#FFFFFF;stroke:#FFFFFF;stroke-width:0.25;stroke-miterlimit:10;}
	.st8{fill:#FFFFFF;}
	.st9{fill:none;stroke:#FFFFFF;stroke-width:0.25;stroke-miterlimit:10;}
	.st10{fill:none;stroke:#E47651;stroke-width:1.5;stroke-miterlimit:10;}
	.st11{fill:#F47950;}
	.st12{fill:#171A20;}
	.st13{fill:none;stroke:#E47651;stroke-width:0.5;stroke-miterlimit:10;}
	.st14{fill:none;stroke:#E47651;stroke-width:0.75;stroke-miterlimit:10;}
	.st15{fill:none;stroke:#FFFFFF;}
	.st16{opacity:0.08;fill:#FFFFFF;}
	.st17{opacity:0.4;fill:#F47950;}
	.st18{fill:none;stroke:#F47950;stroke-width:0.3;stroke-miterlimit:10;}
	.st19{fill:none;stroke:#FFFFFF;stroke-width:0.75;stroke-miterlimit:10;}
	.st20{fill:#606161;}
	.st21{opacity:0.6;}
	.st22{fill:none;stroke:#FFFFFF;stroke-width:0.5;stroke-miterlimit:10;}
	.st23{fill:#C2584E;}
	.st24{fill:#62647A;}
	.st25{fill:#DA6A39;}
	.st26{fill:#898A8D;}
	.st27{fill:#B6C277;}
	.st28{fill:#75C2CD;}
	.st29{fill:#21458D;}
	.st30{fill:#555C66;}
	.st31{fill:none;stroke:#555C66;stroke-miterlimit:10;}
	.st32{fill:none;stroke:#E47651;stroke-miterlimit:10;}
	.st33{fill:#FFFFFF;stroke:#FFFFFF;stroke-miterlimit:10;}
	.st34{font-family:'Roboto-Regular';}
	.st35{font-size:48px;}
	.st36{letter-spacing:2;}
	.st37{font-family:'Roboto-Bold';}
	.st38{font-size:35.2506px;}
	.st39{letter-spacing:1;}
	.st40{fill:#353A42;}
	.st41{fill:#A8B3BF;}
	.st42{fill:none;stroke:#F47950;stroke-miterlimit:10;}
	.st43{fill:none;stroke:#F47950;stroke-width:1.5;stroke-miterlimit:10;}
	.st44{opacity:0.1;fill:#FFFFFF;}
</style>
<g id="Layer_2">
	<rect y="0" class="st0" width="841.89" height="649.82"/>
	<rect x="-0.49" y="648.51" class="st0" width="841.89" height="595.28"/>
</g>
<g id="Layer_1">
	<g>
		<text transform="matrix(1 0 0 1 390.1641 101.8761)" class="st33 st34 st35 st36">06</text>
	</g>
	<g>
		<text transform="matrix(1 0 0 1 204.2124 154.2001)" class="st8 st37 st38 st39">Information Architecture</text>
	</g>
	<g>
		<line class="st13" x1="223.63" y1="411.57" x2="223.63" y2="430.4"/>
		<line class="st13" x1="223.63" y1="456.83" x2="223.63" y2="475.66"/>
		<g>
			<g>
				<path class="st8" d="M209.34,485h0.83v2.87h3.64V485h0.83v6.64h-0.83v-3.02h-3.64v3.02h-0.83V485z"/>
				<path class="st8" d="M215.9,485.9c-0.1-0.1-0.15-0.22-0.15-0.35c0-0.14,0.05-0.26,0.15-0.36s0.22-0.14,0.35-0.14
					c0.14,0,0.26,0.05,0.36,0.14s0.15,0.22,0.15,0.36c0,0.14-0.05,0.26-0.15,0.35c-0.1,0.1-0.22,0.15-0.36,0.15
					C216.12,486.05,216,486,215.9,485.9z M215.85,486.85h0.8v4.78h-0.8V486.85z"/>
				<path class="st8" d="M218.47,491.55c-0.27-0.12-0.49-0.29-0.65-0.5s-0.25-0.46-0.29-0.75l0-0.04h0.8l0.01,0.05
					c0.05,0.24,0.16,0.43,0.34,0.56c0.18,0.13,0.43,0.2,0.76,0.2c0.22,0,0.4-0.03,0.56-0.08s0.27-0.14,0.35-0.24
					c0.08-0.11,0.12-0.23,0.12-0.38v0c0-0.17-0.05-0.31-0.16-0.41c-0.1-0.1-0.29-0.19-0.57-0.26L219,489.5
					c-0.45-0.11-0.79-0.27-1.01-0.49c-0.22-0.22-0.33-0.5-0.33-0.84v0c0-0.28,0.07-0.52,0.22-0.73c0.15-0.21,0.36-0.38,0.62-0.5
					c0.27-0.12,0.57-0.18,0.91-0.18c0.35,0,0.65,0.06,0.91,0.19c0.26,0.12,0.46,0.29,0.61,0.51c0.15,0.21,0.23,0.45,0.25,0.72
					l0,0.06h-0.76l0-0.03c-0.03-0.23-0.13-0.42-0.31-0.56c-0.17-0.14-0.41-0.21-0.71-0.21c-0.19,0-0.36,0.03-0.5,0.09
					c-0.14,0.06-0.25,0.14-0.32,0.25c-0.08,0.11-0.11,0.23-0.11,0.37v0c0,0.16,0.06,0.3,0.17,0.41s0.31,0.2,0.57,0.27l0.76,0.18
					c0.48,0.12,0.82,0.28,1.02,0.48s0.29,0.48,0.29,0.82v0c0,0.28-0.08,0.53-0.24,0.74c-0.16,0.21-0.38,0.38-0.66,0.5
					c-0.28,0.12-0.6,0.18-0.95,0.18C219.07,491.73,218.74,491.67,218.47,491.55z"/>
				<path class="st8" d="M222.7,491.42c-0.22-0.21-0.33-0.54-0.33-1v-2.9h-0.7v-0.66h0.7v-1.29h0.83v1.29h0.91v0.66h-0.91v2.9
					c0,0.25,0.06,0.43,0.17,0.52c0.11,0.09,0.27,0.14,0.49,0.14c0.05,0,0.1,0,0.14-0.01c0.04,0,0.08-0.01,0.12-0.01v0.65
					c-0.05,0.01-0.11,0.01-0.19,0.02c-0.08,0.01-0.16,0.01-0.24,0.01C223.24,491.73,222.92,491.62,222.7,491.42z"/>
				<path class="st8" d="M225.79,491.43c-0.33-0.2-0.59-0.49-0.78-0.86c-0.19-0.37-0.28-0.81-0.28-1.32v-0.01
					c0-0.51,0.09-0.95,0.28-1.32c0.19-0.37,0.44-0.66,0.78-0.86c0.33-0.2,0.72-0.3,1.16-0.3c0.44,0,0.83,0.1,1.16,0.3
					c0.33,0.2,0.59,0.49,0.78,0.86c0.19,0.37,0.28,0.81,0.28,1.32v0.01c0,0.51-0.09,0.95-0.28,1.32s-0.44,0.66-0.77,0.86
					c-0.33,0.2-0.72,0.3-1.16,0.3S226.12,491.63,225.79,491.43z M227.69,490.81c0.21-0.14,0.37-0.34,0.48-0.61
					c0.12-0.26,0.17-0.58,0.17-0.96v-0.01c0-0.37-0.06-0.69-0.17-0.96c-0.11-0.26-0.28-0.46-0.49-0.6
					c-0.21-0.14-0.46-0.21-0.74-0.21c-0.28,0-0.52,0.07-0.73,0.21s-0.37,0.34-0.49,0.6c-0.12,0.26-0.17,0.58-0.17,0.95v0.01
					c0,0.37,0.06,0.69,0.17,0.96c0.12,0.27,0.28,0.47,0.49,0.61s0.46,0.21,0.74,0.21S227.48,490.95,227.69,490.81z"/>
				<path class="st8" d="M229.96,486.85h0.8v0.81h0.02c0.08-0.28,0.22-0.5,0.41-0.66c0.2-0.16,0.43-0.24,0.7-0.24
					c0.07,0,0.13,0,0.19,0.01s0.1,0.01,0.13,0.02v0.78c-0.03-0.01-0.08-0.02-0.16-0.03s-0.17-0.01-0.26-0.01
					c-0.21,0-0.39,0.05-0.54,0.14s-0.27,0.22-0.36,0.4c-0.08,0.17-0.13,0.38-0.13,0.62v2.95h-0.8V486.85z"/>
				<path class="st8" d="M233.09,493.24c-0.08-0.01-0.14-0.02-0.2-0.02v-0.65c0.03,0.01,0.07,0.01,0.12,0.02
					c0.04,0.01,0.09,0.01,0.14,0.01c0.25,0,0.46-0.04,0.61-0.13c0.15-0.09,0.27-0.27,0.37-0.54l0.1-0.27l-1.78-4.79h0.86l1.38,4.17
					l-0.17-0.18h0.24l-0.17,0.18l1.38-4.17h0.84l-1.87,5.08c-0.11,0.3-0.24,0.55-0.38,0.75s-0.31,0.34-0.51,0.43
					c-0.2,0.09-0.44,0.14-0.73,0.14C233.25,493.25,233.17,493.24,233.09,493.24z"/>
			</g>
		</g>
		<line class="st13" x1="420.94" y1="245.62" x2="420.94" y2="260.19"/>
		<line class="st13" x1="420.94" y1="298.43" x2="420.94" y2="313"/>
		<line class="st13" x1="486.72" y1="313" x2="486.72" y2="343.7"/>
		<line class="st13" x1="355.17" y1="313" x2="355.17" y2="343.7"/>
		<line class="st13" x1="486.72" y1="366.3" x2="486.72" y2="385.13"/>
		<line class="st13" x1="618.26" y1="366.3" x2="618.26" y2="385.13"/>
		<line class="st13" x1="355.17" y1="366.3" x2="355.17" y2="385.13"/>
		<path class="st2" d="M264.27,366.3h-81.3c-4.58,0-8.33-3.75-8.33-8.33v-9.78c0-4.58,3.75-8.33,8.33-8.33h81.3
			c4.58,0,8.33,3.75,8.33,8.33v9.78C272.6,362.55,268.85,366.3,264.27,366.3z"/>
		<path class="st2" d="M395.82,366.3h-81.3c-4.58,0-8.33-3.75-8.33-8.33v-9.78c0-4.58,3.75-8.33,8.33-8.33h81.3
			c4.58,0,8.33,3.75,8.33,8.33v9.78C404.15,362.55,400.4,366.3,395.82,366.3z"/>
		<path class="st2" d="M527.37,366.3h-81.3c-4.58,0-8.33-3.75-8.33-8.33v-9.78c0-4.58,3.75-8.33,8.33-8.33h81.3
			c4.58,0,8.33,3.75,8.33,8.33v9.78C535.69,362.55,531.95,366.3,527.37,366.3z"/>
		<path class="st2" d="M658.91,366.3h-81.3c-4.58,0-8.33-3.75-8.33-8.33v-9.78c0-4.58,3.75-8.33,8.33-8.33h81.3
			c4.58,0,8.33,3.75,8.33,8.33v9.78C667.24,362.55,663.49,366.3,658.91,366.3z"/>
		<path class="st13" d="M264.27,411.57h-81.3c-4.58,0-8.33-3.75-8.33-8.33v-9.78c0-4.58,3.75-8.33,8.33-8.33h81.3
			c4.58,0,8.33,3.75,8.33,8.33v9.78C272.6,407.82,268.85,411.57,264.27,411.57z"/>
		<g>
			<g>
				<path class="st8" d="M326.61,400.51l3.79-5.28v-0.02h-3.67v-0.74h4.7v0.59l-3.78,5.28v0.02h3.85v0.75h-4.91V400.51z"/>
				<path class="st8" d="M332.52,398.04h2.94v0.75h-2.94V398.04z"/>
				<path class="st8" d="M337.09,401.01c-0.24-0.12-0.43-0.29-0.56-0.51c-0.13-0.22-0.2-0.47-0.2-0.76v-0.01
					c0-0.41,0.15-0.73,0.46-0.98c0.3-0.24,0.73-0.38,1.28-0.41l1.77-0.1v0.62l-1.68,0.1c-0.32,0.02-0.57,0.09-0.74,0.23
					s-0.26,0.31-0.26,0.54v0.01c0,0.23,0.09,0.41,0.26,0.55c0.17,0.13,0.4,0.2,0.69,0.2c0.25,0,0.48-0.05,0.68-0.16
					c0.2-0.11,0.36-0.25,0.48-0.43c0.12-0.18,0.18-0.39,0.18-0.62v-1.41c0-0.29-0.09-0.52-0.27-0.69c-0.18-0.17-0.44-0.25-0.77-0.25
					c-0.31,0-0.55,0.07-0.74,0.2c-0.19,0.13-0.31,0.31-0.35,0.52l-0.01,0.04h-0.77l0-0.05c0.02-0.26,0.11-0.5,0.27-0.72
					c0.15-0.21,0.37-0.39,0.64-0.51c0.27-0.13,0.6-0.19,0.97-0.19c0.38,0,0.7,0.06,0.98,0.19s0.49,0.31,0.64,0.54
					c0.15,0.23,0.23,0.51,0.23,0.83v3.31h-0.8v-0.78h-0.02c-0.09,0.17-0.21,0.33-0.37,0.46c-0.15,0.13-0.33,0.23-0.52,0.3
					c-0.19,0.07-0.39,0.11-0.61,0.11C337.61,401.19,337.33,401.13,337.09,401.01z"/>
				<path class="st8" d="M342.51,398.71l-1.6-2.39h0.89l1.15,1.79h0.02l1.14-1.79H345l-1.61,2.36l1.59,2.42h-0.89l-1.15-1.82h-0.02
					l-1.15,1.82h-0.89L342.51,398.71z"/>
				<path class="st8" d="M345.76,395.36c-0.1-0.1-0.15-0.22-0.15-0.35c0-0.14,0.05-0.26,0.15-0.36s0.22-0.14,0.35-0.14
					c0.14,0,0.26,0.05,0.36,0.14s0.15,0.22,0.15,0.36c0,0.14-0.05,0.26-0.15,0.35c-0.1,0.1-0.22,0.15-0.36,0.15
					C345.98,395.51,345.86,395.46,345.76,395.36z M345.71,396.32h0.8v4.78h-0.8V396.32z"/>
				<path class="st8" d="M348.33,401.01c-0.27-0.12-0.49-0.29-0.65-0.5s-0.25-0.46-0.29-0.75l0-0.04h0.8l0.01,0.05
					c0.05,0.24,0.16,0.43,0.34,0.56c0.18,0.13,0.43,0.2,0.76,0.2c0.22,0,0.4-0.03,0.56-0.08s0.27-0.14,0.35-0.24
					c0.08-0.11,0.12-0.23,0.12-0.38v0c0-0.17-0.05-0.31-0.16-0.41c-0.1-0.1-0.29-0.19-0.57-0.26l-0.76-0.18
					c-0.45-0.11-0.79-0.27-1.01-0.49c-0.22-0.22-0.33-0.5-0.33-0.84v0c0-0.28,0.07-0.52,0.22-0.73c0.15-0.21,0.36-0.38,0.62-0.5
					c0.27-0.12,0.57-0.18,0.91-0.18c0.35,0,0.65,0.06,0.91,0.19c0.26,0.12,0.46,0.29,0.61,0.51c0.15,0.21,0.23,0.45,0.25,0.72
					l0,0.06h-0.76l0-0.03c-0.03-0.23-0.13-0.42-0.31-0.56c-0.17-0.14-0.41-0.21-0.71-0.21c-0.19,0-0.36,0.03-0.5,0.09
					c-0.14,0.06-0.25,0.14-0.32,0.25c-0.08,0.11-0.11,0.23-0.11,0.37v0c0,0.16,0.06,0.3,0.17,0.41s0.31,0.2,0.57,0.27l0.76,0.18
					c0.48,0.12,0.82,0.28,1.02,0.48s0.29,0.48,0.29,0.82v0c0,0.28-0.08,0.53-0.24,0.74c-0.16,0.21-0.38,0.38-0.66,0.5
					c-0.28,0.12-0.6,0.18-0.95,0.18C348.93,401.19,348.6,401.13,348.33,401.01z"/>
				<path class="st8" d="M355.21,400.79c-0.46-0.28-0.81-0.68-1.06-1.19s-0.37-1.12-0.37-1.81v0c0-0.7,0.12-1.3,0.37-1.81
					c0.25-0.51,0.6-0.91,1.05-1.19c0.45-0.28,0.99-0.42,1.6-0.42c0.46,0,0.88,0.09,1.26,0.26c0.38,0.17,0.69,0.42,0.95,0.73
					c0.25,0.31,0.42,0.68,0.5,1.1l0.01,0.05h-0.84l-0.03-0.1c-0.09-0.27-0.21-0.5-0.38-0.69c-0.17-0.19-0.38-0.33-0.62-0.43
					c-0.25-0.1-0.52-0.15-0.84-0.15c-0.44,0-0.83,0.11-1.15,0.33c-0.33,0.22-0.58,0.53-0.76,0.92c-0.18,0.4-0.27,0.87-0.27,1.4v0
					c0,0.54,0.09,1,0.27,1.41c0.18,0.4,0.43,0.71,0.76,0.93s0.71,0.33,1.15,0.33c0.31,0,0.59-0.05,0.83-0.15
					c0.24-0.1,0.45-0.25,0.63-0.45c0.17-0.2,0.31-0.44,0.4-0.73l0.01-0.04h0.84l-0.01,0.05c-0.08,0.42-0.25,0.79-0.5,1.11
					c-0.25,0.31-0.57,0.56-0.94,0.73c-0.38,0.17-0.8,0.26-1.26,0.26C356.2,401.21,355.67,401.07,355.21,400.79z"/>
				<path class="st8" d="M361.2,400.89c-0.33-0.2-0.59-0.49-0.78-0.86c-0.19-0.37-0.28-0.81-0.28-1.32v-0.01
					c0-0.51,0.09-0.95,0.28-1.32c0.19-0.37,0.44-0.66,0.78-0.86c0.33-0.2,0.72-0.3,1.16-0.3c0.44,0,0.83,0.1,1.16,0.3
					c0.33,0.2,0.59,0.49,0.78,0.86c0.19,0.37,0.28,0.81,0.28,1.32v0.01c0,0.51-0.09,0.95-0.28,1.32s-0.44,0.66-0.77,0.86
					c-0.33,0.2-0.72,0.3-1.16,0.3S361.53,401.09,361.2,400.89z M363.1,400.28c0.21-0.14,0.37-0.34,0.48-0.61
					c0.12-0.26,0.17-0.58,0.17-0.96v-0.01c0-0.37-0.06-0.69-0.17-0.96c-0.11-0.26-0.28-0.46-0.49-0.6
					c-0.21-0.14-0.46-0.21-0.74-0.21c-0.28,0-0.52,0.07-0.73,0.21s-0.37,0.34-0.49,0.6c-0.12,0.26-0.17,0.58-0.17,0.95v0.01
					c0,0.37,0.06,0.69,0.17,0.96c0.12,0.27,0.28,0.47,0.49,0.61s0.46,0.21,0.74,0.21S362.89,400.41,363.1,400.28z"/>
				<path class="st8" d="M365.38,396.32h0.8V397h0.02c0.13-0.22,0.32-0.41,0.56-0.55c0.25-0.15,0.55-0.22,0.91-0.22
					c0.52,0,0.93,0.16,1.22,0.48c0.29,0.32,0.43,0.75,0.43,1.29v3.1h-0.8v-2.96c0-0.39-0.09-0.69-0.27-0.89
					c-0.18-0.21-0.46-0.31-0.83-0.31c-0.25,0-0.47,0.06-0.66,0.17c-0.19,0.11-0.33,0.27-0.43,0.47c-0.1,0.2-0.15,0.44-0.15,0.71
					v2.81h-0.8V396.32z"/>
				<path class="st8" d="M370.91,400.88c-0.22-0.21-0.33-0.54-0.33-1v-2.9h-0.7v-0.66h0.7v-1.29h0.83v1.29h0.91v0.66h-0.91v2.9
					c0,0.25,0.06,0.43,0.17,0.52c0.11,0.09,0.27,0.14,0.49,0.14c0.05,0,0.1,0,0.14-0.01c0.04,0,0.08-0.01,0.12-0.01v0.65
					c-0.05,0.01-0.11,0.01-0.19,0.02c-0.08,0.01-0.16,0.01-0.24,0.01C371.46,401.19,371.13,401.09,370.91,400.88z"/>
				<path class="st8" d="M373.18,396.32h0.8v0.81H374c0.08-0.28,0.22-0.5,0.41-0.66c0.2-0.16,0.43-0.24,0.7-0.24
					c0.07,0,0.13,0,0.19,0.01s0.1,0.01,0.13,0.02v0.78c-0.03-0.01-0.08-0.02-0.16-0.03s-0.17-0.01-0.26-0.01
					c-0.21,0-0.39,0.05-0.54,0.14s-0.27,0.22-0.36,0.4c-0.08,0.17-0.13,0.38-0.13,0.62v2.95h-0.8V396.32z"/>
				<path class="st8" d="M376.9,400.89c-0.33-0.2-0.59-0.49-0.78-0.86c-0.19-0.37-0.28-0.81-0.28-1.32v-0.01
					c0-0.51,0.09-0.95,0.28-1.32c0.19-0.37,0.44-0.66,0.78-0.86c0.33-0.2,0.72-0.3,1.16-0.3c0.44,0,0.83,0.1,1.16,0.3
					c0.33,0.2,0.59,0.49,0.78,0.86c0.19,0.37,0.28,0.81,0.28,1.32v0.01c0,0.51-0.09,0.95-0.28,1.32s-0.44,0.66-0.77,0.86
					c-0.33,0.2-0.72,0.3-1.16,0.3S377.23,401.09,376.9,400.89z M378.8,400.28c0.21-0.14,0.37-0.34,0.48-0.61
					c0.12-0.26,0.17-0.58,0.17-0.96v-0.01c0-0.37-0.06-0.69-0.17-0.96c-0.11-0.26-0.28-0.46-0.49-0.6
					c-0.21-0.14-0.46-0.21-0.74-0.21c-0.28,0-0.52,0.07-0.73,0.21s-0.37,0.34-0.49,0.6c-0.12,0.26-0.17,0.58-0.17,0.95v0.01
					c0,0.37,0.06,0.69,0.17,0.96c0.12,0.27,0.28,0.47,0.49,0.61s0.46,0.21,0.74,0.21S378.59,400.41,378.8,400.28z"/>
				<path class="st8" d="M381.12,394.46h0.8v6.64h-0.8V394.46z"/>
			</g>
		</g>
		<path class="st13" d="M395.82,411.57h-81.3c-4.58,0-8.33-3.75-8.33-8.33v-9.78c0-4.58,3.75-8.33,8.33-8.33h81.3
			c4.58,0,8.33,3.75,8.33,8.33v9.78C404.15,407.82,400.4,411.57,395.82,411.57z"/>
		<g>
			<g>
				<path class="st8" d="M466.73,394.47h0.83v5.89h3.2v0.75h-4.03V394.47z"/>
				<path class="st8" d="M472.11,401.02c-0.24-0.12-0.42-0.29-0.56-0.51c-0.13-0.22-0.2-0.47-0.2-0.76v-0.01
					c0-0.41,0.15-0.73,0.46-0.98c0.3-0.24,0.73-0.38,1.28-0.41l1.77-0.1v0.62l-1.68,0.1c-0.32,0.02-0.57,0.09-0.74,0.23
					c-0.18,0.13-0.26,0.31-0.26,0.54v0.01c0,0.23,0.09,0.41,0.26,0.55c0.17,0.13,0.4,0.2,0.69,0.2c0.25,0,0.48-0.05,0.68-0.16
					c0.2-0.11,0.36-0.25,0.48-0.43c0.12-0.18,0.18-0.39,0.18-0.62v-1.41c0-0.29-0.09-0.52-0.27-0.69s-0.44-0.25-0.78-0.25
					c-0.31,0-0.55,0.07-0.74,0.2c-0.19,0.13-0.31,0.31-0.35,0.52l-0.01,0.04h-0.77l0-0.05c0.02-0.26,0.11-0.5,0.27-0.72
					c0.16-0.21,0.37-0.39,0.64-0.51c0.27-0.13,0.6-0.19,0.97-0.19c0.38,0,0.7,0.06,0.98,0.19c0.27,0.13,0.49,0.31,0.64,0.54
					s0.23,0.51,0.23,0.83v3.31h-0.8v-0.78h-0.02c-0.09,0.17-0.21,0.33-0.37,0.46c-0.15,0.13-0.33,0.23-0.52,0.3
					c-0.19,0.07-0.4,0.11-0.61,0.11C472.63,401.2,472.35,401.14,472.11,401.02z"/>
				<path class="st8" d="M476.28,396.32h0.8V397h0.02c0.13-0.22,0.32-0.41,0.56-0.55s0.55-0.22,0.91-0.22
					c0.52,0,0.93,0.16,1.22,0.48c0.29,0.32,0.43,0.75,0.43,1.29v3.1h-0.8v-2.96c0-0.39-0.09-0.69-0.27-0.89s-0.46-0.31-0.83-0.31
					c-0.25,0-0.47,0.06-0.66,0.17c-0.19,0.11-0.33,0.27-0.43,0.47s-0.15,0.44-0.15,0.71v2.81h-0.8V396.32z"/>
				<path class="st8" d="M482.23,402.64c-0.29-0.11-0.53-0.26-0.71-0.46c-0.18-0.19-0.29-0.41-0.35-0.64l-0.01-0.04h0.8l0.02,0.04
					c0.08,0.17,0.22,0.31,0.44,0.41c0.22,0.1,0.49,0.15,0.82,0.15c0.42,0,0.75-0.11,0.97-0.32c0.23-0.22,0.34-0.51,0.34-0.88v-0.61
					h-0.02c-0.1,0.18-0.22,0.33-0.37,0.46s-0.32,0.23-0.52,0.3c-0.19,0.07-0.41,0.11-0.64,0.11c-0.4,0-0.75-0.1-1.06-0.31
					c-0.3-0.2-0.54-0.49-0.71-0.86c-0.17-0.37-0.25-0.8-0.25-1.3v0c0-0.5,0.09-0.93,0.26-1.29c0.17-0.37,0.41-0.65,0.72-0.85
					s0.66-0.3,1.07-0.3c0.23,0,0.43,0.04,0.62,0.12c0.19,0.08,0.36,0.18,0.51,0.32c0.15,0.13,0.27,0.29,0.37,0.47h0.02v-0.81h0.8
					v4.65c0,0.37-0.09,0.69-0.26,0.97s-0.42,0.49-0.73,0.64c-0.32,0.15-0.69,0.23-1.12,0.23
					C482.87,402.81,482.53,402.75,482.23,402.64z M483.92,400.22c0.2-0.15,0.36-0.35,0.48-0.61c0.12-0.26,0.17-0.57,0.17-0.92v0
					c0-0.35-0.06-0.66-0.17-0.92c-0.12-0.26-0.28-0.46-0.48-0.61c-0.21-0.14-0.44-0.22-0.71-0.22c-0.28,0-0.53,0.07-0.74,0.21
					c-0.21,0.14-0.37,0.34-0.48,0.61s-0.17,0.57-0.17,0.92v0c0,0.36,0.06,0.67,0.17,0.94c0.11,0.26,0.27,0.46,0.48,0.61
					c0.21,0.14,0.45,0.21,0.74,0.21C483.48,400.44,483.72,400.37,483.92,400.22z"/>
				<path class="st8" d="M487.15,400.98c-0.25-0.14-0.44-0.35-0.57-0.61c-0.13-0.26-0.2-0.58-0.2-0.94v-3.1h0.8v2.96
					c0,0.39,0.09,0.69,0.27,0.89s0.46,0.31,0.83,0.31c0.25,0,0.47-0.06,0.66-0.17c0.19-0.11,0.33-0.27,0.43-0.47
					s0.15-0.44,0.15-0.71v-2.81h0.8v4.78h-0.8v-0.68h-0.02c-0.13,0.22-0.32,0.41-0.56,0.55c-0.24,0.15-0.55,0.22-0.91,0.22
					C487.69,401.2,487.39,401.12,487.15,400.98z"/>
				<path class="st8" d="M491.94,401.02c-0.24-0.12-0.42-0.29-0.56-0.51c-0.13-0.22-0.2-0.47-0.2-0.76v-0.01
					c0-0.41,0.15-0.73,0.46-0.98c0.3-0.24,0.73-0.38,1.28-0.41l1.77-0.1v0.62l-1.68,0.1c-0.32,0.02-0.57,0.09-0.74,0.23
					c-0.18,0.13-0.26,0.31-0.26,0.54v0.01c0,0.23,0.09,0.41,0.26,0.55c0.17,0.13,0.4,0.2,0.69,0.2c0.25,0,0.48-0.05,0.68-0.16
					c0.2-0.11,0.36-0.25,0.48-0.43c0.12-0.18,0.18-0.39,0.18-0.62v-1.41c0-0.29-0.09-0.52-0.27-0.69s-0.44-0.25-0.78-0.25
					c-0.31,0-0.55,0.07-0.74,0.2c-0.19,0.13-0.31,0.31-0.35,0.52l-0.01,0.04h-0.77l0-0.05c0.02-0.26,0.11-0.5,0.27-0.72
					c0.16-0.21,0.37-0.39,0.64-0.51c0.27-0.13,0.6-0.19,0.97-0.19c0.38,0,0.7,0.06,0.98,0.19c0.27,0.13,0.49,0.31,0.64,0.54
					s0.23,0.51,0.23,0.83v3.31h-0.8v-0.78h-0.02c-0.09,0.17-0.21,0.33-0.37,0.46c-0.15,0.13-0.33,0.23-0.52,0.3
					c-0.19,0.07-0.4,0.11-0.61,0.11C492.45,401.2,492.17,401.14,491.94,401.02z"/>
				<path class="st8" d="M497.09,402.64c-0.29-0.11-0.53-0.26-0.71-0.46c-0.18-0.19-0.29-0.41-0.35-0.64l-0.01-0.04h0.8l0.02,0.04
					c0.08,0.17,0.22,0.31,0.44,0.41c0.22,0.1,0.49,0.15,0.82,0.15c0.42,0,0.75-0.11,0.97-0.32c0.23-0.22,0.34-0.51,0.34-0.88v-0.61
					h-0.02c-0.1,0.18-0.22,0.33-0.37,0.46s-0.32,0.23-0.52,0.3c-0.19,0.07-0.41,0.11-0.64,0.11c-0.4,0-0.75-0.1-1.06-0.31
					c-0.3-0.2-0.54-0.49-0.71-0.86c-0.17-0.37-0.25-0.8-0.25-1.3v0c0-0.5,0.09-0.93,0.26-1.29c0.17-0.37,0.41-0.65,0.72-0.85
					s0.66-0.3,1.07-0.3c0.23,0,0.43,0.04,0.62,0.12c0.19,0.08,0.36,0.18,0.51,0.32c0.15,0.13,0.27,0.29,0.37,0.47h0.02v-0.81h0.8
					v4.65c0,0.37-0.09,0.69-0.26,0.97s-0.42,0.49-0.73,0.64c-0.32,0.15-0.69,0.23-1.12,0.23
					C497.73,402.81,497.39,402.75,497.09,402.64z M498.78,400.22c0.2-0.15,0.36-0.35,0.48-0.61c0.12-0.26,0.17-0.57,0.17-0.92v0
					c0-0.35-0.06-0.66-0.17-0.92c-0.12-0.26-0.28-0.46-0.48-0.61c-0.21-0.14-0.44-0.22-0.71-0.22c-0.28,0-0.53,0.07-0.74,0.21
					c-0.21,0.14-0.37,0.34-0.48,0.61s-0.17,0.57-0.17,0.92v0c0,0.36,0.06,0.67,0.17,0.94c0.11,0.26,0.27,0.46,0.48,0.61
					c0.21,0.14,0.45,0.21,0.74,0.21C498.34,400.44,498.58,400.37,498.78,400.22z"/>
				<path class="st8" d="M502.06,400.89c-0.33-0.2-0.58-0.49-0.76-0.86c-0.18-0.37-0.26-0.8-0.26-1.3v0c0-0.49,0.09-0.93,0.27-1.3
					c0.18-0.38,0.43-0.67,0.75-0.88c0.32-0.21,0.7-0.32,1.14-0.32s0.81,0.1,1.12,0.3c0.31,0.2,0.56,0.48,0.72,0.84
					c0.17,0.36,0.25,0.78,0.25,1.26v0.29h-3.85v-0.63h3.46l-0.4,0.58v-0.31c0-0.37-0.06-0.68-0.17-0.92
					c-0.11-0.24-0.27-0.42-0.46-0.54c-0.2-0.12-0.42-0.18-0.68-0.18c-0.25,0-0.48,0.06-0.68,0.19c-0.2,0.12-0.36,0.31-0.48,0.55
					c-0.12,0.24-0.17,0.54-0.17,0.9v0.31c0,0.34,0.06,0.63,0.17,0.87c0.12,0.24,0.28,0.42,0.49,0.55c0.21,0.13,0.46,0.19,0.75,0.19
					c0.2,0,0.38-0.03,0.54-0.09s0.29-0.15,0.4-0.25s0.18-0.23,0.23-0.37l0.01-0.04h0.79l-0.01,0.05c-0.04,0.2-0.12,0.38-0.23,0.55
					c-0.11,0.17-0.25,0.32-0.43,0.45c-0.17,0.13-0.37,0.23-0.6,0.3c-0.22,0.07-0.47,0.11-0.73,0.11
					C502.78,401.2,502.38,401.1,502.06,400.89z"/>
			</g>
		</g>
		<path class="st13" d="M527.37,411.57h-81.3c-4.58,0-8.33-3.75-8.33-8.33v-9.78c0-4.58,3.75-8.33,8.33-8.33h81.3
			c4.58,0,8.33,3.75,8.33,8.33v9.78C535.69,407.82,531.95,411.57,527.37,411.57z"/>
		<g>
			<g>
				<path class="st8" d="M599.79,394.47h4.11v0.74h-3.28v2.13h3.11v0.74h-3.11v2.28h3.28v0.75h-4.11V394.47z"/>
				<path class="st8" d="M604.86,396.32h0.8v0.81h0.02c0.08-0.28,0.22-0.5,0.41-0.66c0.2-0.16,0.43-0.24,0.7-0.24
					c0.07,0,0.13,0,0.19,0.01c0.06,0.01,0.1,0.01,0.13,0.02v0.78c-0.03-0.01-0.08-0.02-0.16-0.03c-0.08-0.01-0.17-0.01-0.26-0.01
					c-0.21,0-0.39,0.05-0.54,0.14c-0.15,0.09-0.27,0.22-0.36,0.4c-0.08,0.17-0.13,0.38-0.13,0.62v2.95h-0.8V396.32z"/>
				<path class="st8" d="M607.77,396.32h0.8v0.81h0.02c0.08-0.28,0.22-0.5,0.41-0.66c0.2-0.16,0.43-0.24,0.7-0.24
					c0.07,0,0.13,0,0.19,0.01c0.06,0.01,0.1,0.01,0.13,0.02v0.78c-0.03-0.01-0.08-0.02-0.16-0.03c-0.08-0.01-0.17-0.01-0.26-0.01
					c-0.21,0-0.39,0.05-0.54,0.14c-0.15,0.09-0.27,0.22-0.36,0.4c-0.08,0.17-0.13,0.38-0.13,0.62v2.95h-0.8V396.32z"/>
				<path class="st8" d="M611.49,400.89c-0.33-0.2-0.59-0.49-0.78-0.86c-0.19-0.37-0.28-0.81-0.28-1.32v-0.01
					c0-0.51,0.09-0.95,0.28-1.32c0.19-0.37,0.44-0.66,0.78-0.86c0.33-0.2,0.72-0.3,1.16-0.3c0.44,0,0.83,0.1,1.16,0.3
					c0.33,0.2,0.59,0.49,0.78,0.86c0.19,0.37,0.28,0.81,0.28,1.32v0.01c0,0.51-0.09,0.95-0.28,1.32s-0.44,0.66-0.77,0.86
					c-0.33,0.2-0.72,0.3-1.16,0.3S611.82,401.1,611.49,400.89z M613.39,400.28c0.21-0.14,0.37-0.34,0.48-0.61
					c0.12-0.26,0.17-0.58,0.17-0.96v-0.01c0-0.37-0.06-0.69-0.17-0.96s-0.28-0.46-0.49-0.6c-0.21-0.14-0.46-0.21-0.74-0.21
					c-0.28,0-0.52,0.07-0.73,0.21s-0.37,0.34-0.49,0.6c-0.12,0.26-0.17,0.58-0.17,0.95v0.01c0,0.37,0.06,0.69,0.17,0.96
					c0.12,0.27,0.28,0.47,0.49,0.61s0.46,0.21,0.74,0.21C612.94,400.49,613.18,400.42,613.39,400.28z"/>
				<path class="st8" d="M615.67,396.32h0.8v0.81h0.02c0.08-0.28,0.22-0.5,0.41-0.66c0.2-0.16,0.43-0.24,0.7-0.24
					c0.07,0,0.13,0,0.19,0.01c0.06,0.01,0.1,0.01,0.13,0.02v0.78c-0.03-0.01-0.08-0.02-0.16-0.03c-0.08-0.01-0.17-0.01-0.26-0.01
					c-0.21,0-0.39,0.05-0.54,0.14c-0.15,0.09-0.27,0.22-0.36,0.4c-0.08,0.17-0.13,0.38-0.13,0.62v2.95h-0.8V396.32z"/>
				<path class="st8" d="M620.62,394.47h0.83v5.89h3.2v0.75h-4.03V394.47z"/>
				<path class="st8" d="M626.26,400.89c-0.33-0.2-0.59-0.49-0.78-0.86c-0.19-0.37-0.28-0.81-0.28-1.32v-0.01
					c0-0.51,0.09-0.95,0.28-1.32c0.19-0.37,0.44-0.66,0.78-0.86c0.33-0.2,0.72-0.3,1.16-0.3c0.44,0,0.83,0.1,1.16,0.3
					c0.33,0.2,0.59,0.49,0.78,0.86c0.19,0.37,0.28,0.81,0.28,1.32v0.01c0,0.51-0.09,0.95-0.28,1.32s-0.44,0.66-0.77,0.86
					c-0.33,0.2-0.72,0.3-1.16,0.3S626.59,401.1,626.26,400.89z M628.16,400.28c0.21-0.14,0.37-0.34,0.48-0.61
					c0.12-0.26,0.17-0.58,0.17-0.96v-0.01c0-0.37-0.06-0.69-0.17-0.96s-0.28-0.46-0.49-0.6c-0.21-0.14-0.46-0.21-0.74-0.21
					c-0.28,0-0.52,0.07-0.73,0.21s-0.37,0.34-0.49,0.6c-0.12,0.26-0.17,0.58-0.17,0.95v0.01c0,0.37,0.06,0.69,0.17,0.96
					c0.12,0.27,0.28,0.47,0.49,0.61s0.46,0.21,0.74,0.21C627.71,400.49,627.95,400.42,628.16,400.28z"/>
				<path class="st8" d="M631.43,402.64c-0.29-0.11-0.53-0.26-0.71-0.46c-0.18-0.19-0.29-0.41-0.35-0.64l-0.01-0.04h0.8l0.02,0.04
					c0.08,0.17,0.22,0.31,0.44,0.41c0.22,0.1,0.49,0.15,0.82,0.15c0.42,0,0.75-0.11,0.97-0.32c0.23-0.22,0.34-0.51,0.34-0.88v-0.61
					h-0.02c-0.1,0.18-0.22,0.33-0.37,0.46s-0.32,0.23-0.52,0.3c-0.19,0.07-0.41,0.11-0.64,0.11c-0.4,0-0.75-0.1-1.06-0.31
					c-0.3-0.2-0.54-0.49-0.71-0.86c-0.17-0.37-0.25-0.8-0.25-1.3v0c0-0.5,0.09-0.93,0.26-1.29c0.17-0.37,0.41-0.65,0.72-0.85
					s0.66-0.3,1.07-0.3c0.23,0,0.43,0.04,0.62,0.12c0.19,0.08,0.36,0.18,0.51,0.32c0.15,0.13,0.27,0.29,0.37,0.47h0.02v-0.81h0.8
					v4.65c0,0.37-0.09,0.69-0.26,0.97s-0.42,0.49-0.73,0.64c-0.32,0.15-0.69,0.23-1.12,0.23
					C632.07,402.81,631.73,402.75,631.43,402.64z M633.12,400.22c0.2-0.15,0.36-0.35,0.48-0.61c0.12-0.26,0.17-0.57,0.17-0.92v0
					c0-0.35-0.06-0.66-0.17-0.92c-0.12-0.26-0.28-0.46-0.48-0.61c-0.21-0.14-0.44-0.22-0.71-0.22c-0.28,0-0.53,0.07-0.74,0.21
					c-0.21,0.14-0.37,0.34-0.48,0.61s-0.17,0.57-0.17,0.92v0c0,0.36,0.06,0.67,0.17,0.94c0.11,0.26,0.27,0.46,0.48,0.61
					c0.21,0.14,0.45,0.21,0.74,0.21C632.68,400.44,632.92,400.37,633.12,400.22z"/>
			</g>
		</g>
		<path class="st13" d="M658.91,411.57h-81.3c-4.58,0-8.33-3.75-8.33-8.33v-9.78c0-4.58,3.75-8.33,8.33-8.33h81.3
			c4.58,0,8.33,3.75,8.33,8.33v9.78C667.24,407.82,663.49,411.57,658.91,411.57z"/>
		<line class="st13" x1="486.72" y1="411.57" x2="486.72" y2="430.4"/>
		<line class="st13" x1="618.26" y1="411.57" x2="618.26" y2="430.4"/>
		<line class="st13" x1="355.17" y1="411.57" x2="355.17" y2="430.4"/>
		<g>
			<g>
				<path class="st8" d="M204.33,439.73h0.83v5.89h3.2v0.75h-4.03V439.73z"/>
				<path class="st8" d="M209.97,446.16c-0.33-0.2-0.59-0.49-0.78-0.86c-0.19-0.37-0.28-0.81-0.28-1.32v-0.01
					c0-0.51,0.09-0.95,0.28-1.32c0.19-0.37,0.44-0.66,0.78-0.86c0.33-0.2,0.72-0.3,1.16-0.3c0.44,0,0.83,0.1,1.16,0.3
					c0.33,0.2,0.59,0.49,0.78,0.86c0.19,0.37,0.28,0.81,0.28,1.32v0.01c0,0.51-0.09,0.95-0.28,1.32s-0.44,0.66-0.77,0.86
					c-0.33,0.2-0.72,0.3-1.16,0.3S210.3,446.36,209.97,446.16z M211.87,445.54c0.21-0.14,0.37-0.34,0.48-0.61
					c0.12-0.26,0.17-0.58,0.17-0.96v-0.01c0-0.37-0.06-0.69-0.17-0.96c-0.11-0.26-0.28-0.46-0.49-0.6
					c-0.21-0.14-0.46-0.21-0.74-0.21c-0.28,0-0.52,0.07-0.73,0.21s-0.37,0.34-0.49,0.6c-0.12,0.26-0.17,0.58-0.17,0.95v0.01
					c0,0.37,0.06,0.69,0.17,0.96c0.12,0.27,0.28,0.47,0.49,0.61s0.46,0.21,0.74,0.21S211.66,445.68,211.87,445.54z"/>
				<path class="st8" d="M214.95,446.16c-0.33-0.2-0.59-0.49-0.77-0.86c-0.18-0.37-0.27-0.81-0.27-1.32v0c0-0.5,0.09-0.94,0.28-1.31
					s0.44-0.66,0.77-0.86c0.33-0.2,0.72-0.3,1.16-0.3c0.4,0,0.74,0.08,1.03,0.23s0.51,0.35,0.67,0.6c0.16,0.25,0.26,0.5,0.3,0.78
					l0,0.04h-0.78l-0.01-0.04c-0.06-0.24-0.19-0.45-0.38-0.63c-0.2-0.18-0.47-0.27-0.83-0.27c-0.28,0-0.52,0.07-0.73,0.22
					s-0.37,0.35-0.49,0.62c-0.12,0.27-0.17,0.58-0.17,0.94v0c0,0.37,0.06,0.69,0.18,0.95s0.28,0.47,0.49,0.61
					c0.21,0.14,0.45,0.21,0.73,0.21c0.33,0,0.59-0.08,0.8-0.25c0.2-0.17,0.34-0.38,0.41-0.65l0.01-0.04h0.79l0,0.03
					c-0.04,0.3-0.15,0.58-0.33,0.82c-0.18,0.24-0.41,0.44-0.69,0.58s-0.61,0.21-0.97,0.21
					C215.68,446.46,215.29,446.36,214.95,446.16z"/>
				<path class="st8" d="M219.43,446.28c-0.24-0.12-0.43-0.29-0.56-0.51c-0.13-0.22-0.2-0.47-0.2-0.76v-0.01
					c0-0.41,0.15-0.73,0.46-0.98c0.3-0.24,0.73-0.38,1.28-0.41l1.77-0.1v0.62l-1.68,0.1c-0.32,0.02-0.57,0.09-0.74,0.23
					s-0.26,0.31-0.26,0.54v0.01c0,0.23,0.09,0.41,0.26,0.55c0.17,0.13,0.4,0.2,0.69,0.2c0.25,0,0.48-0.05,0.68-0.16
					c0.2-0.11,0.36-0.25,0.48-0.43c0.12-0.18,0.18-0.39,0.18-0.62v-1.41c0-0.29-0.09-0.52-0.27-0.69c-0.18-0.17-0.44-0.25-0.77-0.25
					c-0.31,0-0.55,0.07-0.74,0.2c-0.19,0.13-0.31,0.31-0.35,0.52l-0.01,0.04h-0.77l0-0.05c0.02-0.26,0.11-0.5,0.27-0.72
					c0.15-0.21,0.37-0.39,0.64-0.51c0.27-0.13,0.6-0.19,0.97-0.19c0.38,0,0.7,0.06,0.98,0.19s0.49,0.31,0.64,0.54
					c0.15,0.23,0.23,0.51,0.23,0.83v3.31h-0.8v-0.78h-0.02c-0.09,0.17-0.21,0.33-0.37,0.46c-0.15,0.13-0.33,0.23-0.52,0.3
					c-0.19,0.07-0.39,0.11-0.61,0.11C219.95,446.46,219.67,446.4,219.43,446.28z"/>
				<path class="st8" d="M223.63,439.73h0.8v6.64h-0.8V439.73z"/>
				<path class="st8" d="M227.57,439.73h4.03v0.74h-3.2v2.28h2.94v0.74h-2.94v2.87h-0.83V439.73z"/>
				<path class="st8" d="M232.51,440.63c-0.1-0.1-0.15-0.22-0.15-0.35c0-0.14,0.05-0.26,0.15-0.36s0.22-0.14,0.35-0.14
					c0.14,0,0.26,0.05,0.36,0.14s0.15,0.22,0.15,0.36c0,0.14-0.05,0.26-0.15,0.35c-0.1,0.1-0.22,0.15-0.36,0.15
					C232.73,440.78,232.61,440.73,232.51,440.63z M232.47,441.59h0.8v4.78h-0.8V441.59z"/>
				<path class="st8" d="M234.4,439.73h0.8v6.64h-0.8V439.73z"/>
				<path class="st8" d="M237.07,446.16c-0.33-0.2-0.58-0.49-0.76-0.86c-0.18-0.37-0.26-0.8-0.26-1.3v0c0-0.49,0.09-0.93,0.27-1.3
					c0.18-0.38,0.43-0.67,0.75-0.88c0.32-0.21,0.7-0.32,1.14-0.32c0.44,0,0.81,0.1,1.12,0.3c0.31,0.2,0.56,0.48,0.72,0.84
					c0.17,0.36,0.25,0.78,0.25,1.26v0.29h-3.85v-0.63h3.46l-0.4,0.58v-0.31c0-0.37-0.06-0.68-0.17-0.92
					c-0.11-0.24-0.27-0.42-0.46-0.54s-0.42-0.18-0.68-0.18c-0.25,0-0.48,0.06-0.69,0.19s-0.36,0.31-0.48,0.55
					c-0.12,0.24-0.17,0.54-0.17,0.9v0.31c0,0.34,0.06,0.63,0.17,0.87c0.11,0.24,0.28,0.42,0.49,0.55c0.21,0.13,0.46,0.19,0.75,0.19
					c0.2,0,0.38-0.03,0.54-0.09c0.16-0.06,0.29-0.15,0.4-0.25s0.18-0.23,0.23-0.37l0.01-0.04h0.79l-0.01,0.05
					c-0.04,0.2-0.12,0.38-0.23,0.55c-0.11,0.17-0.26,0.32-0.43,0.45c-0.17,0.13-0.37,0.23-0.6,0.3c-0.22,0.07-0.47,0.11-0.73,0.11
					C237.79,446.46,237.4,446.36,237.07,446.16z"/>
			</g>
		</g>
		<path class="st13" d="M264.27,456.83h-81.3c-4.58,0-8.33-3.75-8.33-8.33v-9.78c0-4.58,3.75-8.33,8.33-8.33h81.3
			c4.58,0,8.33,3.75,8.33,8.33v9.78C272.6,453.09,268.85,456.83,264.27,456.83z"/>
		<path class="st13" d="M264.27,502.1h-81.3c-4.58,0-8.33-3.75-8.33-8.33v-9.78c0-4.58,3.75-8.33,8.33-8.33h81.3
			c4.58,0,8.33,3.75,8.33,8.33v9.78C272.6,498.35,268.85,502.1,264.27,502.1z"/>
		<g>
			<g>
				<path class="st8" d="M328.89,439.73h0.87l1.98,5.64h0.02l1.98-5.64h0.87l-2.45,6.64h-0.82L328.89,439.73z"/>
				<path class="st8" d="M335.8,446.28c-0.24-0.12-0.43-0.29-0.56-0.51c-0.13-0.22-0.2-0.47-0.2-0.76v-0.01
					c0-0.41,0.15-0.73,0.46-0.98c0.3-0.24,0.73-0.38,1.28-0.41l1.77-0.1v0.62l-1.68,0.1c-0.32,0.02-0.57,0.09-0.74,0.23
					s-0.26,0.31-0.26,0.54v0.01c0,0.23,0.09,0.41,0.26,0.55c0.17,0.13,0.4,0.2,0.69,0.2c0.25,0,0.48-0.05,0.68-0.16
					c0.2-0.11,0.36-0.25,0.48-0.43c0.12-0.18,0.18-0.39,0.18-0.62v-1.41c0-0.29-0.09-0.52-0.27-0.69c-0.18-0.17-0.44-0.25-0.77-0.25
					c-0.31,0-0.55,0.07-0.74,0.2c-0.19,0.13-0.31,0.31-0.35,0.52l-0.01,0.04h-0.77l0-0.05c0.02-0.26,0.11-0.5,0.27-0.72
					c0.15-0.21,0.37-0.39,0.64-0.51c0.27-0.13,0.6-0.19,0.97-0.19c0.38,0,0.7,0.06,0.98,0.19s0.49,0.31,0.64,0.54
					c0.15,0.23,0.23,0.51,0.23,0.83v3.31h-0.8v-0.78h-0.02c-0.09,0.17-0.21,0.33-0.37,0.46c-0.15,0.13-0.33,0.23-0.52,0.3
					c-0.19,0.07-0.39,0.11-0.61,0.11C336.32,446.46,336.04,446.4,335.8,446.28z"/>
				<path class="st8" d="M340.53,446.15c-0.22-0.21-0.33-0.54-0.33-1v-2.9h-0.7v-0.66h0.7v-1.29h0.83v1.29h0.91v0.66h-0.91v2.9
					c0,0.25,0.06,0.43,0.17,0.52c0.11,0.09,0.27,0.14,0.49,0.14c0.05,0,0.1,0,0.14-0.01c0.04,0,0.08-0.01,0.12-0.01v0.65
					c-0.05,0.01-0.11,0.01-0.19,0.02c-0.08,0.01-0.16,0.01-0.24,0.01C341.08,446.46,340.75,446.36,340.53,446.15z"/>
				<path class="st8" d="M346.02,446.06c-0.46-0.28-0.81-0.68-1.06-1.19s-0.37-1.12-0.37-1.81v0c0-0.7,0.12-1.3,0.37-1.81
					c0.25-0.51,0.6-0.91,1.05-1.19c0.45-0.28,0.99-0.42,1.6-0.42c0.46,0,0.88,0.09,1.26,0.26c0.38,0.17,0.69,0.42,0.95,0.73
					c0.25,0.31,0.42,0.68,0.5,1.1l0.01,0.05h-0.84l-0.03-0.1c-0.09-0.27-0.21-0.5-0.38-0.69c-0.17-0.19-0.38-0.33-0.62-0.43
					c-0.25-0.1-0.52-0.15-0.84-0.15c-0.44,0-0.83,0.11-1.15,0.33c-0.33,0.22-0.58,0.53-0.76,0.92c-0.18,0.4-0.27,0.87-0.27,1.4v0
					c0,0.54,0.09,1,0.27,1.41c0.18,0.4,0.43,0.71,0.76,0.93s0.71,0.33,1.15,0.33c0.31,0,0.59-0.05,0.83-0.15
					c0.24-0.1,0.45-0.25,0.63-0.45c0.17-0.2,0.31-0.44,0.4-0.73l0.01-0.04h0.84l-0.01,0.05c-0.08,0.42-0.25,0.79-0.5,1.11
					c-0.25,0.31-0.57,0.56-0.94,0.73c-0.38,0.17-0.8,0.26-1.26,0.26C347.01,446.48,346.48,446.34,346.02,446.06z"/>
				<path class="st8" d="M351.23,439.73h0.8v6.64h-0.8V439.73z"/>
				<path class="st8" d="M353.9,446.16c-0.33-0.2-0.58-0.49-0.76-0.86c-0.18-0.37-0.26-0.8-0.26-1.3v0c0-0.49,0.09-0.93,0.27-1.3
					c0.18-0.38,0.43-0.67,0.75-0.88c0.32-0.21,0.7-0.32,1.14-0.32c0.44,0,0.81,0.1,1.12,0.3c0.31,0.2,0.56,0.48,0.72,0.84
					c0.17,0.36,0.25,0.78,0.25,1.26v0.29h-3.85v-0.63h3.46l-0.4,0.58v-0.31c0-0.37-0.06-0.68-0.17-0.92
					c-0.11-0.24-0.27-0.42-0.46-0.54s-0.42-0.18-0.68-0.18c-0.25,0-0.48,0.06-0.69,0.19s-0.36,0.31-0.48,0.55
					c-0.12,0.24-0.17,0.54-0.17,0.9v0.31c0,0.34,0.06,0.63,0.17,0.87c0.11,0.24,0.28,0.42,0.49,0.55c0.21,0.13,0.46,0.19,0.75,0.19
					c0.2,0,0.38-0.03,0.54-0.09c0.16-0.06,0.29-0.15,0.4-0.25s0.18-0.23,0.23-0.37l0.01-0.04h0.79l-0.01,0.05
					c-0.04,0.2-0.12,0.38-0.23,0.55c-0.11,0.17-0.26,0.32-0.43,0.45c-0.17,0.13-0.37,0.23-0.6,0.3c-0.22,0.07-0.47,0.11-0.73,0.11
					C354.63,446.46,354.23,446.36,353.9,446.16z"/>
				<path class="st8" d="M358.5,446.28c-0.24-0.12-0.43-0.29-0.56-0.51c-0.13-0.22-0.2-0.47-0.2-0.76v-0.01
					c0-0.41,0.15-0.73,0.46-0.98c0.3-0.24,0.73-0.38,1.28-0.41l1.77-0.1v0.62l-1.68,0.1c-0.32,0.02-0.57,0.09-0.74,0.23
					s-0.26,0.31-0.26,0.54v0.01c0,0.23,0.09,0.41,0.26,0.55c0.17,0.13,0.4,0.2,0.69,0.2c0.25,0,0.48-0.05,0.68-0.16
					c0.2-0.11,0.36-0.25,0.48-0.43c0.12-0.18,0.18-0.39,0.18-0.62v-1.41c0-0.29-0.09-0.52-0.27-0.69c-0.18-0.17-0.44-0.25-0.77-0.25
					c-0.31,0-0.55,0.07-0.74,0.2c-0.19,0.13-0.31,0.31-0.35,0.52l-0.01,0.04h-0.77l0-0.05c0.02-0.26,0.11-0.5,0.27-0.72
					c0.15-0.21,0.37-0.39,0.64-0.51c0.27-0.13,0.6-0.19,0.97-0.19c0.38,0,0.7,0.06,0.98,0.19s0.49,0.31,0.64,0.54
					c0.15,0.23,0.23,0.51,0.23,0.83v3.31h-0.8v-0.78h-0.02c-0.09,0.17-0.21,0.33-0.37,0.46c-0.15,0.13-0.33,0.23-0.52,0.3
					c-0.19,0.07-0.39,0.11-0.61,0.11C359.02,446.46,358.74,446.4,358.5,446.28z"/>
				<path class="st8" d="M362.67,441.59h0.8v0.68h0.02c0.13-0.22,0.32-0.41,0.56-0.55c0.25-0.15,0.55-0.22,0.91-0.22
					c0.52,0,0.93,0.16,1.22,0.48c0.29,0.32,0.43,0.75,0.43,1.29v3.1h-0.8v-2.96c0-0.39-0.09-0.69-0.27-0.89
					c-0.18-0.21-0.46-0.31-0.83-0.31c-0.25,0-0.47,0.06-0.66,0.17c-0.19,0.11-0.33,0.27-0.43,0.47c-0.1,0.2-0.15,0.44-0.15,0.71
					v2.81h-0.8V441.59z"/>
				<path class="st8" d="M367.72,440.63c-0.1-0.1-0.15-0.22-0.15-0.35c0-0.14,0.05-0.26,0.15-0.36s0.22-0.14,0.35-0.14
					c0.14,0,0.26,0.05,0.36,0.14s0.15,0.22,0.15,0.36c0,0.14-0.05,0.26-0.15,0.35c-0.1,0.1-0.22,0.15-0.36,0.15
					C367.94,440.78,367.82,440.73,367.72,440.63z M367.68,441.59h0.8v4.78h-0.8V441.59z"/>
				<path class="st8" d="M369.57,441.59h0.8v0.68h0.02c0.13-0.22,0.32-0.41,0.56-0.55c0.25-0.15,0.55-0.22,0.91-0.22
					c0.52,0,0.93,0.16,1.22,0.48c0.29,0.32,0.43,0.75,0.43,1.29v3.1h-0.8v-2.96c0-0.39-0.09-0.69-0.27-0.89
					c-0.18-0.21-0.46-0.31-0.83-0.31c-0.25,0-0.47,0.06-0.66,0.17c-0.19,0.11-0.33,0.27-0.43,0.47c-0.1,0.2-0.15,0.44-0.15,0.71
					v2.81h-0.8V441.59z"/>
				<path class="st8" d="M375.53,447.9c-0.29-0.11-0.53-0.26-0.71-0.46s-0.29-0.41-0.35-0.64l-0.01-0.04h0.8l0.02,0.04
					c0.08,0.17,0.22,0.31,0.44,0.41s0.49,0.15,0.82,0.15c0.42,0,0.74-0.11,0.97-0.32c0.23-0.22,0.35-0.51,0.35-0.88v-0.61h-0.02
					c-0.1,0.18-0.22,0.33-0.37,0.46c-0.15,0.13-0.32,0.23-0.52,0.3c-0.19,0.07-0.41,0.11-0.64,0.11c-0.4,0-0.76-0.1-1.06-0.31
					c-0.31-0.2-0.54-0.49-0.71-0.86c-0.17-0.37-0.26-0.8-0.26-1.3v0c0-0.5,0.09-0.93,0.26-1.29c0.17-0.37,0.41-0.65,0.72-0.85
					s0.66-0.3,1.07-0.3c0.23,0,0.44,0.04,0.63,0.12c0.19,0.08,0.36,0.18,0.51,0.32c0.15,0.13,0.27,0.29,0.37,0.47h0.02v-0.81h0.8
					v4.65c0,0.37-0.09,0.69-0.26,0.97s-0.42,0.49-0.73,0.64c-0.32,0.15-0.69,0.23-1.12,0.23
					C376.16,448.07,375.82,448.02,375.53,447.9z M377.21,445.49c0.2-0.15,0.36-0.35,0.48-0.61c0.11-0.26,0.17-0.57,0.17-0.92v0
					c0-0.35-0.06-0.66-0.17-0.92c-0.12-0.26-0.28-0.46-0.48-0.61c-0.21-0.14-0.44-0.22-0.71-0.22c-0.28,0-0.53,0.07-0.74,0.21
					s-0.37,0.34-0.48,0.61s-0.17,0.57-0.17,0.92v0c0,0.36,0.06,0.67,0.17,0.94c0.11,0.26,0.27,0.46,0.48,0.61s0.45,0.21,0.74,0.21
					C376.77,445.71,377.01,445.63,377.21,445.49z"/>
			</g>
		</g>
		<path class="st13" d="M395.82,456.83h-81.3c-4.58,0-8.33-3.75-8.33-8.33v-9.78c0-4.58,3.75-8.33,8.33-8.33h81.3
			c4.58,0,8.33,3.75,8.33,8.33v9.78C404.15,453.09,400.4,456.83,395.82,456.83z"/>
		<g>
			<g>
				<path class="st8" d="M469.77,439.73h0.8l4.36,6.25l-1.05-1.01h0.37v-5.24h0.82v6.64h-0.8l-4.35-6.25l1.05,1.01h-0.37v5.24h-0.82
					V439.73z"/>
				<path class="st8" d="M477.02,446.16c-0.33-0.2-0.58-0.49-0.76-0.86c-0.18-0.37-0.26-0.8-0.26-1.3v0c0-0.49,0.09-0.93,0.27-1.3
					c0.18-0.38,0.43-0.67,0.75-0.88c0.32-0.21,0.7-0.32,1.14-0.32s0.81,0.1,1.12,0.3c0.31,0.2,0.56,0.48,0.72,0.84
					c0.17,0.36,0.25,0.78,0.25,1.26v0.29h-3.85v-0.63h3.46l-0.4,0.58v-0.31c0-0.37-0.06-0.68-0.17-0.92
					c-0.11-0.24-0.27-0.42-0.46-0.54c-0.2-0.12-0.42-0.18-0.68-0.18c-0.25,0-0.48,0.06-0.68,0.19c-0.2,0.12-0.36,0.31-0.48,0.55
					c-0.12,0.24-0.17,0.54-0.17,0.9v0.31c0,0.34,0.06,0.63,0.17,0.87c0.12,0.24,0.28,0.42,0.49,0.55c0.21,0.13,0.46,0.19,0.75,0.19
					c0.2,0,0.38-0.03,0.54-0.09s0.29-0.15,0.4-0.25s0.18-0.23,0.23-0.37l0.01-0.04h0.79l-0.01,0.05c-0.04,0.2-0.12,0.38-0.23,0.55
					c-0.11,0.17-0.25,0.32-0.43,0.45c-0.17,0.13-0.37,0.23-0.6,0.3c-0.22,0.07-0.47,0.11-0.73,0.11
					C477.74,446.46,477.35,446.36,477.02,446.16z"/>
				<path class="st8" d="M481.63,446.15c-0.22-0.21-0.33-0.54-0.33-1v-2.9h-0.7v-0.66h0.7v-1.29h0.83v1.29h0.91v0.66h-0.91v2.9
					c0,0.25,0.06,0.43,0.17,0.52c0.11,0.09,0.27,0.14,0.49,0.14c0.05,0,0.1,0,0.14-0.01c0.04,0,0.08-0.01,0.12-0.01v0.65
					c-0.05,0.01-0.11,0.01-0.19,0.02c-0.08,0.01-0.16,0.01-0.24,0.01C482.17,446.46,481.84,446.36,481.63,446.15z"/>
				<path class="st8" d="M483.5,441.59h0.8l0.96,3.89h0.02l1.08-3.89h0.77l1.08,3.89h0.02l0.96-3.89h0.79l-1.33,4.78h-0.81
					l-1.08-3.7h-0.02l-1.08,3.7h-0.81L483.5,441.59z"/>
				<path class="st8" d="M491.45,446.16c-0.33-0.2-0.59-0.49-0.78-0.86c-0.19-0.37-0.28-0.81-0.28-1.32v-0.01
					c0-0.51,0.09-0.95,0.28-1.32c0.19-0.37,0.44-0.66,0.78-0.86c0.33-0.2,0.72-0.3,1.16-0.3c0.44,0,0.83,0.1,1.16,0.3
					c0.33,0.2,0.59,0.49,0.78,0.86c0.19,0.37,0.28,0.81,0.28,1.32v0.01c0,0.51-0.09,0.95-0.28,1.32s-0.44,0.66-0.77,0.86
					c-0.33,0.2-0.72,0.3-1.16,0.3S491.78,446.36,491.45,446.16z M493.35,445.54c0.21-0.14,0.37-0.34,0.48-0.61
					c0.12-0.26,0.17-0.58,0.17-0.96v-0.01c0-0.37-0.06-0.69-0.17-0.96s-0.28-0.46-0.49-0.6c-0.21-0.14-0.46-0.21-0.74-0.21
					c-0.28,0-0.52,0.07-0.73,0.21s-0.37,0.34-0.49,0.6c-0.12,0.26-0.17,0.58-0.17,0.95v0.01c0,0.37,0.06,0.69,0.17,0.96
					c0.12,0.27,0.28,0.47,0.49,0.61s0.46,0.21,0.74,0.21C492.9,445.75,493.14,445.68,493.35,445.54z"/>
				<path class="st8" d="M495.63,441.59h0.8v0.81h0.02c0.08-0.28,0.22-0.5,0.41-0.66c0.2-0.16,0.43-0.24,0.7-0.24
					c0.07,0,0.13,0,0.19,0.01c0.06,0.01,0.1,0.01,0.13,0.02v0.78c-0.03-0.01-0.08-0.02-0.16-0.03c-0.08-0.01-0.17-0.01-0.26-0.01
					c-0.21,0-0.39,0.05-0.54,0.14c-0.15,0.09-0.27,0.22-0.36,0.4c-0.08,0.17-0.13,0.38-0.13,0.62v2.95h-0.8V441.59z"/>
				<path class="st8" d="M498.6,439.73h0.8v6.64h-0.8V439.73z M499.22,443.7h0.2l2.1-2.11h0.97l-2.27,2.26h-0.06l-0.93,0.89V443.7z
					 M499.8,444.08l0.53-0.53l2.22,2.82h-0.93L499.8,444.08z"/>
			</g>
		</g>
		<path class="st13" d="M527.37,456.83h-81.3c-4.58,0-8.33-3.75-8.33-8.33v-9.78c0-4.58,3.75-8.33,8.33-8.33h81.3
			c4.58,0,8.33,3.75,8.33,8.33v9.78C535.69,453.09,531.95,456.83,527.37,456.83z"/>
		<line class="st13" x1="486.72" y1="456.83" x2="486.72" y2="475.66"/>
		<g>
			<g>
				<path class="st8" d="M472.66,491.53c-0.36-0.15-0.65-0.36-0.86-0.64c-0.21-0.28-0.33-0.6-0.36-0.98l0-0.06h0.83l0.01,0.06
					c0.03,0.22,0.12,0.41,0.27,0.57c0.15,0.16,0.34,0.29,0.59,0.37c0.24,0.09,0.53,0.13,0.84,0.13c0.32,0,0.59-0.04,0.83-0.14
					c0.23-0.09,0.41-0.22,0.54-0.39c0.13-0.17,0.19-0.37,0.19-0.59v0c0-0.29-0.1-0.52-0.3-0.7s-0.53-0.31-0.99-0.41l-0.74-0.16
					c-0.65-0.14-1.13-0.37-1.44-0.67s-0.47-0.69-0.47-1.17v0c0-0.36,0.1-0.69,0.3-0.96s0.47-0.5,0.83-0.65
					c0.35-0.16,0.75-0.24,1.21-0.24c0.43,0,0.82,0.08,1.16,0.23c0.34,0.16,0.61,0.37,0.82,0.65s0.32,0.59,0.34,0.96l0,0.07h-0.83
					l-0.01-0.06c-0.03-0.23-0.12-0.42-0.25-0.58s-0.3-0.28-0.52-0.37c-0.21-0.09-0.46-0.13-0.74-0.13c-0.29,0-0.55,0.04-0.77,0.13
					s-0.39,0.21-0.51,0.37c-0.12,0.16-0.18,0.35-0.18,0.56v0c0,0.27,0.1,0.49,0.31,0.67c0.21,0.17,0.52,0.31,0.96,0.41l0.74,0.16
					c0.68,0.15,1.17,0.37,1.48,0.66s0.46,0.69,0.46,1.2v0c0,0.39-0.1,0.73-0.3,1.02c-0.2,0.29-0.48,0.51-0.85,0.67
					s-0.8,0.23-1.31,0.23C473.45,491.75,473.02,491.67,472.66,491.53z"/>
				<path class="st8" d="M477.44,493.24c-0.08-0.01-0.14-0.02-0.2-0.02v-0.65c0.03,0.01,0.07,0.01,0.12,0.02
					c0.04,0.01,0.09,0.01,0.14,0.01c0.25,0,0.46-0.04,0.61-0.13c0.15-0.09,0.28-0.27,0.37-0.54l0.1-0.27l-1.78-4.79h0.86l1.38,4.17
					l-0.17-0.18h0.24l-0.17,0.18l1.38-4.17h0.84l-1.87,5.08c-0.11,0.3-0.24,0.55-0.38,0.75c-0.14,0.19-0.31,0.34-0.51,0.43
					s-0.44,0.14-0.73,0.14C477.6,493.25,477.52,493.24,477.44,493.24z"/>
				<path class="st8" d="M482.52,491.55c-0.27-0.12-0.49-0.29-0.65-0.5c-0.16-0.21-0.25-0.46-0.29-0.75l0-0.04h0.8l0.01,0.05
					c0.05,0.24,0.16,0.43,0.35,0.56c0.18,0.13,0.43,0.2,0.76,0.2c0.22,0,0.4-0.03,0.56-0.08s0.27-0.14,0.35-0.24
					c0.08-0.11,0.12-0.23,0.12-0.38v0c0-0.17-0.05-0.31-0.16-0.41c-0.1-0.1-0.29-0.19-0.57-0.26l-0.76-0.18
					c-0.45-0.11-0.79-0.27-1.01-0.49c-0.22-0.22-0.33-0.5-0.33-0.84v0c0-0.28,0.07-0.52,0.22-0.73c0.15-0.21,0.36-0.38,0.62-0.5
					c0.26-0.12,0.57-0.18,0.91-0.18c0.35,0,0.65,0.06,0.91,0.19s0.46,0.29,0.61,0.51c0.15,0.21,0.23,0.45,0.25,0.72l0,0.06h-0.76
					l0-0.03c-0.03-0.23-0.13-0.42-0.31-0.56c-0.17-0.14-0.41-0.21-0.71-0.21c-0.19,0-0.36,0.03-0.5,0.09
					c-0.14,0.06-0.25,0.14-0.32,0.25c-0.08,0.11-0.11,0.23-0.11,0.37v0c0,0.16,0.06,0.3,0.17,0.41c0.12,0.11,0.31,0.2,0.57,0.27
					l0.76,0.18c0.48,0.12,0.82,0.28,1.02,0.48s0.29,0.48,0.29,0.82v0c0,0.28-0.08,0.53-0.24,0.74c-0.16,0.21-0.38,0.38-0.66,0.5
					s-0.6,0.18-0.95,0.18C483.12,491.73,482.8,491.67,482.52,491.55z"/>
				<path class="st8" d="M486.75,491.42c-0.22-0.21-0.33-0.54-0.33-1v-2.9h-0.7v-0.66h0.7v-1.29h0.83v1.29h0.91v0.66h-0.91v2.9
					c0,0.25,0.06,0.43,0.17,0.52c0.11,0.09,0.27,0.14,0.49,0.14c0.05,0,0.1,0,0.14-0.01c0.04,0,0.08-0.01,0.12-0.01v0.65
					c-0.05,0.01-0.11,0.01-0.19,0.02c-0.08,0.01-0.16,0.01-0.24,0.01C487.3,491.73,486.97,491.62,486.75,491.42z"/>
				<path class="st8" d="M489.81,491.43c-0.33-0.2-0.58-0.49-0.76-0.86c-0.18-0.37-0.26-0.8-0.26-1.3v0c0-0.49,0.09-0.93,0.27-1.3
					c0.18-0.38,0.43-0.67,0.75-0.88c0.32-0.21,0.7-0.32,1.14-0.32s0.81,0.1,1.12,0.3c0.31,0.2,0.56,0.48,0.72,0.84
					c0.17,0.36,0.25,0.78,0.25,1.26v0.29h-3.85v-0.63h3.46l-0.4,0.58v-0.31c0-0.37-0.06-0.68-0.17-0.92
					c-0.11-0.24-0.27-0.42-0.46-0.54c-0.2-0.12-0.42-0.18-0.68-0.18c-0.25,0-0.48,0.06-0.68,0.19c-0.2,0.12-0.36,0.31-0.48,0.55
					c-0.12,0.24-0.17,0.54-0.17,0.9v0.31c0,0.34,0.06,0.63,0.17,0.87c0.12,0.24,0.28,0.42,0.49,0.55c0.21,0.13,0.46,0.19,0.75,0.19
					c0.2,0,0.38-0.03,0.54-0.09s0.29-0.15,0.4-0.25s0.18-0.23,0.23-0.37l0.01-0.04h0.79l-0.01,0.05c-0.04,0.2-0.12,0.38-0.23,0.55
					c-0.11,0.17-0.25,0.32-0.43,0.45c-0.17,0.13-0.37,0.23-0.6,0.3c-0.22,0.07-0.47,0.11-0.73,0.11
					C490.53,491.73,490.14,491.63,489.81,491.43z"/>
				<path class="st8" d="M493.84,486.85h0.8v0.7h0.02c0.11-0.24,0.28-0.43,0.51-0.57c0.23-0.15,0.5-0.22,0.81-0.22
					c0.22,0,0.41,0.04,0.59,0.11c0.18,0.07,0.33,0.18,0.46,0.31s0.23,0.3,0.29,0.5h0.02c0.09-0.19,0.21-0.36,0.36-0.49
					c0.15-0.14,0.32-0.24,0.52-0.32c0.19-0.07,0.4-0.11,0.63-0.11c0.32,0,0.59,0.07,0.82,0.2c0.23,0.13,0.41,0.31,0.54,0.55
					c0.13,0.23,0.19,0.51,0.19,0.83v3.3h-0.8v-3.12c0-0.33-0.09-0.58-0.26-0.77c-0.17-0.19-0.42-0.28-0.73-0.28
					c-0.21,0-0.4,0.05-0.56,0.15s-0.29,0.23-0.38,0.4c-0.09,0.17-0.14,0.36-0.14,0.58v3.04h-0.8v-3.21c0-0.29-0.09-0.52-0.27-0.7
					s-0.42-0.26-0.71-0.26c-0.21,0-0.4,0.05-0.56,0.15s-0.29,0.24-0.39,0.42c-0.1,0.17-0.14,0.37-0.14,0.6v3h-0.8V486.85z"/>
			</g>
		</g>
		<path class="st13" d="M527.37,502.1h-81.3c-4.58,0-8.33-3.75-8.33-8.33v-9.78c0-4.58,3.75-8.33,8.33-8.33h81.3
			c4.58,0,8.33,3.75,8.33,8.33v9.78C535.69,498.35,531.95,502.1,527.37,502.1z"/>
		<line class="st13" x1="486.72" y1="502.1" x2="486.72" y2="520.93"/>
		<g>
			<g>
				<path class="st8" d="M453.59,536.79c-0.36-0.15-0.65-0.36-0.86-0.64c-0.21-0.28-0.33-0.6-0.36-0.98l0-0.06h0.83l0.01,0.06
					c0.03,0.22,0.12,0.41,0.27,0.57c0.15,0.16,0.34,0.29,0.59,0.37c0.24,0.09,0.53,0.13,0.84,0.13c0.32,0,0.59-0.04,0.83-0.14
					c0.23-0.09,0.41-0.22,0.54-0.39c0.13-0.17,0.19-0.37,0.19-0.59v0c0-0.29-0.1-0.52-0.3-0.7s-0.53-0.31-0.99-0.41l-0.74-0.16
					c-0.65-0.14-1.13-0.37-1.44-0.67s-0.47-0.69-0.47-1.17v0c0-0.36,0.1-0.69,0.3-0.96s0.47-0.5,0.83-0.65
					c0.35-0.16,0.75-0.24,1.21-0.24c0.43,0,0.82,0.08,1.16,0.23c0.34,0.16,0.61,0.37,0.82,0.65s0.32,0.59,0.34,0.96l0,0.07h-0.83
					l-0.01-0.06c-0.03-0.23-0.12-0.42-0.25-0.58s-0.3-0.28-0.52-0.37c-0.21-0.09-0.46-0.13-0.74-0.13c-0.29,0-0.55,0.04-0.77,0.13
					s-0.39,0.21-0.51,0.37c-0.12,0.16-0.18,0.35-0.18,0.56v0c0,0.27,0.1,0.49,0.31,0.67c0.21,0.17,0.52,0.31,0.96,0.41l0.74,0.16
					c0.68,0.15,1.17,0.37,1.48,0.66s0.46,0.69,0.46,1.2v0c0,0.39-0.1,0.73-0.3,1.02c-0.2,0.29-0.48,0.51-0.85,0.67
					s-0.8,0.23-1.31,0.23C454.37,537.01,453.95,536.94,453.59,536.79z"/>
				<path class="st8" d="M458.18,530.27h0.8v2.62H459c0.13-0.27,0.32-0.48,0.57-0.63c0.25-0.15,0.56-0.23,0.92-0.23
					c0.34,0,0.64,0.08,0.89,0.25c0.26,0.16,0.46,0.39,0.6,0.68c0.14,0.29,0.22,0.63,0.22,1.02v2.93h-0.8v-2.79
					c0-0.43-0.1-0.77-0.31-1.01c-0.21-0.24-0.5-0.36-0.87-0.36c-0.25,0-0.46,0.06-0.65,0.17c-0.19,0.12-0.33,0.28-0.43,0.48
					c-0.1,0.21-0.15,0.44-0.15,0.72v2.79h-0.8V530.27z"/>
				<path class="st8" d="M463.78,536.82c-0.24-0.12-0.42-0.29-0.56-0.51c-0.13-0.22-0.2-0.47-0.2-0.76v-0.01
					c0-0.41,0.15-0.73,0.46-0.98c0.3-0.24,0.73-0.38,1.28-0.41l1.77-0.1v0.62l-1.68,0.1c-0.32,0.02-0.57,0.09-0.74,0.23
					c-0.18,0.13-0.26,0.31-0.26,0.54v0.01c0,0.23,0.09,0.41,0.26,0.55c0.17,0.13,0.4,0.2,0.69,0.2c0.25,0,0.48-0.05,0.68-0.16
					c0.2-0.11,0.36-0.25,0.48-0.43c0.12-0.18,0.18-0.39,0.18-0.62v-1.41c0-0.29-0.09-0.52-0.27-0.69s-0.44-0.25-0.78-0.25
					c-0.31,0-0.55,0.07-0.74,0.2c-0.19,0.13-0.31,0.31-0.35,0.52l-0.01,0.04h-0.77l0-0.05c0.02-0.26,0.11-0.5,0.27-0.72
					c0.16-0.21,0.37-0.39,0.64-0.51c0.27-0.13,0.6-0.19,0.97-0.19c0.38,0,0.7,0.06,0.98,0.19c0.27,0.13,0.49,0.31,0.64,0.54
					s0.23,0.51,0.23,0.83v3.31h-0.8v-0.78h-0.02c-0.09,0.17-0.21,0.33-0.37,0.46c-0.15,0.13-0.33,0.23-0.52,0.3
					c-0.19,0.07-0.4,0.11-0.61,0.11C464.3,537,464.02,536.94,463.78,536.82z"/>
				<path class="st8" d="M467.95,532.12h0.8v0.81h0.02c0.08-0.28,0.22-0.5,0.41-0.66c0.2-0.16,0.43-0.24,0.7-0.24
					c0.07,0,0.13,0,0.19,0.01c0.06,0.01,0.1,0.01,0.13,0.02v0.78c-0.03-0.01-0.08-0.02-0.16-0.03c-0.08-0.01-0.17-0.01-0.26-0.01
					c-0.21,0-0.39,0.05-0.54,0.14c-0.15,0.09-0.27,0.22-0.36,0.4c-0.08,0.17-0.13,0.38-0.13,0.62v2.95h-0.8V532.12z"/>
				<path class="st8" d="M470.94,531.16c-0.1-0.1-0.15-0.22-0.15-0.35c0-0.14,0.05-0.26,0.15-0.36s0.22-0.14,0.35-0.14
					c0.14,0,0.26,0.05,0.36,0.14s0.14,0.22,0.14,0.36c0,0.14-0.05,0.26-0.14,0.35c-0.1,0.1-0.22,0.15-0.36,0.15
					C471.16,531.31,471.04,531.26,470.94,531.16z M470.9,532.12h0.8v4.78h-0.8V532.12z"/>
				<path class="st8" d="M472.79,532.12h0.8v0.68h0.02c0.13-0.22,0.32-0.41,0.56-0.55s0.55-0.22,0.91-0.22
					c0.52,0,0.93,0.16,1.22,0.48c0.29,0.32,0.43,0.75,0.43,1.29v3.1h-0.8v-2.96c0-0.39-0.09-0.69-0.27-0.89s-0.46-0.31-0.83-0.31
					c-0.25,0-0.47,0.06-0.66,0.17c-0.19,0.11-0.33,0.27-0.43,0.47s-0.15,0.44-0.15,0.71v2.81h-0.8V532.12z"/>
				<path class="st8" d="M478.75,538.44c-0.29-0.11-0.53-0.26-0.71-0.46c-0.18-0.19-0.29-0.41-0.35-0.64l-0.01-0.04h0.8l0.02,0.04
					c0.08,0.17,0.22,0.31,0.44,0.41c0.22,0.1,0.49,0.15,0.82,0.15c0.42,0,0.75-0.11,0.97-0.32c0.23-0.22,0.34-0.51,0.34-0.88v-0.61
					h-0.02c-0.1,0.18-0.22,0.33-0.37,0.46s-0.32,0.23-0.52,0.3c-0.19,0.07-0.41,0.11-0.64,0.11c-0.4,0-0.75-0.1-1.06-0.31
					c-0.3-0.2-0.54-0.49-0.71-0.86c-0.17-0.37-0.25-0.8-0.25-1.3v0c0-0.5,0.09-0.93,0.26-1.29c0.17-0.37,0.41-0.65,0.72-0.85
					s0.66-0.3,1.07-0.3c0.23,0,0.43,0.04,0.62,0.12c0.19,0.08,0.36,0.18,0.51,0.32c0.15,0.13,0.27,0.29,0.37,0.47h0.02v-0.81h0.8
					v4.65c0,0.37-0.09,0.69-0.26,0.97s-0.42,0.49-0.73,0.64c-0.32,0.15-0.69,0.23-1.12,0.23
					C479.38,538.61,479.04,538.55,478.75,538.44z M480.43,536.02c0.2-0.15,0.36-0.35,0.48-0.61c0.12-0.26,0.17-0.57,0.17-0.92v0
					c0-0.35-0.06-0.66-0.17-0.92c-0.12-0.26-0.28-0.46-0.48-0.61c-0.21-0.14-0.44-0.22-0.71-0.22c-0.28,0-0.53,0.07-0.74,0.21
					c-0.21,0.14-0.37,0.34-0.48,0.61s-0.17,0.57-0.17,0.92v0c0,0.36,0.06,0.67,0.17,0.94c0.11,0.26,0.27,0.46,0.48,0.61
					c0.21,0.14,0.45,0.21,0.74,0.21C479.99,536.24,480.23,536.17,480.43,536.02z"/>
				<path class="st8" d="M484.97,530.27h0.8l4.36,6.25l-1.05-1.01h0.37v-5.24h0.82v6.64h-0.8l-4.35-6.25l1.05,1.01h-0.37v5.24h-0.82
					V530.27z"/>
				<path class="st8" d="M492.23,536.69c-0.33-0.2-0.58-0.49-0.76-0.86c-0.18-0.37-0.26-0.8-0.26-1.3v0c0-0.49,0.09-0.93,0.27-1.3
					c0.18-0.38,0.43-0.67,0.75-0.88c0.32-0.21,0.7-0.32,1.14-0.32s0.81,0.1,1.12,0.3c0.31,0.2,0.56,0.48,0.72,0.84
					c0.17,0.36,0.25,0.78,0.25,1.26v0.29h-3.85v-0.63h3.46l-0.4,0.58v-0.31c0-0.37-0.06-0.68-0.17-0.92
					c-0.11-0.24-0.27-0.42-0.46-0.54c-0.2-0.12-0.42-0.18-0.68-0.18c-0.25,0-0.48,0.06-0.68,0.19c-0.2,0.12-0.36,0.31-0.48,0.55
					c-0.12,0.24-0.17,0.54-0.17,0.9v0.31c0,0.34,0.06,0.63,0.17,0.87c0.12,0.24,0.28,0.42,0.49,0.55c0.21,0.13,0.46,0.19,0.75,0.19
					c0.2,0,0.38-0.03,0.54-0.09s0.29-0.15,0.4-0.25s0.18-0.23,0.23-0.37l0.01-0.04h0.79l-0.01,0.05c-0.04,0.2-0.12,0.38-0.23,0.55
					c-0.11,0.17-0.25,0.32-0.43,0.45c-0.17,0.13-0.37,0.23-0.6,0.3c-0.22,0.07-0.47,0.11-0.73,0.11
					C492.95,537,492.55,536.9,492.23,536.69z"/>
				<path class="st8" d="M496.83,536.68c-0.22-0.21-0.33-0.54-0.33-1v-2.9h-0.7v-0.66h0.7v-1.29h0.83v1.29h0.91v0.66h-0.91v2.9
					c0,0.25,0.06,0.43,0.17,0.52c0.11,0.09,0.27,0.14,0.49,0.14c0.05,0,0.1,0,0.14-0.01c0.04,0,0.08-0.01,0.12-0.01v0.65
					c-0.05,0.01-0.11,0.01-0.19,0.02c-0.08,0.01-0.16,0.01-0.24,0.01C497.38,537,497.05,536.89,496.83,536.68z"/>
				<path class="st8" d="M498.71,532.12h0.8l0.96,3.89h0.02l1.08-3.89h0.77l1.08,3.89h0.02l0.96-3.89h0.79l-1.33,4.78h-0.81
					l-1.08-3.7h-0.02l-1.08,3.7h-0.81L498.71,532.12z"/>
				<path class="st8" d="M506.66,536.69c-0.33-0.2-0.59-0.49-0.78-0.86c-0.19-0.37-0.28-0.81-0.28-1.32v-0.01
					c0-0.51,0.09-0.95,0.28-1.32c0.19-0.37,0.44-0.66,0.78-0.86c0.33-0.2,0.72-0.3,1.16-0.3c0.44,0,0.83,0.1,1.16,0.3
					c0.33,0.2,0.59,0.49,0.78,0.86c0.19,0.37,0.28,0.81,0.28,1.32v0.01c0,0.51-0.09,0.95-0.28,1.32s-0.44,0.66-0.77,0.86
					c-0.33,0.2-0.72,0.3-1.16,0.3S506.99,536.9,506.66,536.69z M508.56,536.08c0.21-0.14,0.37-0.34,0.48-0.61
					c0.12-0.26,0.17-0.58,0.17-0.96v-0.01c0-0.37-0.06-0.69-0.17-0.96s-0.28-0.46-0.49-0.6c-0.21-0.14-0.46-0.21-0.74-0.21
					c-0.28,0-0.52,0.07-0.73,0.21s-0.37,0.34-0.49,0.6c-0.12,0.26-0.17,0.58-0.17,0.95v0.01c0,0.37,0.06,0.69,0.17,0.96
					c0.12,0.27,0.28,0.47,0.49,0.61s0.46,0.21,0.74,0.21C508.1,536.29,508.35,536.22,508.56,536.08z"/>
				<path class="st8" d="M510.84,532.12h0.8v0.81h0.02c0.08-0.28,0.22-0.5,0.41-0.66c0.2-0.16,0.43-0.24,0.7-0.24
					c0.07,0,0.13,0,0.19,0.01c0.06,0.01,0.1,0.01,0.13,0.02v0.78c-0.03-0.01-0.08-0.02-0.16-0.03c-0.08-0.01-0.17-0.01-0.26-0.01
					c-0.21,0-0.39,0.05-0.54,0.14c-0.15,0.09-0.27,0.22-0.36,0.4c-0.08,0.17-0.13,0.38-0.13,0.62v2.95h-0.8V532.12z"/>
				<path class="st8" d="M513.8,530.27h0.8v6.64h-0.8V530.27z M514.42,534.23h0.2l2.1-2.11h0.97l-2.27,2.26h-0.06l-0.93,0.89V534.23
					z M515,534.62l0.53-0.53l2.22,2.82h-0.93L515,534.62z"/>
			</g>
		</g>
		<path class="st13" d="M527.37,547.37h-81.3c-4.58,0-8.33-3.75-8.33-8.33v-9.78c0-4.58,3.75-8.33,8.33-8.33h81.3
			c4.58,0,8.33,3.75,8.33,8.33v9.78C535.69,543.62,531.95,547.37,527.37,547.37z"/>
		<line class="st13" x1="486.72" y1="547.37" x2="486.72" y2="566.2"/>
		<g>
			<g>
				<path class="st8" d="M454.69,575.53h2.49c0.43,0,0.8,0.08,1.12,0.25c0.32,0.16,0.56,0.39,0.74,0.69s0.26,0.64,0.26,1.04v0.01
					c0,0.46-0.12,0.86-0.36,1.19c-0.24,0.34-0.56,0.57-0.98,0.7l1.54,2.75h-0.97l-1.42-2.63c-0.01,0-0.02,0-0.03,0s-0.02,0-0.03,0
					h-1.54v2.63h-0.83V575.53z M457.11,578.81c0.43,0,0.75-0.11,0.99-0.33s0.35-0.54,0.35-0.94v-0.01c0-0.4-0.12-0.7-0.37-0.93
					c-0.24-0.22-0.58-0.33-1-0.33h-1.55v2.54H457.11z"/>
				<path class="st8" d="M461,581.96c-0.33-0.2-0.58-0.49-0.76-0.86c-0.18-0.37-0.26-0.8-0.26-1.3v0c0-0.49,0.09-0.93,0.27-1.3
					c0.18-0.38,0.43-0.67,0.75-0.88c0.32-0.21,0.7-0.32,1.14-0.32s0.81,0.1,1.12,0.3c0.31,0.2,0.56,0.48,0.72,0.84
					c0.17,0.36,0.25,0.78,0.25,1.26v0.29h-3.85v-0.63h3.46l-0.4,0.58v-0.31c0-0.37-0.06-0.68-0.17-0.92
					c-0.11-0.24-0.27-0.42-0.46-0.54c-0.2-0.12-0.42-0.18-0.68-0.18c-0.25,0-0.48,0.06-0.68,0.19c-0.2,0.12-0.36,0.31-0.48,0.55
					c-0.12,0.24-0.17,0.54-0.17,0.9v0.31c0,0.34,0.06,0.63,0.17,0.87c0.12,0.24,0.28,0.42,0.49,0.55c0.21,0.13,0.46,0.19,0.75,0.19
					c0.2,0,0.38-0.03,0.54-0.09s0.29-0.15,0.4-0.25s0.18-0.23,0.23-0.37l0.01-0.04h0.79l-0.01,0.05c-0.04,0.2-0.12,0.38-0.23,0.55
					c-0.11,0.17-0.25,0.32-0.43,0.45c-0.17,0.13-0.37,0.23-0.6,0.3c-0.22,0.07-0.47,0.11-0.73,0.11
					C461.72,582.26,461.33,582.16,461,581.96z"/>
				<path class="st8" d="M465.04,577.38h0.8v0.7h0.02c0.11-0.24,0.28-0.43,0.51-0.57c0.23-0.15,0.5-0.22,0.81-0.22
					c0.22,0,0.41,0.04,0.59,0.11c0.18,0.07,0.33,0.18,0.46,0.31s0.23,0.3,0.29,0.5h0.02c0.09-0.19,0.21-0.36,0.36-0.49
					c0.15-0.14,0.32-0.24,0.52-0.32c0.19-0.07,0.4-0.11,0.63-0.11c0.32,0,0.59,0.07,0.82,0.2c0.23,0.13,0.41,0.31,0.54,0.55
					c0.13,0.23,0.19,0.51,0.19,0.83v3.3h-0.8v-3.12c0-0.33-0.09-0.58-0.26-0.77c-0.17-0.19-0.42-0.28-0.73-0.28
					c-0.21,0-0.4,0.05-0.56,0.15s-0.29,0.23-0.38,0.4c-0.09,0.17-0.14,0.36-0.14,0.58v3.04h-0.8v-3.21c0-0.29-0.09-0.52-0.27-0.7
					s-0.42-0.26-0.71-0.26c-0.21,0-0.4,0.05-0.56,0.15s-0.29,0.24-0.39,0.42c-0.1,0.17-0.14,0.37-0.14,0.6v3h-0.8V577.38z"/>
				<path class="st8" d="M473.42,581.96c-0.33-0.2-0.59-0.49-0.78-0.86c-0.19-0.37-0.28-0.81-0.28-1.32v-0.01
					c0-0.51,0.09-0.95,0.28-1.32c0.19-0.37,0.44-0.66,0.78-0.86c0.33-0.2,0.72-0.3,1.16-0.3c0.44,0,0.83,0.1,1.16,0.3
					c0.33,0.2,0.59,0.49,0.78,0.86c0.19,0.37,0.28,0.81,0.28,1.32v0.01c0,0.51-0.09,0.95-0.28,1.32s-0.44,0.66-0.77,0.86
					c-0.33,0.2-0.72,0.3-1.16,0.3S473.76,582.16,473.42,581.96z M475.32,581.34c0.21-0.14,0.37-0.34,0.48-0.61
					c0.12-0.26,0.17-0.58,0.17-0.96v-0.01c0-0.37-0.06-0.69-0.17-0.96s-0.28-0.46-0.49-0.6c-0.21-0.14-0.46-0.21-0.74-0.21
					c-0.28,0-0.52,0.07-0.73,0.21s-0.37,0.34-0.49,0.6c-0.12,0.26-0.17,0.58-0.17,0.95v0.01c0,0.37,0.06,0.69,0.17,0.96
					c0.12,0.27,0.28,0.47,0.49,0.61s0.46,0.21,0.74,0.21C474.87,581.55,475.12,581.48,475.32,581.34z"/>
				<path class="st8" d="M478.17,581.95c-0.22-0.21-0.33-0.54-0.33-1v-2.9h-0.7v-0.66h0.7v-1.29h0.83v1.29h0.91v0.66h-0.91v2.9
					c0,0.25,0.06,0.43,0.17,0.52c0.11,0.09,0.27,0.14,0.49,0.14c0.05,0,0.1,0,0.14-0.01c0.04,0,0.08-0.01,0.12-0.01v0.65
					c-0.05,0.01-0.11,0.01-0.19,0.02c-0.08,0.01-0.16,0.01-0.24,0.01C478.72,582.26,478.39,582.16,478.17,581.95z"/>
				<path class="st8" d="M481.23,581.96c-0.33-0.2-0.58-0.49-0.76-0.86c-0.18-0.37-0.26-0.8-0.26-1.3v0c0-0.49,0.09-0.93,0.27-1.3
					c0.18-0.38,0.43-0.67,0.75-0.88c0.32-0.21,0.7-0.32,1.14-0.32s0.81,0.1,1.12,0.3c0.31,0.2,0.56,0.48,0.72,0.84
					c0.17,0.36,0.25,0.78,0.25,1.26v0.29h-3.85v-0.63h3.46l-0.4,0.58v-0.31c0-0.37-0.06-0.68-0.17-0.92
					c-0.11-0.24-0.27-0.42-0.46-0.54c-0.2-0.12-0.42-0.18-0.68-0.18c-0.25,0-0.48,0.06-0.68,0.19c-0.2,0.12-0.36,0.31-0.48,0.55
					c-0.12,0.24-0.17,0.54-0.17,0.9v0.31c0,0.34,0.06,0.63,0.17,0.87c0.12,0.24,0.28,0.42,0.49,0.55c0.21,0.13,0.46,0.19,0.75,0.19
					c0.2,0,0.38-0.03,0.54-0.09s0.29-0.15,0.4-0.25s0.18-0.23,0.23-0.37l0.01-0.04h0.79l-0.01,0.05c-0.04,0.2-0.12,0.38-0.23,0.55
					c-0.11,0.17-0.25,0.32-0.43,0.45c-0.17,0.13-0.37,0.23-0.6,0.3c-0.22,0.07-0.47,0.11-0.73,0.11
					C481.95,582.26,481.56,582.16,481.23,581.96z"/>
				<path class="st8" d="M488.49,581.86c-0.46-0.28-0.81-0.68-1.06-1.19s-0.37-1.12-0.37-1.81v0c0-0.7,0.12-1.3,0.37-1.81
					c0.25-0.51,0.6-0.91,1.05-1.19c0.45-0.28,0.99-0.42,1.61-0.42c0.46,0,0.88,0.09,1.26,0.26c0.38,0.17,0.69,0.42,0.94,0.73
					c0.25,0.31,0.42,0.68,0.5,1.1l0.01,0.05h-0.84l-0.03-0.1c-0.09-0.27-0.21-0.5-0.38-0.69s-0.38-0.33-0.62-0.43
					c-0.25-0.1-0.52-0.15-0.84-0.15c-0.44,0-0.83,0.11-1.15,0.33c-0.33,0.22-0.58,0.53-0.76,0.92c-0.18,0.4-0.27,0.87-0.27,1.4v0
					c0,0.54,0.09,1,0.27,1.41c0.18,0.4,0.43,0.71,0.76,0.93s0.71,0.33,1.15,0.33c0.31,0,0.59-0.05,0.83-0.15
					c0.24-0.1,0.45-0.25,0.63-0.45c0.17-0.2,0.31-0.44,0.4-0.73l0.01-0.04h0.84l-0.01,0.05c-0.08,0.42-0.25,0.79-0.5,1.11
					c-0.25,0.31-0.57,0.56-0.94,0.73c-0.38,0.17-0.8,0.26-1.26,0.26C489.48,582.28,488.95,582.14,488.49,581.86z"/>
				<path class="st8" d="M494.48,581.96c-0.33-0.2-0.59-0.49-0.78-0.86c-0.19-0.37-0.28-0.81-0.28-1.32v-0.01
					c0-0.51,0.09-0.95,0.28-1.32c0.19-0.37,0.44-0.66,0.78-0.86c0.33-0.2,0.72-0.3,1.16-0.3c0.44,0,0.83,0.1,1.16,0.3
					c0.33,0.2,0.59,0.49,0.78,0.86c0.19,0.37,0.28,0.81,0.28,1.32v0.01c0,0.51-0.09,0.95-0.28,1.32s-0.44,0.66-0.77,0.86
					c-0.33,0.2-0.72,0.3-1.16,0.3S494.81,582.16,494.48,581.96z M496.38,581.34c0.21-0.14,0.37-0.34,0.48-0.61
					c0.12-0.26,0.17-0.58,0.17-0.96v-0.01c0-0.37-0.06-0.69-0.17-0.96s-0.28-0.46-0.49-0.6c-0.21-0.14-0.46-0.21-0.74-0.21
					c-0.28,0-0.52,0.07-0.73,0.21s-0.37,0.34-0.49,0.6c-0.12,0.26-0.17,0.58-0.17,0.95v0.01c0,0.37,0.06,0.69,0.17,0.96
					c0.12,0.27,0.28,0.47,0.49,0.61s0.46,0.21,0.74,0.21C495.92,581.55,496.17,581.48,496.38,581.34z"/>
				<path class="st8" d="M498.66,577.38h0.8v0.68h0.02c0.13-0.22,0.32-0.41,0.56-0.55s0.55-0.22,0.91-0.22
					c0.52,0,0.93,0.16,1.22,0.48c0.29,0.32,0.43,0.75,0.43,1.29v3.1h-0.8v-2.96c0-0.39-0.09-0.69-0.27-0.89s-0.46-0.31-0.83-0.31
					c-0.25,0-0.47,0.06-0.66,0.17c-0.19,0.11-0.33,0.27-0.43,0.47s-0.15,0.44-0.15,0.71v2.81h-0.8V577.38z"/>
				<path class="st8" d="M504.19,581.95c-0.22-0.21-0.33-0.54-0.33-1v-2.9h-0.7v-0.66h0.7v-1.29h0.83v1.29h0.91v0.66h-0.91v2.9
					c0,0.25,0.06,0.43,0.17,0.52c0.11,0.09,0.27,0.14,0.49,0.14c0.05,0,0.1,0,0.14-0.01c0.04,0,0.08-0.01,0.12-0.01v0.65
					c-0.05,0.01-0.11,0.01-0.19,0.02c-0.08,0.01-0.16,0.01-0.24,0.01C504.73,582.26,504.41,582.16,504.19,581.95z"/>
				<path class="st8" d="M506.46,577.38h0.8v0.81h0.02c0.08-0.28,0.22-0.5,0.41-0.66c0.2-0.16,0.43-0.24,0.7-0.24
					c0.07,0,0.13,0,0.19,0.01c0.06,0.01,0.1,0.01,0.13,0.02v0.78c-0.03-0.01-0.08-0.02-0.16-0.03c-0.08-0.01-0.17-0.01-0.26-0.01
					c-0.21,0-0.39,0.05-0.54,0.14c-0.15,0.09-0.27,0.22-0.36,0.4c-0.08,0.17-0.13,0.38-0.13,0.62v2.95h-0.8V577.38z"/>
				<path class="st8" d="M510.18,581.96c-0.33-0.2-0.59-0.49-0.78-0.86c-0.19-0.37-0.28-0.81-0.28-1.32v-0.01
					c0-0.51,0.09-0.95,0.28-1.32c0.19-0.37,0.44-0.66,0.78-0.86c0.33-0.2,0.72-0.3,1.16-0.3c0.44,0,0.83,0.1,1.16,0.3
					c0.33,0.2,0.59,0.49,0.78,0.86c0.19,0.37,0.28,0.81,0.28,1.32v0.01c0,0.51-0.09,0.95-0.28,1.32s-0.44,0.66-0.77,0.86
					c-0.33,0.2-0.72,0.3-1.16,0.3S510.51,582.16,510.18,581.96z M512.08,581.34c0.21-0.14,0.37-0.34,0.48-0.61
					c0.12-0.26,0.17-0.58,0.17-0.96v-0.01c0-0.37-0.06-0.69-0.17-0.96s-0.28-0.46-0.49-0.6c-0.21-0.14-0.46-0.21-0.74-0.21
					c-0.28,0-0.52,0.07-0.73,0.21s-0.37,0.34-0.49,0.6c-0.12,0.26-0.17,0.58-0.17,0.95v0.01c0,0.37,0.06,0.69,0.17,0.96
					c0.12,0.27,0.28,0.47,0.49,0.61s0.46,0.21,0.74,0.21C511.63,581.55,511.87,581.48,512.08,581.34z"/>
				<path class="st8" d="M514.4,575.53h0.8v6.64h-0.8V575.53z"/>
			</g>
		</g>
		<path class="st13" d="M527.37,592.63h-81.3c-4.58,0-8.33-3.75-8.33-8.33v-9.78c0-4.58,3.75-8.33,8.33-8.33h81.3
			c4.58,0,8.33,3.75,8.33,8.33v9.78C535.69,588.89,531.95,592.63,527.37,592.63z"/>
		<g>
			<g>
				<path class="st8" d="M595.61,439.73h0.83v6.64h-0.83V439.73z M596.03,443.27h1.74c0.48,0,0.84-0.12,1.1-0.37
					c0.26-0.25,0.39-0.59,0.39-1.02v-0.01c0-0.44-0.13-0.78-0.39-1.03c-0.26-0.25-0.63-0.37-1.1-0.37h-1.74v-0.74h1.95
					c0.42,0,0.79,0.09,1.1,0.27c0.32,0.18,0.57,0.43,0.75,0.75c0.18,0.32,0.27,0.69,0.27,1.11v0.01c0,0.42-0.09,0.79-0.27,1.11
					c-0.18,0.32-0.43,0.57-0.75,0.75c-0.32,0.18-0.69,0.27-1.1,0.27h-1.95V443.27z"/>
				<path class="st8" d="M600.93,441.59h0.8v0.81h0.02c0.08-0.28,0.22-0.5,0.41-0.66c0.2-0.16,0.43-0.24,0.7-0.24
					c0.07,0,0.13,0,0.19,0.01c0.06,0.01,0.1,0.01,0.13,0.02v0.78c-0.03-0.01-0.08-0.02-0.16-0.03c-0.08-0.01-0.17-0.01-0.26-0.01
					c-0.21,0-0.39,0.05-0.54,0.14c-0.15,0.09-0.27,0.22-0.36,0.4c-0.08,0.17-0.13,0.38-0.13,0.62v2.95h-0.8V441.59z"/>
				<path class="st8" d="M603.93,440.63c-0.1-0.1-0.15-0.22-0.15-0.35c0-0.14,0.05-0.26,0.15-0.36s0.22-0.14,0.35-0.14
					c0.14,0,0.26,0.05,0.36,0.14s0.14,0.22,0.14,0.36c0,0.14-0.05,0.26-0.14,0.35c-0.1,0.1-0.22,0.15-0.36,0.15
					C604.14,440.78,604.03,440.73,603.93,440.63z M603.88,441.59h0.8v4.78h-0.8V441.59z"/>
				<path class="st8" d="M605.77,441.59h0.8v0.68h0.02c0.13-0.22,0.32-0.41,0.56-0.55s0.55-0.22,0.91-0.22
					c0.52,0,0.93,0.16,1.22,0.48c0.29,0.32,0.43,0.75,0.43,1.29v3.1h-0.8v-2.96c0-0.39-0.09-0.69-0.27-0.89s-0.46-0.31-0.83-0.31
					c-0.25,0-0.47,0.06-0.66,0.17c-0.19,0.11-0.33,0.27-0.43,0.47s-0.15,0.44-0.15,0.71v2.81h-0.8V441.59z"/>
				<path class="st8" d="M611.3,446.15c-0.22-0.21-0.33-0.54-0.33-1v-2.9h-0.7v-0.66h0.7v-1.29h0.83v1.29h0.91v0.66h-0.91v2.9
					c0,0.25,0.06,0.43,0.17,0.52c0.11,0.09,0.27,0.14,0.49,0.14c0.05,0,0.1,0,0.14-0.01c0.04,0,0.08-0.01,0.12-0.01v0.65
					c-0.05,0.01-0.11,0.01-0.19,0.02c-0.08,0.01-0.16,0.01-0.24,0.01C611.85,446.46,611.52,446.36,611.3,446.15z"/>
				<path class="st8" d="M614.36,446.16c-0.33-0.2-0.58-0.49-0.76-0.86c-0.18-0.37-0.26-0.8-0.26-1.3v0c0-0.49,0.09-0.93,0.27-1.3
					c0.18-0.38,0.43-0.67,0.75-0.88c0.32-0.21,0.7-0.32,1.14-0.32s0.81,0.1,1.12,0.3c0.31,0.2,0.56,0.48,0.72,0.84
					c0.17,0.36,0.25,0.78,0.25,1.26v0.29h-3.85v-0.63h3.46l-0.4,0.58v-0.31c0-0.37-0.06-0.68-0.17-0.92
					c-0.11-0.24-0.27-0.42-0.46-0.54c-0.2-0.12-0.42-0.18-0.68-0.18c-0.25,0-0.48,0.06-0.68,0.19c-0.2,0.12-0.36,0.31-0.48,0.55
					c-0.12,0.24-0.17,0.54-0.17,0.9v0.31c0,0.34,0.06,0.63,0.17,0.87c0.12,0.24,0.28,0.42,0.49,0.55c0.21,0.13,0.46,0.19,0.75,0.19
					c0.2,0,0.38-0.03,0.54-0.09s0.29-0.15,0.4-0.25s0.18-0.23,0.23-0.37l0.01-0.04h0.79l-0.01,0.05c-0.04,0.2-0.12,0.38-0.23,0.55
					c-0.11,0.17-0.25,0.32-0.43,0.45c-0.17,0.13-0.37,0.23-0.6,0.3c-0.22,0.07-0.47,0.11-0.73,0.11
					C615.08,446.46,614.69,446.36,614.36,446.16z"/>
				<path class="st8" d="M618.4,441.59h0.8v0.81h0.02c0.08-0.28,0.22-0.5,0.41-0.66c0.2-0.16,0.43-0.24,0.7-0.24
					c0.07,0,0.13,0,0.19,0.01c0.06,0.01,0.1,0.01,0.13,0.02v0.78c-0.03-0.01-0.08-0.02-0.16-0.03c-0.08-0.01-0.17-0.01-0.26-0.01
					c-0.21,0-0.39,0.05-0.54,0.14c-0.15,0.09-0.27,0.22-0.36,0.4c-0.08,0.17-0.13,0.38-0.13,0.62v2.95h-0.8V441.59z"/>
				<path class="st8" d="M623.35,439.73h0.83v6.64h-0.83V439.73z"/>
				<path class="st8" d="M625.34,441.59h0.8v0.68h0.02c0.13-0.22,0.32-0.41,0.56-0.55s0.55-0.22,0.91-0.22
					c0.52,0,0.93,0.16,1.22,0.48c0.29,0.32,0.43,0.75,0.43,1.29v3.1h-0.8v-2.96c0-0.39-0.09-0.69-0.27-0.89s-0.46-0.31-0.83-0.31
					c-0.25,0-0.47,0.06-0.66,0.17c-0.19,0.11-0.33,0.27-0.43,0.47s-0.15,0.44-0.15,0.71v2.81h-0.8V441.59z"/>
				<path class="st8" d="M630.56,442.25h-0.67v-0.66h0.67V441c0-0.46,0.11-0.8,0.32-1.02c0.22-0.22,0.54-0.33,0.99-0.33
					c0.09,0,0.18,0,0.27,0.01c0.09,0.01,0.16,0.01,0.22,0.02v0.65c-0.05-0.01-0.1-0.01-0.16-0.01s-0.12,0-0.18,0
					c-0.22,0-0.39,0.06-0.5,0.17s-0.17,0.29-0.17,0.53v0.58h0.98v0.66h-0.98v4.12h-0.8V442.25z"/>
				<path class="st8" d="M633.99,446.16c-0.33-0.2-0.59-0.49-0.78-0.86c-0.19-0.37-0.28-0.81-0.28-1.32v-0.01
					c0-0.51,0.09-0.95,0.28-1.32c0.19-0.37,0.44-0.66,0.78-0.86c0.33-0.2,0.72-0.3,1.16-0.3c0.44,0,0.83,0.1,1.16,0.3
					c0.33,0.2,0.59,0.49,0.78,0.86c0.19,0.37,0.28,0.81,0.28,1.32v0.01c0,0.51-0.09,0.95-0.28,1.32s-0.44,0.66-0.77,0.86
					c-0.33,0.2-0.72,0.3-1.16,0.3S634.32,446.36,633.99,446.16z M635.89,445.54c0.21-0.14,0.37-0.34,0.48-0.61
					c0.12-0.26,0.17-0.58,0.17-0.96v-0.01c0-0.37-0.06-0.69-0.17-0.96s-0.28-0.46-0.49-0.6c-0.21-0.14-0.46-0.21-0.74-0.21
					c-0.28,0-0.52,0.07-0.73,0.21s-0.37,0.34-0.49,0.6c-0.12,0.26-0.17,0.58-0.17,0.95v0.01c0,0.37,0.06,0.69,0.17,0.96
					c0.12,0.27,0.28,0.47,0.49,0.61s0.46,0.21,0.74,0.21C635.44,445.75,635.68,445.68,635.89,445.54z"/>
			</g>
		</g>
		<path class="st13" d="M658.91,456.83h-81.3c-4.58,0-8.33-3.75-8.33-8.33v-9.78c0-4.58,3.75-8.33,8.33-8.33h81.3
			c4.58,0,8.33,3.75,8.33,8.33v9.78C667.24,453.09,663.49,456.83,658.91,456.83z"/>
		<path class="st13" d="M223.63,343.7v-23.73c0-3.83,3.35-6.96,7.45-6.96h379.73c4.1,0,7.45,3.13,7.45,6.96v23.73"/>
		<path class="st10" d="M461.18,245.62h-80.46c-5.11,0-9.3-4.18-9.3-9.3V225.4c0-5.11,4.18-9.3,9.3-9.3h80.46
			c5.11,0,9.3,4.18,9.3,9.3v10.92C470.47,241.43,466.29,245.62,461.18,245.62z"/>
		<g>
			<g>
				<path class="st8" d="M392.42,225.43h1.34l3.22,7.83h0.04l3.22-7.83h1.34v9.29h-1.08v-7.18h-0.53l1.26-1.85l-3.73,9.03h-0.98
					l-3.73-9.03l1.26,1.85h-0.53v7.18h-1.08V225.43z"/>
				<path class="st8" d="M403.34,226.68c-0.14-0.14-0.21-0.3-0.21-0.5c0-0.2,0.07-0.36,0.21-0.5c0.14-0.13,0.3-0.2,0.5-0.2
					c0.2,0,0.36,0.07,0.5,0.2c0.14,0.14,0.2,0.3,0.2,0.5c0,0.19-0.07,0.36-0.2,0.5s-0.3,0.21-0.5,0.21
					C403.64,226.89,403.47,226.82,403.34,226.68z M403.27,228.02h1.12v6.7h-1.12V228.02z"/>
				<path class="st8" d="M407.31,236.86c-0.41-0.16-0.74-0.37-0.99-0.64s-0.41-0.57-0.49-0.9l-0.01-0.06h1.13l0.03,0.06
					c0.11,0.24,0.31,0.43,0.62,0.57c0.31,0.14,0.69,0.21,1.14,0.21c0.59,0,1.04-0.15,1.37-0.45s0.48-0.71,0.48-1.23v-0.86h-0.03
					c-0.13,0.25-0.3,0.46-0.52,0.64c-0.21,0.18-0.45,0.32-0.72,0.42c-0.27,0.1-0.57,0.15-0.89,0.15c-0.56,0-1.06-0.14-1.48-0.43
					c-0.43-0.29-0.76-0.69-1-1.2c-0.24-0.52-0.36-1.12-0.36-1.82v-0.01c0-0.7,0.12-1.3,0.36-1.81c0.24-0.51,0.58-0.91,1.01-1.19
					c0.43-0.28,0.93-0.43,1.49-0.43c0.32,0,0.61,0.05,0.88,0.16c0.27,0.11,0.5,0.26,0.71,0.44c0.21,0.19,0.38,0.41,0.52,0.66h0.03
					v-1.13h1.12v6.51c0,0.52-0.12,0.97-0.36,1.36c-0.24,0.38-0.58,0.68-1.02,0.89c-0.44,0.21-0.97,0.32-1.57,0.32
					C408.2,237.1,407.72,237.02,407.31,236.86z M409.67,233.48c0.29-0.2,0.51-0.49,0.67-0.86c0.16-0.37,0.24-0.8,0.24-1.29v-0.01
					c0-0.49-0.08-0.92-0.24-1.29c-0.16-0.37-0.39-0.65-0.67-0.85c-0.29-0.2-0.62-0.3-1-0.3c-0.4,0-0.74,0.1-1.03,0.3
					c-0.29,0.2-0.52,0.48-0.67,0.85c-0.16,0.37-0.23,0.8-0.23,1.29v0.01c0,0.51,0.08,0.94,0.23,1.31s0.38,0.65,0.67,0.85
					s0.64,0.3,1.03,0.3C409.05,233.79,409.39,233.69,409.67,233.48z"/>
				<path class="st8" d="M413.21,225.43h1.12v3.66h0.03c0.18-0.38,0.45-0.67,0.8-0.88c0.36-0.21,0.78-0.32,1.28-0.32
					c0.48,0,0.89,0.12,1.25,0.34s0.64,0.55,0.84,0.96c0.2,0.41,0.3,0.88,0.3,1.42v4.1h-1.12v-3.91c0-0.61-0.15-1.08-0.44-1.42
					c-0.29-0.34-0.7-0.51-1.22-0.51c-0.34,0-0.65,0.08-0.9,0.24s-0.46,0.39-0.6,0.68c-0.14,0.29-0.22,0.62-0.22,1v3.91h-1.12V225.43
					z"/>
				<path class="st8" d="M421.06,234.41c-0.3-0.29-0.46-0.76-0.46-1.4v-4.06h-0.98v-0.93h0.98v-1.81h1.16v1.81h1.28v0.93h-1.28V233
					c0,0.36,0.08,0.6,0.23,0.72c0.15,0.13,0.38,0.19,0.68,0.19c0.07,0,0.13,0,0.2-0.01c0.06-0.01,0.12-0.01,0.17-0.02v0.91
					c-0.07,0.01-0.16,0.02-0.27,0.03s-0.22,0.02-0.33,0.02C421.82,234.85,421.36,234.7,421.06,234.41z"/>
				<path class="st8" d="M424.55,236.95c-0.11-0.01-0.2-0.02-0.27-0.04V236c0.05,0.01,0.1,0.02,0.16,0.03
					c0.06,0.01,0.13,0.01,0.2,0.01c0.36,0,0.64-0.06,0.85-0.19c0.21-0.12,0.38-0.38,0.52-0.75l0.13-0.38l-2.49-6.7h1.2l1.93,5.83
					l-0.24-0.26h0.33l-0.24,0.26l1.94-5.83h1.18l-2.61,7.12c-0.16,0.42-0.34,0.77-0.54,1.04c-0.2,0.27-0.44,0.47-0.71,0.6
					c-0.28,0.13-0.62,0.19-1.02,0.19C424.77,236.97,424.66,236.96,424.55,236.95z"/>
				<path class="st8" d="M434.83,234.53c-0.51-0.23-0.9-0.54-1.19-0.94c-0.29-0.4-0.43-0.86-0.43-1.38v-0.01
					c0-0.38,0.08-0.74,0.25-1.06c0.17-0.33,0.4-0.6,0.7-0.83s0.65-0.39,1.04-0.48v-0.03c-0.51-0.16-0.91-0.42-1.21-0.79
					c-0.3-0.37-0.45-0.79-0.45-1.28v-0.01c0-0.47,0.13-0.89,0.39-1.25c0.26-0.37,0.62-0.66,1.08-0.87c0.46-0.21,0.98-0.32,1.56-0.32
					c0.59,0,1.11,0.11,1.57,0.32c0.46,0.21,0.82,0.5,1.08,0.87c0.26,0.37,0.39,0.79,0.39,1.25v0.01c0,0.49-0.15,0.92-0.45,1.28
					c-0.3,0.37-0.7,0.63-1.21,0.79v0.03c0.4,0.09,0.75,0.25,1.05,0.48c0.3,0.23,0.53,0.51,0.7,0.83c0.17,0.33,0.25,0.68,0.25,1.06
					v0.01c0,0.52-0.14,0.98-0.43,1.38c-0.29,0.4-0.69,0.72-1.19,0.94s-1.09,0.34-1.75,0.34
					C435.92,234.87,435.34,234.76,434.83,234.53z M437.71,233.64c0.33-0.15,0.59-0.35,0.78-0.61c0.19-0.26,0.28-0.56,0.28-0.89
					v-0.01c0-0.34-0.09-0.64-0.28-0.9c-0.19-0.26-0.45-0.47-0.78-0.62s-0.71-0.23-1.14-0.23c-0.43,0-0.81,0.08-1.14,0.23
					c-0.33,0.15-0.59,0.36-0.78,0.62c-0.19,0.26-0.28,0.56-0.28,0.9v0.01c0,0.33,0.09,0.63,0.28,0.89s0.45,0.46,0.78,0.61
					c0.33,0.15,0.71,0.22,1.13,0.22C437.01,233.86,437.39,233.79,437.71,233.64z M437.56,229.16c0.28-0.13,0.5-0.31,0.66-0.54
					c0.16-0.23,0.24-0.5,0.24-0.8v-0.01c0-0.3-0.08-0.57-0.24-0.8c-0.16-0.23-0.38-0.41-0.66-0.54s-0.61-0.2-0.99-0.2
					s-0.7,0.07-0.99,0.2s-0.5,0.31-0.66,0.54c-0.16,0.23-0.24,0.5-0.24,0.8v0.01c0,0.3,0.08,0.57,0.24,0.8
					c0.16,0.23,0.38,0.41,0.66,0.54s0.61,0.2,0.99,0.2S437.28,229.29,437.56,229.16z"/>
				<path class="st8" d="M441.43,225.43h1.16v9.29h-1.16V225.43z M442.49,229.98h0.13l3.94-4.56h1.46l-3.7,4.19h-0.06l-1.78,1.96
					V229.98z M443.52,230.29l0.82-0.82l4.03,5.25h-1.48L443.52,230.29z"/>
			</g>
		</g>
		<g>
			<g>
				<path class="st12" d="M345.97,349.94h-2.09v-0.74h5.01v0.74h-2.09v5.89h-0.83V349.94z"/>
				<path class="st12" d="M350.46,355.62c-0.33-0.2-0.59-0.49-0.78-0.86c-0.19-0.37-0.28-0.81-0.28-1.32v-0.01
					c0-0.51,0.09-0.95,0.28-1.32c0.19-0.37,0.44-0.66,0.78-0.86c0.33-0.2,0.72-0.3,1.16-0.3c0.44,0,0.83,0.1,1.16,0.3
					c0.33,0.2,0.59,0.49,0.78,0.86c0.19,0.37,0.28,0.81,0.28,1.32v0.01c0,0.51-0.09,0.95-0.28,1.32s-0.44,0.66-0.77,0.86
					c-0.33,0.2-0.72,0.3-1.16,0.3S350.79,355.83,350.46,355.62z M352.36,355.01c0.21-0.14,0.37-0.34,0.48-0.61
					c0.12-0.26,0.17-0.58,0.17-0.96v-0.01c0-0.37-0.06-0.69-0.17-0.96c-0.11-0.26-0.28-0.46-0.49-0.6
					c-0.21-0.14-0.46-0.21-0.74-0.21c-0.28,0-0.52,0.07-0.73,0.21s-0.37,0.34-0.49,0.6c-0.12,0.26-0.17,0.58-0.17,0.95v0.01
					c0,0.37,0.06,0.69,0.17,0.96c0.12,0.27,0.28,0.47,0.49,0.61s0.46,0.21,0.74,0.21S352.15,355.15,352.36,355.01z"/>
				<path class="st12" d="M355.46,355.62c-0.33-0.2-0.59-0.49-0.78-0.86c-0.19-0.37-0.28-0.81-0.28-1.32v-0.01
					c0-0.51,0.09-0.95,0.28-1.32c0.19-0.37,0.44-0.66,0.78-0.86c0.33-0.2,0.72-0.3,1.16-0.3c0.44,0,0.83,0.1,1.16,0.3
					c0.33,0.2,0.59,0.49,0.78,0.86c0.19,0.37,0.28,0.81,0.28,1.32v0.01c0,0.51-0.09,0.95-0.28,1.32s-0.44,0.66-0.77,0.86
					c-0.33,0.2-0.72,0.3-1.16,0.3S355.79,355.83,355.46,355.62z M357.36,355.01c0.21-0.14,0.37-0.34,0.48-0.61
					c0.12-0.26,0.17-0.58,0.17-0.96v-0.01c0-0.37-0.06-0.69-0.17-0.96c-0.11-0.26-0.28-0.46-0.49-0.6
					c-0.21-0.14-0.46-0.21-0.74-0.21c-0.28,0-0.52,0.07-0.73,0.21s-0.37,0.34-0.49,0.6c-0.12,0.26-0.17,0.58-0.17,0.95v0.01
					c0,0.37,0.06,0.69,0.17,0.96c0.12,0.27,0.28,0.47,0.49,0.61s0.46,0.21,0.74,0.21S357.15,355.15,357.36,355.01z"/>
				<path class="st12" d="M359.68,349.2h0.8v6.64h-0.8V349.2z"/>
				<path class="st12" d="M362.29,355.75c-0.27-0.12-0.49-0.29-0.65-0.5s-0.25-0.46-0.29-0.75l0-0.04h0.8l0.01,0.05
					c0.05,0.24,0.16,0.43,0.34,0.56c0.18,0.13,0.43,0.2,0.76,0.2c0.22,0,0.4-0.03,0.56-0.08s0.27-0.14,0.35-0.24
					c0.08-0.11,0.12-0.23,0.12-0.38v0c0-0.17-0.05-0.31-0.16-0.41c-0.1-0.1-0.29-0.19-0.57-0.26l-0.76-0.18
					c-0.45-0.11-0.79-0.27-1.01-0.49c-0.22-0.22-0.33-0.5-0.33-0.84v0c0-0.28,0.07-0.52,0.22-0.73c0.15-0.21,0.36-0.38,0.62-0.5
					c0.27-0.12,0.57-0.18,0.91-0.18c0.35,0,0.65,0.06,0.91,0.19c0.26,0.12,0.46,0.29,0.61,0.51c0.15,0.21,0.23,0.45,0.25,0.72
					l0,0.06h-0.76l0-0.03c-0.03-0.23-0.13-0.42-0.31-0.56c-0.17-0.14-0.41-0.21-0.71-0.21c-0.19,0-0.36,0.03-0.5,0.09
					c-0.14,0.06-0.25,0.14-0.32,0.25c-0.08,0.11-0.11,0.23-0.11,0.37v0c0,0.16,0.06,0.3,0.17,0.41s0.31,0.2,0.57,0.27l0.76,0.18
					c0.48,0.12,0.82,0.28,1.02,0.48s0.29,0.48,0.29,0.82v0c0,0.28-0.08,0.53-0.24,0.74c-0.16,0.21-0.38,0.38-0.66,0.5
					c-0.28,0.12-0.6,0.18-0.95,0.18C362.88,355.93,362.56,355.87,362.29,355.75z"/>
			</g>
		</g>
		<g>
			<g>
				<path class="st12" d="M471.09,355.72c-0.36-0.15-0.65-0.36-0.86-0.64c-0.21-0.28-0.33-0.6-0.36-0.98l0-0.06h0.83l0.01,0.06
					c0.03,0.22,0.12,0.41,0.27,0.57c0.15,0.16,0.34,0.29,0.59,0.37c0.24,0.09,0.53,0.13,0.84,0.13c0.32,0,0.59-0.04,0.83-0.14
					c0.23-0.09,0.41-0.22,0.54-0.39c0.13-0.17,0.19-0.37,0.19-0.59v0c0-0.29-0.1-0.52-0.3-0.7s-0.53-0.31-0.99-0.41l-0.74-0.16
					c-0.65-0.14-1.13-0.37-1.44-0.67s-0.47-0.69-0.47-1.17v0c0-0.36,0.1-0.69,0.3-0.96s0.47-0.5,0.83-0.65
					c0.35-0.16,0.75-0.24,1.21-0.24c0.43,0,0.82,0.08,1.16,0.23c0.34,0.16,0.61,0.37,0.82,0.65s0.32,0.59,0.34,0.96l0,0.07h-0.83
					l-0.01-0.06c-0.03-0.23-0.12-0.42-0.25-0.58s-0.3-0.28-0.52-0.37c-0.21-0.09-0.46-0.13-0.74-0.13c-0.29,0-0.55,0.04-0.77,0.13
					s-0.39,0.21-0.51,0.37c-0.12,0.16-0.18,0.35-0.18,0.56v0c0,0.27,0.1,0.49,0.31,0.67c0.21,0.17,0.52,0.31,0.96,0.41l0.74,0.16
					c0.68,0.15,1.17,0.37,1.48,0.66s0.46,0.69,0.46,1.2v0c0,0.39-0.1,0.73-0.3,1.02c-0.2,0.29-0.48,0.51-0.85,0.67
					s-0.8,0.23-1.31,0.23C471.88,355.94,471.46,355.87,471.09,355.72z"/>
				<path class="st12" d="M476.44,355.62c-0.33-0.2-0.58-0.49-0.76-0.86c-0.18-0.37-0.26-0.8-0.26-1.3v0c0-0.49,0.09-0.93,0.27-1.3
					c0.18-0.38,0.43-0.67,0.75-0.88c0.32-0.21,0.7-0.32,1.14-0.32s0.81,0.1,1.12,0.3c0.31,0.2,0.56,0.48,0.72,0.84
					c0.17,0.36,0.25,0.78,0.25,1.26v0.29h-3.85v-0.63h3.46l-0.4,0.58v-0.31c0-0.37-0.06-0.68-0.17-0.92
					c-0.11-0.24-0.27-0.42-0.46-0.54c-0.2-0.12-0.42-0.18-0.68-0.18c-0.25,0-0.48,0.06-0.68,0.19c-0.2,0.12-0.36,0.31-0.48,0.55
					c-0.12,0.24-0.17,0.54-0.17,0.9v0.31c0,0.34,0.06,0.63,0.17,0.87c0.12,0.24,0.28,0.42,0.49,0.55c0.21,0.13,0.46,0.19,0.75,0.19
					c0.2,0,0.38-0.03,0.54-0.09s0.29-0.15,0.4-0.25s0.18-0.23,0.23-0.37l0.01-0.04h0.79l-0.01,0.05c-0.04,0.2-0.12,0.38-0.23,0.55
					c-0.11,0.17-0.25,0.32-0.43,0.45c-0.17,0.13-0.37,0.23-0.6,0.3c-0.22,0.07-0.47,0.11-0.73,0.11
					C477.16,355.93,476.77,355.83,476.44,355.62z"/>
				<path class="st12" d="M481.04,355.61c-0.22-0.21-0.33-0.54-0.33-1v-2.9h-0.7v-0.66h0.7v-1.29h0.83v1.29h0.91v0.66h-0.91v2.9
					c0,0.25,0.06,0.43,0.17,0.52c0.11,0.09,0.27,0.14,0.49,0.14c0.05,0,0.1,0,0.14-0.01c0.04,0,0.08-0.01,0.12-0.01v0.65
					c-0.05,0.01-0.11,0.01-0.19,0.02c-0.08,0.01-0.16,0.01-0.24,0.01C481.59,355.93,481.26,355.82,481.04,355.61z"/>
				<path class="st12" d="M483.88,355.61c-0.22-0.21-0.33-0.54-0.33-1v-2.9h-0.7v-0.66h0.7v-1.29h0.83v1.29h0.91v0.66h-0.91v2.9
					c0,0.25,0.06,0.43,0.17,0.52c0.11,0.09,0.27,0.14,0.49,0.14c0.05,0,0.1,0,0.14-0.01c0.04,0,0.08-0.01,0.12-0.01v0.65
					c-0.05,0.01-0.11,0.01-0.19,0.02c-0.08,0.01-0.16,0.01-0.24,0.01C484.43,355.93,484.1,355.82,483.88,355.61z"/>
				<path class="st12" d="M486.25,350.09c-0.1-0.1-0.15-0.22-0.15-0.35c0-0.14,0.05-0.26,0.15-0.36s0.22-0.14,0.35-0.14
					c0.14,0,0.26,0.05,0.36,0.14s0.14,0.22,0.14,0.36c0,0.14-0.05,0.26-0.14,0.35c-0.1,0.1-0.22,0.15-0.36,0.15
					C486.46,350.24,486.34,350.19,486.25,350.09z M486.2,351.05h0.8v4.78h-0.8V351.05z"/>
				<path class="st12" d="M488.09,351.05h0.8v0.68h0.02c0.13-0.22,0.32-0.41,0.56-0.55s0.55-0.22,0.91-0.22
					c0.52,0,0.93,0.16,1.22,0.48c0.29,0.32,0.43,0.75,0.43,1.29v3.1h-0.8v-2.96c0-0.39-0.09-0.69-0.27-0.89s-0.46-0.31-0.83-0.31
					c-0.25,0-0.47,0.06-0.66,0.17c-0.19,0.11-0.33,0.27-0.43,0.47s-0.15,0.44-0.15,0.71v2.81h-0.8V351.05z"/>
				<path class="st12" d="M494.05,357.37c-0.29-0.11-0.53-0.26-0.71-0.46c-0.18-0.19-0.29-0.41-0.35-0.64l-0.01-0.04h0.8l0.02,0.04
					c0.08,0.17,0.22,0.31,0.44,0.41c0.22,0.1,0.49,0.15,0.82,0.15c0.42,0,0.75-0.11,0.97-0.32c0.23-0.22,0.34-0.51,0.34-0.88v-0.61
					h-0.02c-0.1,0.18-0.22,0.33-0.37,0.46s-0.32,0.23-0.52,0.3c-0.19,0.07-0.41,0.11-0.64,0.11c-0.4,0-0.75-0.1-1.06-0.31
					c-0.3-0.2-0.54-0.49-0.71-0.86c-0.17-0.37-0.25-0.8-0.25-1.3v0c0-0.5,0.09-0.93,0.26-1.29c0.17-0.37,0.41-0.65,0.72-0.85
					s0.66-0.3,1.07-0.3c0.23,0,0.43,0.04,0.62,0.12c0.19,0.08,0.36,0.18,0.51,0.32c0.15,0.13,0.27,0.29,0.37,0.47h0.02v-0.81h0.8
					v4.65c0,0.37-0.09,0.69-0.26,0.97s-0.42,0.49-0.73,0.64c-0.32,0.15-0.69,0.23-1.12,0.23
					C494.68,357.54,494.34,357.48,494.05,357.37z M495.74,354.95c0.2-0.15,0.36-0.35,0.48-0.61c0.12-0.26,0.17-0.57,0.17-0.92v0
					c0-0.35-0.06-0.66-0.17-0.92c-0.12-0.26-0.28-0.46-0.48-0.61c-0.21-0.14-0.44-0.22-0.71-0.22c-0.28,0-0.53,0.07-0.74,0.21
					c-0.21,0.14-0.37,0.34-0.48,0.61s-0.17,0.57-0.17,0.92v0c0,0.36,0.06,0.67,0.17,0.94c0.11,0.26,0.27,0.46,0.48,0.61
					c0.21,0.14,0.45,0.21,0.74,0.21C495.29,355.17,495.53,355.1,495.74,354.95z"/>
				<path class="st12" d="M498.95,355.75c-0.27-0.12-0.49-0.29-0.65-0.5c-0.16-0.21-0.25-0.46-0.29-0.75l0-0.04h0.8l0.01,0.05
					c0.05,0.24,0.16,0.43,0.35,0.56c0.18,0.13,0.43,0.2,0.76,0.2c0.22,0,0.4-0.03,0.56-0.08s0.27-0.14,0.35-0.24
					c0.08-0.11,0.12-0.23,0.12-0.38v0c0-0.17-0.05-0.31-0.16-0.41c-0.1-0.1-0.29-0.19-0.57-0.26l-0.76-0.18
					c-0.45-0.11-0.79-0.27-1.01-0.49c-0.22-0.22-0.33-0.5-0.33-0.84v0c0-0.28,0.07-0.52,0.22-0.73c0.15-0.21,0.36-0.38,0.62-0.5
					c0.26-0.12,0.57-0.18,0.91-0.18c0.35,0,0.65,0.06,0.91,0.19s0.46,0.29,0.61,0.51c0.15,0.21,0.23,0.45,0.25,0.72l0,0.06h-0.76
					l0-0.03c-0.03-0.23-0.13-0.42-0.31-0.56c-0.17-0.14-0.41-0.21-0.71-0.21c-0.19,0-0.36,0.03-0.5,0.09
					c-0.14,0.06-0.25,0.14-0.32,0.25c-0.08,0.11-0.11,0.23-0.11,0.37v0c0,0.16,0.06,0.3,0.17,0.41c0.12,0.11,0.31,0.2,0.57,0.27
					l0.76,0.18c0.48,0.12,0.82,0.28,1.02,0.48s0.29,0.48,0.29,0.82v0c0,0.28-0.08,0.53-0.24,0.74c-0.16,0.21-0.38,0.38-0.66,0.5
					s-0.6,0.18-0.95,0.18C499.54,355.93,499.22,355.87,498.95,355.75z"/>
			</g>
		</g>
		<g>
			<g>
				<path class="st12" d="M610.71,349.2h0.83v6.64h-0.83V349.2z"/>
				<path class="st12" d="M612.7,351.05h0.8v0.68h0.02c0.13-0.22,0.32-0.41,0.56-0.55s0.55-0.22,0.91-0.22
					c0.52,0,0.93,0.16,1.22,0.48c0.29,0.32,0.43,0.75,0.43,1.29v3.1h-0.8v-2.96c0-0.39-0.09-0.69-0.27-0.89s-0.46-0.31-0.83-0.31
					c-0.25,0-0.47,0.06-0.66,0.17c-0.19,0.11-0.33,0.27-0.43,0.47s-0.15,0.44-0.15,0.71v2.81h-0.8V351.05z"/>
				<path class="st12" d="M617.92,351.71h-0.67v-0.66h0.67v-0.59c0-0.46,0.11-0.8,0.32-1.02c0.22-0.22,0.54-0.33,0.99-0.33
					c0.09,0,0.18,0,0.27,0.01c0.09,0.01,0.16,0.01,0.22,0.02v0.65c-0.05-0.01-0.1-0.01-0.16-0.01s-0.12,0-0.18,0
					c-0.22,0-0.39,0.06-0.5,0.17s-0.17,0.29-0.17,0.53v0.58h0.98v0.66h-0.98v4.12h-0.8V351.71z"/>
				<path class="st12" d="M621.35,355.62c-0.33-0.2-0.59-0.49-0.78-0.86c-0.19-0.37-0.28-0.81-0.28-1.32v-0.01
					c0-0.51,0.09-0.95,0.28-1.32c0.19-0.37,0.44-0.66,0.78-0.86c0.33-0.2,0.72-0.3,1.16-0.3c0.44,0,0.83,0.1,1.16,0.3
					c0.33,0.2,0.59,0.49,0.78,0.86c0.19,0.37,0.28,0.81,0.28,1.32v0.01c0,0.51-0.09,0.95-0.28,1.32s-0.44,0.66-0.77,0.86
					c-0.33,0.2-0.72,0.3-1.16,0.3S621.68,355.83,621.35,355.62z M623.25,355.01c0.21-0.14,0.37-0.34,0.48-0.61
					c0.12-0.26,0.17-0.58,0.17-0.96v-0.01c0-0.37-0.06-0.69-0.17-0.96s-0.28-0.46-0.49-0.6c-0.21-0.14-0.46-0.21-0.74-0.21
					c-0.28,0-0.52,0.07-0.73,0.21s-0.37,0.34-0.49,0.6c-0.12,0.26-0.17,0.58-0.17,0.95v0.01c0,0.37,0.06,0.69,0.17,0.96
					c0.12,0.27,0.28,0.47,0.49,0.61s0.46,0.21,0.74,0.21C622.79,355.22,623.04,355.15,623.25,355.01z"/>
			</g>
		</g>
		<line class="st13" x1="223.63" y1="366.3" x2="223.63" y2="385.13"/>
		<g>
			<g>
				<path class="st8" d="M216.72,400.9c-0.39-0.21-0.7-0.49-0.91-0.86c-0.21-0.37-0.32-0.79-0.32-1.27v-4.31h0.83v4.25
					c0,0.51,0.16,0.92,0.48,1.25c0.32,0.32,0.76,0.48,1.34,0.48c0.58,0,1.02-0.16,1.33-0.48c0.31-0.32,0.47-0.74,0.47-1.25v-4.25
					h0.83v4.31c0,0.48-0.1,0.91-0.31,1.27s-0.51,0.65-0.9,0.86c-0.39,0.21-0.86,0.31-1.41,0.31S217.11,401.11,216.72,400.9z"/>
				<path class="st8" d="M222.96,400.99c-0.36-0.15-0.65-0.36-0.86-0.64c-0.21-0.28-0.33-0.6-0.36-0.98l0-0.06h0.83l0.01,0.06
					c0.03,0.22,0.12,0.41,0.27,0.57c0.15,0.16,0.34,0.29,0.59,0.37c0.24,0.09,0.52,0.13,0.84,0.13s0.59-0.04,0.83-0.14
					c0.23-0.09,0.41-0.22,0.54-0.39c0.13-0.17,0.19-0.37,0.19-0.59v0c0-0.29-0.1-0.52-0.3-0.7c-0.2-0.17-0.53-0.31-0.99-0.41
					l-0.74-0.16c-0.65-0.14-1.13-0.37-1.44-0.67c-0.31-0.3-0.47-0.69-0.47-1.17v0c0-0.36,0.1-0.69,0.3-0.96s0.47-0.5,0.83-0.65
					s0.75-0.24,1.21-0.24c0.43,0,0.82,0.08,1.16,0.23c0.34,0.16,0.61,0.37,0.82,0.65c0.2,0.28,0.32,0.59,0.34,0.96l0,0.07h-0.83
					l-0.01-0.06c-0.03-0.23-0.12-0.42-0.25-0.58c-0.13-0.16-0.3-0.28-0.52-0.37s-0.46-0.13-0.74-0.13c-0.29,0-0.55,0.04-0.77,0.13
					c-0.22,0.09-0.39,0.21-0.51,0.37c-0.12,0.16-0.18,0.35-0.18,0.56v0c0,0.27,0.1,0.49,0.31,0.67c0.21,0.17,0.52,0.31,0.96,0.41
					l0.74,0.16c0.68,0.15,1.17,0.37,1.48,0.66c0.3,0.29,0.46,0.69,0.46,1.2v0c0,0.39-0.1,0.73-0.3,1.02s-0.48,0.51-0.85,0.67
					c-0.37,0.16-0.8,0.23-1.31,0.23C223.74,401.21,223.32,401.14,222.96,400.99z"/>
				<path class="st8" d="M227.64,394.46h0.83v6.64h-0.83V394.46z M228.05,400.37h1.97c0.5,0,0.87-0.1,1.13-0.3
					c0.26-0.2,0.39-0.49,0.39-0.87v-0.01c0-0.26-0.06-0.47-0.18-0.64s-0.3-0.3-0.54-0.39c-0.24-0.08-0.53-0.13-0.89-0.13h-1.89
					v-0.71h1.66c0.49,0,0.87-0.1,1.12-0.29c0.26-0.19,0.39-0.46,0.39-0.82v-0.01c0-0.33-0.11-0.58-0.33-0.75
					c-0.22-0.17-0.53-0.26-0.93-0.26h-1.91v-0.73h2.1c0.38,0,0.71,0.07,1,0.21c0.29,0.14,0.51,0.33,0.67,0.58
					c0.16,0.25,0.24,0.54,0.24,0.87v0.01c0,0.23-0.05,0.45-0.16,0.66c-0.1,0.21-0.25,0.38-0.43,0.53c-0.18,0.14-0.39,0.23-0.62,0.26
					v0.02c0.32,0.04,0.59,0.13,0.82,0.28c0.23,0.15,0.41,0.34,0.53,0.57c0.12,0.23,0.18,0.49,0.18,0.79v0.01
					c0,0.39-0.09,0.72-0.27,1c-0.18,0.28-0.44,0.49-0.77,0.64c-0.33,0.15-0.74,0.22-1.21,0.22h-2.09V400.37z"/>
			</g>
		</g>
		<g>
			<g>
				<path class="st12" d="M214.43,349.2h0.83v6.64h-0.83V349.2z M214.84,352.73h1.74c0.48,0,0.84-0.12,1.1-0.37s0.39-0.59,0.39-1.02
					v-0.01c0-0.44-0.13-0.78-0.39-1.03s-0.63-0.37-1.1-0.37h-1.74v-0.74h1.95c0.42,0,0.78,0.09,1.1,0.27s0.57,0.43,0.75,0.75
					c0.18,0.32,0.27,0.69,0.27,1.11v0.01c0,0.42-0.09,0.79-0.27,1.11c-0.18,0.32-0.43,0.57-0.75,0.75s-0.69,0.27-1.1,0.27h-1.95
					V352.73z"/>
				<path class="st12" d="M219.74,351.05h0.8v0.81h0.02c0.08-0.28,0.22-0.5,0.41-0.66c0.2-0.16,0.43-0.24,0.7-0.24
					c0.07,0,0.13,0,0.19,0.01s0.1,0.01,0.13,0.02v0.78c-0.03-0.01-0.08-0.02-0.16-0.03s-0.17-0.01-0.26-0.01
					c-0.21,0-0.39,0.05-0.54,0.14s-0.27,0.22-0.36,0.4c-0.08,0.17-0.13,0.38-0.13,0.62v2.95h-0.8V351.05z"/>
				<path class="st12" d="M222.74,350.09c-0.1-0.1-0.15-0.22-0.15-0.35c0-0.14,0.05-0.26,0.15-0.36s0.22-0.14,0.35-0.14
					c0.14,0,0.26,0.05,0.36,0.14s0.15,0.22,0.15,0.36c0,0.14-0.05,0.26-0.15,0.35c-0.1,0.1-0.22,0.15-0.36,0.15
					C222.96,350.24,222.84,350.19,222.74,350.09z M222.7,351.05h0.8v4.78h-0.8V351.05z"/>
				<path class="st12" d="M224.59,351.05h0.8v0.68h0.02c0.13-0.22,0.32-0.41,0.56-0.55c0.25-0.15,0.55-0.22,0.91-0.22
					c0.52,0,0.93,0.16,1.22,0.48c0.29,0.32,0.43,0.75,0.43,1.29v3.1h-0.8v-2.96c0-0.39-0.09-0.69-0.27-0.89
					c-0.18-0.21-0.46-0.31-0.83-0.31c-0.25,0-0.47,0.06-0.66,0.17c-0.19,0.11-0.33,0.27-0.43,0.47c-0.1,0.2-0.15,0.44-0.15,0.71
					v2.81h-0.8V351.05z"/>
				<path class="st12" d="M230.12,355.61c-0.22-0.21-0.33-0.54-0.33-1v-2.9h-0.7v-0.66h0.7v-1.29h0.83v1.29h0.91v0.66h-0.91v2.9
					c0,0.25,0.06,0.43,0.17,0.52c0.11,0.09,0.27,0.14,0.49,0.14c0.05,0,0.1,0,0.14-0.01c0.04,0,0.08-0.01,0.12-0.01v0.65
					c-0.05,0.01-0.11,0.01-0.19,0.02c-0.08,0.01-0.16,0.01-0.24,0.01C230.66,355.93,230.34,355.82,230.12,355.61z"/>
			</g>
		</g>
		<path class="st2" d="M454.54,298.43h-67.19c-10.52,0-19.12-8.61-19.12-19.12l0,0c0-10.52,8.61-19.12,19.12-19.12h67.19
			c10.52,0,19.12,8.61,19.12,19.12l0,0C473.66,289.83,465.06,298.43,454.54,298.43z"/>
		<g>
			<g>
				<path class="st0" d="M394.2,276.57c-0.36-0.15-0.65-0.36-0.86-0.64c-0.21-0.28-0.33-0.6-0.36-0.98l0-0.06h0.83l0.01,0.06
					c0.03,0.22,0.12,0.41,0.27,0.57c0.15,0.16,0.34,0.29,0.59,0.37c0.24,0.09,0.52,0.13,0.84,0.13s0.59-0.04,0.83-0.14
					c0.23-0.09,0.41-0.22,0.54-0.39c0.13-0.17,0.19-0.37,0.19-0.59v0c0-0.29-0.1-0.52-0.3-0.7c-0.2-0.17-0.53-0.31-0.99-0.41
					l-0.74-0.16c-0.65-0.14-1.13-0.37-1.44-0.67c-0.31-0.3-0.47-0.69-0.47-1.17v0c0-0.36,0.1-0.69,0.3-0.96s0.47-0.5,0.83-0.65
					s0.75-0.24,1.21-0.24c0.43,0,0.82,0.08,1.16,0.23c0.34,0.16,0.61,0.37,0.82,0.65c0.2,0.28,0.32,0.59,0.34,0.96l0,0.07h-0.83
					l-0.01-0.06c-0.03-0.23-0.12-0.42-0.25-0.58c-0.13-0.16-0.3-0.28-0.52-0.37s-0.46-0.13-0.74-0.13c-0.29,0-0.55,0.04-0.77,0.13
					c-0.22,0.09-0.39,0.21-0.51,0.37c-0.12,0.16-0.18,0.35-0.18,0.56v0c0,0.27,0.1,0.49,0.31,0.67c0.21,0.17,0.52,0.31,0.96,0.41
					l0.74,0.16c0.68,0.15,1.17,0.37,1.48,0.66c0.3,0.29,0.46,0.69,0.46,1.2v0c0,0.39-0.1,0.73-0.3,1.02s-0.48,0.51-0.85,0.67
					c-0.37,0.16-0.8,0.23-1.31,0.23C394.99,276.79,394.57,276.71,394.2,276.57z"/>
				<path class="st0" d="M399.55,276.47c-0.33-0.2-0.58-0.49-0.76-0.86c-0.18-0.37-0.26-0.8-0.26-1.3v0c0-0.49,0.09-0.93,0.27-1.3
					c0.18-0.38,0.43-0.67,0.75-0.88c0.32-0.21,0.7-0.32,1.14-0.32c0.44,0,0.81,0.1,1.12,0.3c0.31,0.2,0.56,0.48,0.72,0.84
					c0.17,0.36,0.25,0.78,0.25,1.26v0.29h-3.85v-0.63h3.46l-0.4,0.58v-0.31c0-0.37-0.06-0.68-0.17-0.92
					c-0.11-0.24-0.27-0.42-0.46-0.54s-0.42-0.18-0.68-0.18c-0.25,0-0.48,0.06-0.69,0.19s-0.36,0.31-0.48,0.55
					c-0.12,0.24-0.17,0.54-0.17,0.9v0.31c0,0.34,0.06,0.63,0.17,0.87c0.11,0.24,0.28,0.42,0.49,0.55c0.21,0.13,0.46,0.19,0.75,0.19
					c0.2,0,0.38-0.03,0.54-0.09c0.16-0.06,0.29-0.15,0.4-0.25s0.18-0.23,0.23-0.37l0.01-0.04h0.79l-0.01,0.05
					c-0.04,0.2-0.12,0.38-0.23,0.55c-0.11,0.17-0.26,0.32-0.43,0.45c-0.17,0.13-0.37,0.23-0.6,0.3c-0.22,0.07-0.47,0.11-0.73,0.11
					C400.27,276.77,399.88,276.67,399.55,276.47z"/>
				<path class="st0" d="M404.15,276.46c-0.22-0.21-0.33-0.54-0.33-1v-2.9h-0.7v-0.66h0.7v-1.29h0.83v1.29h0.91v0.66h-0.91v2.9
					c0,0.25,0.06,0.43,0.17,0.52c0.11,0.09,0.27,0.14,0.49,0.14c0.05,0,0.1,0,0.14-0.01c0.04,0,0.08-0.01,0.12-0.01v0.65
					c-0.05,0.01-0.11,0.01-0.19,0.02c-0.08,0.01-0.16,0.01-0.24,0.01C404.7,276.77,404.37,276.66,404.15,276.46z"/>
				<path class="st0" d="M409.7,276.48c-0.39-0.21-0.7-0.49-0.91-0.86c-0.21-0.37-0.32-0.79-0.32-1.27v-4.31h0.83v4.25
					c0,0.51,0.16,0.92,0.48,1.25c0.32,0.32,0.76,0.48,1.34,0.48c0.58,0,1.02-0.16,1.33-0.48c0.31-0.32,0.47-0.74,0.47-1.25v-4.25
					h0.83v4.31c0,0.48-0.1,0.91-0.31,1.27s-0.51,0.65-0.9,0.86c-0.39,0.21-0.86,0.31-1.41,0.31S410.1,276.69,409.7,276.48z"/>
				<path class="st0" d="M414.91,271.89h0.8v0.81h0.02c0.1-0.19,0.23-0.35,0.37-0.48c0.15-0.13,0.32-0.24,0.51-0.31
					c0.19-0.07,0.4-0.11,0.63-0.11c0.41,0,0.76,0.1,1.07,0.31c0.3,0.2,0.54,0.49,0.71,0.87c0.17,0.37,0.25,0.81,0.25,1.31v0
					c0,0.5-0.08,0.94-0.26,1.31c-0.17,0.37-0.41,0.66-0.71,0.86c-0.3,0.2-0.65,0.31-1.06,0.31c-0.22,0-0.43-0.04-0.63-0.11
					c-0.2-0.07-0.37-0.17-0.52-0.31s-0.28-0.29-0.38-0.48h-0.02v2.41h-0.8V271.89z M417.82,275.85c0.21-0.14,0.36-0.35,0.47-0.61
					s0.17-0.58,0.17-0.94v0c0-0.37-0.06-0.68-0.17-0.95c-0.11-0.27-0.27-0.47-0.47-0.61s-0.45-0.21-0.73-0.21
					c-0.27,0-0.51,0.07-0.72,0.22c-0.21,0.15-0.37,0.35-0.49,0.62c-0.12,0.26-0.18,0.58-0.18,0.94v0c0,0.36,0.06,0.67,0.18,0.93
					c0.12,0.26,0.28,0.47,0.49,0.62s0.45,0.22,0.72,0.22C417.37,276.06,417.62,275.99,417.82,275.85z"/>
				<path class="st0" d="M422.14,270.04h0.83v6.64h-0.83V270.04z M422.55,273.57h1.74c0.47,0,0.84-0.12,1.1-0.37
					s0.39-0.59,0.39-1.02v-0.01c0-0.44-0.13-0.78-0.39-1.03s-0.63-0.37-1.1-0.37h-1.74v-0.74h1.95c0.42,0,0.79,0.09,1.1,0.27
					c0.32,0.18,0.57,0.43,0.75,0.75c0.18,0.32,0.27,0.69,0.27,1.11v0.01c0,0.42-0.09,0.79-0.27,1.11c-0.18,0.32-0.43,0.57-0.75,0.75
					c-0.32,0.18-0.69,0.27-1.1,0.27h-1.95V273.57z"/>
				<path class="st0" d="M427.46,271.89h0.8v0.81h0.02c0.08-0.28,0.22-0.5,0.41-0.66c0.2-0.16,0.43-0.24,0.7-0.24
					c0.07,0,0.13,0,0.19,0.01c0.06,0.01,0.1,0.01,0.13,0.02v0.78c-0.03-0.01-0.08-0.02-0.16-0.03c-0.08-0.01-0.17-0.01-0.26-0.01
					c-0.21,0-0.39,0.05-0.54,0.14c-0.15,0.09-0.27,0.22-0.36,0.4c-0.08,0.17-0.13,0.38-0.13,0.62v2.95h-0.8V271.89z"/>
				<path class="st0" d="M430.46,270.94c-0.1-0.1-0.15-0.22-0.15-0.35c0-0.14,0.05-0.26,0.15-0.36s0.22-0.14,0.35-0.14
					c0.14,0,0.26,0.05,0.36,0.14s0.14,0.22,0.14,0.36c0,0.14-0.05,0.26-0.14,0.35c-0.1,0.1-0.22,0.15-0.36,0.15
					C430.67,271.09,430.55,271.04,430.46,270.94z M430.41,271.89h0.8v4.78h-0.8V271.89z"/>
				<path class="st0" d="M432.3,271.89h0.8v0.68h0.02c0.13-0.22,0.32-0.41,0.56-0.55s0.55-0.22,0.91-0.22
					c0.52,0,0.93,0.16,1.22,0.48c0.29,0.32,0.43,0.75,0.43,1.29v3.1h-0.8v-2.96c0-0.39-0.09-0.69-0.27-0.89s-0.46-0.31-0.83-0.31
					c-0.25,0-0.47,0.06-0.66,0.17c-0.19,0.11-0.33,0.27-0.43,0.47s-0.15,0.44-0.15,0.71v2.81h-0.8V271.89z"/>
				<path class="st0" d="M437.83,276.46c-0.22-0.21-0.33-0.54-0.33-1v-2.9h-0.7v-0.66h0.7v-1.29h0.83v1.29h0.91v0.66h-0.91v2.9
					c0,0.25,0.06,0.43,0.17,0.52c0.11,0.09,0.27,0.14,0.49,0.14c0.05,0,0.1,0,0.14-0.01c0.04,0,0.08-0.01,0.12-0.01v0.65
					c-0.05,0.01-0.11,0.01-0.19,0.02c-0.08,0.01-0.16,0.01-0.24,0.01C438.38,276.77,438.05,276.66,437.83,276.46z"/>
				<path class="st0" d="M440.89,276.47c-0.33-0.2-0.58-0.49-0.76-0.86c-0.18-0.37-0.26-0.8-0.26-1.3v0c0-0.49,0.09-0.93,0.27-1.3
					c0.18-0.38,0.43-0.67,0.75-0.88c0.32-0.21,0.7-0.32,1.14-0.32s0.81,0.1,1.12,0.3c0.31,0.2,0.56,0.48,0.72,0.84
					c0.17,0.36,0.25,0.78,0.25,1.26v0.29h-3.85v-0.63h3.46l-0.4,0.58v-0.31c0-0.37-0.06-0.68-0.17-0.92
					c-0.11-0.24-0.27-0.42-0.46-0.54c-0.2-0.12-0.42-0.18-0.68-0.18c-0.25,0-0.48,0.06-0.68,0.19c-0.2,0.12-0.36,0.31-0.48,0.55
					c-0.12,0.24-0.17,0.54-0.17,0.9v0.31c0,0.34,0.06,0.63,0.17,0.87c0.12,0.24,0.28,0.42,0.49,0.55c0.21,0.13,0.46,0.19,0.75,0.19
					c0.2,0,0.38-0.03,0.54-0.09s0.29-0.15,0.4-0.25s0.18-0.23,0.23-0.37l0.01-0.04h0.79l-0.01,0.05c-0.04,0.2-0.12,0.38-0.23,0.55
					c-0.11,0.17-0.25,0.32-0.43,0.45c-0.17,0.13-0.37,0.23-0.6,0.3c-0.22,0.07-0.47,0.11-0.73,0.11
					C441.61,276.77,441.22,276.67,440.89,276.47z"/>
				<path class="st0" d="M444.92,271.89h0.8v0.81h0.02c0.08-0.28,0.22-0.5,0.41-0.66c0.2-0.16,0.43-0.24,0.7-0.24
					c0.07,0,0.13,0,0.19,0.01c0.06,0.01,0.1,0.01,0.13,0.02v0.78c-0.03-0.01-0.08-0.02-0.16-0.03c-0.08-0.01-0.17-0.01-0.26-0.01
					c-0.21,0-0.39,0.05-0.54,0.14c-0.15,0.09-0.27,0.22-0.36,0.4c-0.08,0.17-0.13,0.38-0.13,0.62v2.95h-0.8V271.89z"/>
				<path class="st0" d="M388.83,282.35h-2.09v-0.74h5.01v0.74h-2.09v5.89h-0.83V282.35z"/>
				<path class="st0" d="M393.32,288.03c-0.33-0.2-0.59-0.49-0.78-0.86c-0.19-0.37-0.28-0.81-0.28-1.32v-0.01
					c0-0.51,0.09-0.95,0.28-1.32c0.19-0.37,0.44-0.66,0.78-0.86c0.33-0.2,0.72-0.3,1.16-0.3c0.44,0,0.83,0.1,1.16,0.3
					c0.33,0.2,0.59,0.49,0.78,0.86c0.19,0.37,0.28,0.81,0.28,1.32v0.01c0,0.51-0.09,0.95-0.28,1.32s-0.44,0.66-0.77,0.86
					c-0.33,0.2-0.72,0.3-1.16,0.3S393.66,288.23,393.32,288.03z M395.22,287.41c0.21-0.14,0.37-0.34,0.48-0.61
					c0.12-0.26,0.17-0.58,0.17-0.96v-0.01c0-0.37-0.06-0.69-0.17-0.96c-0.11-0.26-0.28-0.46-0.49-0.6
					c-0.21-0.14-0.46-0.21-0.74-0.21c-0.28,0-0.52,0.07-0.73,0.21s-0.37,0.34-0.49,0.6c-0.12,0.26-0.17,0.58-0.17,0.95v0.01
					c0,0.37,0.06,0.69,0.17,0.96c0.12,0.27,0.28,0.47,0.49,0.61s0.46,0.21,0.74,0.21S395.02,287.55,395.22,287.41z"/>
				<path class="st0" d="M399.56,281.6h4.03v0.74h-3.2v2.28h2.94v0.74h-2.94v2.87h-0.83V281.6z"/>
				<path class="st0" d="M404.5,282.5c-0.1-0.1-0.15-0.22-0.15-0.35c0-0.14,0.05-0.26,0.15-0.36s0.22-0.14,0.35-0.14
					c0.14,0,0.26,0.05,0.36,0.14s0.15,0.22,0.15,0.36c0,0.14-0.05,0.26-0.15,0.35c-0.1,0.1-0.22,0.15-0.36,0.15
					C404.72,282.65,404.6,282.6,404.5,282.5z M404.46,283.45h0.8v4.78h-0.8V283.45z"/>
				<path class="st0" d="M406.35,283.45h0.8v0.81h0.02c0.08-0.28,0.22-0.5,0.41-0.66c0.2-0.16,0.43-0.24,0.7-0.24
					c0.07,0,0.13,0,0.19,0.01s0.1,0.01,0.13,0.02v0.78c-0.03-0.01-0.08-0.02-0.16-0.03s-0.17-0.01-0.26-0.01
					c-0.21,0-0.39,0.05-0.54,0.14s-0.27,0.22-0.36,0.4c-0.08,0.17-0.13,0.38-0.13,0.62v2.95h-0.8V283.45z"/>
				<path class="st0" d="M409.97,288.15c-0.27-0.12-0.49-0.29-0.65-0.5s-0.25-0.46-0.29-0.75l0-0.04h0.8l0.01,0.05
					c0.05,0.24,0.16,0.43,0.34,0.56c0.18,0.13,0.43,0.2,0.76,0.2c0.22,0,0.4-0.03,0.56-0.08s0.27-0.14,0.35-0.24
					c0.08-0.11,0.12-0.23,0.12-0.38v0c0-0.17-0.05-0.31-0.16-0.41c-0.1-0.1-0.29-0.19-0.57-0.26l-0.76-0.18
					c-0.45-0.11-0.79-0.27-1.01-0.49c-0.22-0.22-0.33-0.5-0.33-0.84v0c0-0.28,0.07-0.52,0.22-0.73c0.15-0.21,0.36-0.38,0.62-0.5
					c0.27-0.12,0.57-0.18,0.91-0.18c0.35,0,0.65,0.06,0.91,0.19c0.26,0.12,0.46,0.29,0.61,0.51c0.15,0.21,0.23,0.45,0.25,0.72
					l0,0.06h-0.76l0-0.03c-0.03-0.23-0.13-0.42-0.31-0.56c-0.17-0.14-0.41-0.21-0.71-0.21c-0.19,0-0.36,0.03-0.5,0.09
					c-0.14,0.06-0.25,0.14-0.32,0.25c-0.08,0.11-0.11,0.23-0.11,0.37v0c0,0.16,0.06,0.3,0.17,0.41s0.31,0.2,0.57,0.27l0.76,0.18
					c0.48,0.12,0.82,0.28,1.02,0.48s0.29,0.48,0.29,0.82v0c0,0.28-0.08,0.53-0.24,0.74c-0.16,0.21-0.38,0.38-0.66,0.5
					c-0.28,0.12-0.6,0.18-0.95,0.18C410.57,288.33,410.25,288.27,409.97,288.15z"/>
				<path class="st0" d="M414.2,288.02c-0.22-0.21-0.33-0.54-0.33-1v-2.9h-0.7v-0.66h0.7v-1.29h0.83v1.29h0.91v0.66h-0.91v2.9
					c0,0.25,0.06,0.43,0.17,0.52c0.11,0.09,0.27,0.14,0.49,0.14c0.05,0,0.1,0,0.14-0.01c0.04,0,0.08-0.01,0.12-0.01v0.65
					c-0.05,0.01-0.11,0.01-0.19,0.02c-0.08,0.01-0.16,0.01-0.24,0.01C414.75,288.33,414.42,288.22,414.2,288.02z"/>
				<path class="st0" d="M420.2,282.35h-2.09v-0.74h5.01v0.74h-2.09v5.89h-0.83V282.35z"/>
				<path class="st0" d="M423.97,282.5c-0.1-0.1-0.15-0.22-0.15-0.35c0-0.14,0.05-0.26,0.15-0.36s0.22-0.14,0.35-0.14
					c0.14,0,0.26,0.05,0.36,0.14s0.14,0.22,0.14,0.36c0,0.14-0.05,0.26-0.14,0.35c-0.1,0.1-0.22,0.15-0.36,0.15
					C424.18,282.65,424.07,282.6,423.97,282.5z M423.92,283.45h0.8v4.78h-0.8V283.45z"/>
				<path class="st0" d="M425.81,283.45h0.8v0.7h0.02c0.11-0.24,0.28-0.43,0.51-0.57c0.23-0.15,0.5-0.22,0.81-0.22
					c0.22,0,0.41,0.04,0.59,0.11c0.18,0.07,0.33,0.18,0.46,0.31s0.23,0.3,0.29,0.5h0.02c0.09-0.19,0.21-0.36,0.36-0.49
					c0.15-0.14,0.32-0.24,0.52-0.32c0.19-0.07,0.4-0.11,0.63-0.11c0.32,0,0.59,0.07,0.82,0.2c0.23,0.13,0.41,0.31,0.54,0.55
					c0.13,0.23,0.19,0.51,0.19,0.83v3.3h-0.8v-3.12c0-0.33-0.09-0.58-0.26-0.77c-0.17-0.19-0.42-0.28-0.73-0.28
					c-0.21,0-0.4,0.05-0.56,0.15s-0.29,0.23-0.38,0.4c-0.09,0.17-0.14,0.36-0.14,0.58v3.04h-0.8v-3.21c0-0.29-0.09-0.52-0.27-0.7
					s-0.42-0.26-0.71-0.26c-0.21,0-0.4,0.05-0.56,0.15s-0.29,0.24-0.39,0.42c-0.1,0.17-0.14,0.37-0.14,0.6v3h-0.8V283.45z"/>
				<path class="st0" d="M434.17,288.03c-0.33-0.2-0.58-0.49-0.76-0.86c-0.18-0.37-0.26-0.8-0.26-1.3v0c0-0.49,0.09-0.93,0.27-1.3
					c0.18-0.38,0.43-0.67,0.75-0.88c0.32-0.21,0.7-0.32,1.14-0.32s0.81,0.1,1.12,0.3c0.31,0.2,0.56,0.48,0.72,0.84
					c0.17,0.36,0.25,0.78,0.25,1.26v0.29h-3.85v-0.63H437l-0.4,0.58v-0.31c0-0.37-0.06-0.68-0.17-0.92
					c-0.11-0.24-0.27-0.42-0.46-0.54c-0.2-0.12-0.42-0.18-0.68-0.18c-0.25,0-0.48,0.06-0.68,0.19c-0.2,0.12-0.36,0.31-0.48,0.55
					c-0.12,0.24-0.17,0.54-0.17,0.9v0.31c0,0.34,0.06,0.63,0.17,0.87c0.12,0.24,0.28,0.42,0.49,0.55c0.21,0.13,0.46,0.19,0.75,0.19
					c0.2,0,0.38-0.03,0.54-0.09s0.29-0.15,0.4-0.25s0.18-0.23,0.23-0.37l0.01-0.04h0.79l-0.01,0.05c-0.04,0.2-0.12,0.38-0.23,0.55
					c-0.11,0.17-0.25,0.32-0.43,0.45c-0.17,0.13-0.37,0.23-0.6,0.3c-0.22,0.07-0.47,0.11-0.73,0.11
					C434.89,288.33,434.5,288.23,434.17,288.03z"/>
				<path class="st0" d="M441.48,288.04c-0.39-0.21-0.7-0.49-0.91-0.86c-0.21-0.37-0.32-0.79-0.32-1.27v-4.31h0.83v4.25
					c0,0.51,0.16,0.92,0.48,1.25c0.32,0.32,0.76,0.48,1.34,0.48c0.58,0,1.02-0.16,1.33-0.48c0.31-0.32,0.47-0.74,0.47-1.25v-4.25
					h0.83v4.31c0,0.48-0.1,0.91-0.31,1.27c-0.21,0.37-0.51,0.65-0.9,0.86c-0.39,0.21-0.86,0.31-1.41,0.31
					S441.88,288.25,441.48,288.04z"/>
				<path class="st0" d="M447.42,288.15c-0.27-0.12-0.49-0.29-0.65-0.5c-0.16-0.21-0.25-0.46-0.29-0.75l0-0.04h0.8l0.01,0.05
					c0.05,0.24,0.16,0.43,0.35,0.56c0.18,0.13,0.43,0.2,0.76,0.2c0.22,0,0.4-0.03,0.56-0.08s0.27-0.14,0.35-0.24
					c0.08-0.11,0.12-0.23,0.12-0.38v0c0-0.17-0.05-0.31-0.16-0.41c-0.1-0.1-0.29-0.19-0.57-0.26l-0.76-0.18
					c-0.45-0.11-0.79-0.27-1.01-0.49c-0.22-0.22-0.33-0.5-0.33-0.84v0c0-0.28,0.07-0.52,0.22-0.73c0.15-0.21,0.36-0.38,0.62-0.5
					c0.26-0.12,0.57-0.18,0.91-0.18c0.35,0,0.65,0.06,0.91,0.19s0.46,0.29,0.61,0.51c0.15,0.21,0.23,0.45,0.25,0.72l0,0.06h-0.76
					l0-0.03c-0.03-0.23-0.13-0.42-0.31-0.56c-0.17-0.14-0.41-0.21-0.71-0.21c-0.19,0-0.36,0.03-0.5,0.09
					c-0.14,0.06-0.25,0.14-0.32,0.25c-0.08,0.11-0.11,0.23-0.11,0.37v0c0,0.16,0.06,0.3,0.17,0.41c0.12,0.11,0.31,0.2,0.57,0.27
					l0.76,0.18c0.48,0.12,0.82,0.28,1.02,0.48s0.29,0.48,0.29,0.82v0c0,0.28-0.08,0.53-0.24,0.74c-0.16,0.21-0.38,0.38-0.66,0.5
					s-0.6,0.18-0.95,0.18C448.01,288.33,447.69,288.27,447.42,288.15z"/>
				<path class="st0" d="M451.86,288.03c-0.33-0.2-0.58-0.49-0.76-0.86c-0.18-0.37-0.26-0.8-0.26-1.3v0c0-0.49,0.09-0.93,0.27-1.3
					c0.18-0.38,0.43-0.67,0.75-0.88c0.32-0.21,0.7-0.32,1.14-0.32s0.81,0.1,1.12,0.3c0.31,0.2,0.56,0.48,0.72,0.84
					c0.17,0.36,0.25,0.78,0.25,1.26v0.29h-3.85v-0.63h3.46l-0.4,0.58v-0.31c0-0.37-0.06-0.68-0.17-0.92
					c-0.11-0.24-0.27-0.42-0.46-0.54c-0.2-0.12-0.42-0.18-0.68-0.18c-0.25,0-0.48,0.06-0.68,0.19c-0.2,0.12-0.36,0.31-0.48,0.55
					c-0.12,0.24-0.17,0.54-0.17,0.9v0.31c0,0.34,0.06,0.63,0.17,0.87c0.12,0.24,0.28,0.42,0.49,0.55c0.21,0.13,0.46,0.19,0.75,0.19
					c0.2,0,0.38-0.03,0.54-0.09s0.29-0.15,0.4-0.25s0.18-0.23,0.23-0.37l0.01-0.04h0.79l-0.01,0.05c-0.04,0.2-0.12,0.38-0.23,0.55
					c-0.11,0.17-0.25,0.32-0.43,0.45c-0.17,0.13-0.37,0.23-0.6,0.3c-0.22,0.07-0.47,0.11-0.73,0.11
					C452.59,288.33,452.19,288.23,451.86,288.03z"/>
			</g>
		</g>
	</g>
</g>
</svg>
