<?xml version="1.0" encoding="utf-8"?>
<!-- Generator: Adobe Illustrator 25.4.1, SVG Export Plug-In . SVG Version: 6.00 Build 0)  -->
<svg version="1.1" xmlns="http://www.w3.org/2000/svg" xmlns:xlink="http://www.w3.org/1999/xlink" x="0px" y="0px"
	 viewBox="0 0 841.89 592.66" style="enable-background:new 0 0 841.89 592.66;" xml:space="preserve">
<style type="text/css">
	.st0{fill:#181B21;}
	.st1{opacity:0.05;fill:#FFFFFF;stroke:#FFFFFF;stroke-width:0.25;stroke-miterlimit:10;}
	.st2{fill:#E47651;}
	.st3{fill:#7F7639;}
	.st4{fill:#FBD7C0;}
	.st5{fill:#372B26;}
	.st6{fill:#39637F;}
	.st7{fill:#FFFFFF;stroke:#FFFFFF;stroke-width:0.25;stroke-miterlimit:10;}
	.st8{fill:#FFFFFF;}
	.st9{fill:none;stroke:#FFFFFF;stroke-width:0.25;stroke-miterlimit:10;}
	.st10{fill:none;stroke:#E47651;stroke-width:1.5;stroke-miterlimit:10;}
	.st11{fill:#F47950;}
	.st12{fill:#171A20;}
	.st13{fill:none;stroke:#E47651;stroke-width:0.5;stroke-miterlimit:10;}
	.st14{fill:none;stroke:#E47651;stroke-width:0.75;stroke-miterlimit:10;}
	.st15{fill:none;stroke:#FFFFFF;}
	.st16{opacity:0.08;fill:#FFFFFF;}
	.st17{opacity:0.4;fill:#F47950;}
	.st18{fill:none;stroke:#F47950;stroke-width:0.3;stroke-miterlimit:10;}
	.st19{fill:none;stroke:#FFFFFF;stroke-width:0.75;stroke-miterlimit:10;}
	.st20{fill:#606161;}
	.st21{opacity:0.6;}
	.st22{fill:none;stroke:#FFFFFF;stroke-width:0.5;stroke-miterlimit:10;}
	.st23{fill:#C2584E;}
	.st24{fill:#62647A;}
	.st25{fill:#DA6A39;}
	.st26{fill:#898A8D;}
	.st27{fill:#B6C277;}
	.st28{fill:#75C2CD;}
	.st29{fill:#21458D;}
	.st30{fill:#555C66;}
	.st31{fill:none;stroke:#555C66;stroke-miterlimit:10;}
	.st32{fill:none;stroke:#E47651;stroke-miterlimit:10;}
	.st33{font-family:'Roboto-Medium';}
	.st34{font-size:36px;}
	.st35{letter-spacing:1;}
	.st36{fill:#353A42;}
	.st37{fill:#A8B3BF;}
	.st38{font-family:'Roboto-Regular';}
	.st39{font-size:12.4335px;}
	.st40{font-family:'NotoSans-Regular';}
	.st41{font-size:8.0105px;}
	.st42{font-family:'MicrosoftJhengHeiRegular';}
	.st43{font-family:'MalgunGothic-Semilight';}
	.st44{font-family:'ArialMT';}
	.st45{fill:none;stroke:#F47950;stroke-miterlimit:10;}
	.st46{fill:none;stroke:#F47950;stroke-width:1.5;stroke-miterlimit:10;}
	.st47{opacity:0.1;fill:#FFFFFF;}
</style>
<g id="Layer_2">
	<rect y="-0.65" class="st0" width="841.89" height="593.97"/>
	<rect x="-0.49" y="-593.97" class="st0" width="841.89" height="595.28"/>
</g>
<g id="Layer_1">
	<g>
		<g>
			<text transform="matrix(1 0 0 1 173.5672 110.2078)" class="st8 st33 st34 st35">Fonts &amp; Colors</text>
		</g>
		<g>
			<g>
				<g>
					<path class="st15" d="M79.63,123.42c-2.78-2.13-4.9-5.16-6.38-9.07s-2.21-8.55-2.21-13.92v-0.07c0-5.37,0.74-10.01,2.21-13.92
						s3.6-6.93,6.38-9.05s6.11-3.18,10-3.18c3.89,0,7.23,1.06,10.02,3.18c2.79,2.12,4.93,5.14,6.42,9.05
						c1.49,3.91,2.23,8.55,2.23,13.92v0.07c0,5.37-0.74,10.01-2.23,13.92c-1.49,3.91-3.63,6.94-6.42,9.07
						c-2.79,2.13-6.13,3.2-10.02,3.2C85.75,126.62,82.41,125.55,79.63,123.42z M96.26,118.59c1.84-1.68,3.25-4.06,4.22-7.15
						c0.97-3.09,1.46-6.76,1.46-11v-0.07c0-4.24-0.49-7.9-1.46-10.99c-0.97-3.08-2.38-5.46-4.22-7.12c-1.84-1.66-4.05-2.5-6.63-2.5
						c-2.58,0-4.78,0.83-6.61,2.5s-3.22,4.04-4.18,7.12c-0.96,3.08-1.44,6.74-1.44,10.99v0.07c0,4.24,0.48,7.91,1.44,11
						c0.96,3.09,2.36,5.48,4.18,7.15s4.03,2.51,6.61,2.51C92.21,121.1,94.42,120.26,96.26,118.59z"/>
					<path class="st15" d="M123.56,124.76c-2.77-1.24-4.94-2.96-6.52-5.15s-2.37-4.71-2.37-7.54v-0.07c0-2.09,0.46-4.02,1.37-5.8
						s2.19-3.3,3.83-4.55c1.64-1.25,3.54-2.13,5.7-2.62v-0.14c-2.77-0.87-4.97-2.3-6.61-4.29c-1.64-1.99-2.46-4.32-2.46-7v-0.07
						c0-2.55,0.71-4.83,2.14-6.84c1.43-2,3.4-3.59,5.91-4.75c2.51-1.16,5.36-1.74,8.54-1.74c3.21,0,6.06,0.58,8.56,1.74
						s4.46,2.74,5.89,4.75c1.43,2,2.14,4.28,2.14,6.84v0.07c0,2.67-0.81,5-2.44,7c-1.63,1.99-3.84,3.42-6.63,4.29v0.14
						c2.18,0.49,4.08,1.37,5.71,2.62c1.63,1.25,2.9,2.77,3.81,4.55s1.37,3.71,1.37,5.8v0.07c0,2.84-0.79,5.35-2.36,7.54
						c-1.57,2.19-3.74,3.91-6.52,5.15s-5.96,1.86-9.54,1.86S126.33,126,123.56,124.76z M139.29,119.89c1.79-0.81,3.2-1.92,4.24-3.34
						c1.03-1.42,1.55-3.04,1.55-4.87v-0.07c0-1.85-0.51-3.49-1.53-4.92s-2.43-2.55-4.24-3.38c-1.81-0.82-3.88-1.23-6.22-1.23
						c-2.34,0-4.42,0.41-6.22,1.23c-1.81,0.82-3.22,1.95-4.24,3.38s-1.53,3.07-1.53,4.92v0.07c0,1.83,0.51,3.45,1.55,4.87
						c1.03,1.42,2.45,2.53,4.25,3.34c1.8,0.81,3.87,1.21,6.19,1.21C135.43,121.1,137.5,120.7,139.29,119.89z M138.47,95.45
						c1.55-0.71,2.75-1.71,3.62-2.97c0.87-1.27,1.3-2.72,1.3-4.36v-0.07c0-1.64-0.43-3.09-1.3-4.36c-0.87-1.27-2.07-2.26-3.62-2.97
						s-3.34-1.07-5.38-1.07s-3.83,0.36-5.38,1.07s-2.75,1.71-3.62,2.97c-0.87,1.27-1.3,2.72-1.3,4.36v0.07
						c0,1.64,0.43,3.09,1.3,4.36c0.87,1.27,2.07,2.26,3.62,2.97s3.34,1.07,5.38,1.07S136.92,96.17,138.47,95.45z"/>
				</g>
			</g>
		</g>
		<line class="st9" x1="179.6" y1="198.78" x2="179.6" y2="533.03"/>
		<line class="st9" x1="306.57" y1="198.78" x2="306.57" y2="533.03"/>
		<line class="st9" x1="433.34" y1="198.78" x2="433.34" y2="319.56"/>
		<line class="st9" x1="560.41" y1="198.78" x2="560.41" y2="319.56"/>
		<line class="st9" x1="687.37" y1="198.78" x2="687.37" y2="533.03"/>
		<line class="st9" x1="132.83" y1="245.55" x2="734.05" y2="245.55"/>
		<line class="st9" x1="132.83" y1="319.56" x2="734.05" y2="319.56"/>
		<line class="st9" x1="132.83" y1="533.03" x2="734.05" y2="533.03"/>
		<line class="st9" x1="179.6" y1="460.48" x2="687.28" y2="460.48"/>
		<line class="st9" x1="179.6" y1="387.92" x2="687.28" y2="387.92"/>
		
			<ellipse transform="matrix(0.1585 -0.9874 0.9874 0.1585 -91.4669 383.7915)" class="st11" cx="179.41" cy="245.55" rx="35.09" ry="35.09"/>
		
			<ellipse transform="matrix(0.1585 -0.9874 0.9874 0.1585 122.2295 634.5156)" class="st30" cx="433.34" cy="245.55" rx="35.09" ry="35.09"/>
		
			<ellipse transform="matrix(0.2263 -0.974 0.974 0.2263 -2.1503 488.3998)" class="st36" cx="306.38" cy="245.55" rx="35.09" ry="35.09"/>
		
			<ellipse transform="matrix(0.1585 -0.9874 0.9874 0.1585 335.9261 885.2398)" class="st8" cx="687.28" cy="245.55" rx="35.09" ry="35.09"/>
		
			<ellipse transform="matrix(0.1585 -0.9874 0.9874 0.1585 229.0779 759.8777)" class="st37" cx="560.31" cy="245.55" rx="35.09" ry="35.09"/>
		<g>
			<g>
				<g>
					<path class="st8" d="M158.03,246.63l0.15-0.76h1.55v0.02h2.51v-0.02h1.75l-0.15,0.76H158.03z M162.63,243.88v-0.02h-2.5
						l-0.01,0.02h-1.62l0.15-0.76h5.82l-0.15,0.76H162.63z M158.87,248.67l1.41-7.51h0.76l-0.44,2.33h-0.02l-0.5,2.67h0.02
						l-0.46,2.51H158.87z M161.38,248.67l0.46-2.51h0.02l0.5-2.67h-0.02l0.44-2.33h0.76l-1.41,7.51H161.38z"/>
					<path class="st8" d="M165.2,241.16h4.56V242h-3.62v2.58h3.33v0.83h-3.33v3.25h-0.94V241.16z"/>
					<path class="st8" d="M170.83,241.16h4.56V242h-3.62v2.58h3.33v0.83h-3.33v3.25h-0.94V241.16z"/>
					<path class="st8" d="M180.16,242.01v-0.02h-4.04v-0.83h4.97v0.87l-3.34,6.64h-0.98L180.16,242.01z"/>
					<path class="st8" d="M183.6,248.31c-0.52-0.32-0.91-0.77-1.19-1.35c-0.28-0.58-0.42-1.27-0.42-2.05v-0.01
						c0-0.79,0.14-1.47,0.42-2.05c0.28-0.58,0.68-1.03,1.19-1.35c0.51-0.32,1.12-0.48,1.82-0.48c0.52,0,0.99,0.1,1.42,0.3
						c0.43,0.2,0.78,0.47,1.07,0.83s0.48,0.77,0.57,1.24l0.01,0.05h-0.95l-0.04-0.12c-0.1-0.3-0.24-0.56-0.43-0.78
						c-0.19-0.21-0.43-0.38-0.71-0.49c-0.28-0.11-0.59-0.17-0.95-0.17c-0.5,0-0.93,0.12-1.3,0.37c-0.37,0.25-0.66,0.6-0.86,1.05
						c-0.2,0.45-0.3,0.98-0.3,1.59v0.01c0,0.61,0.1,1.14,0.3,1.59c0.2,0.45,0.49,0.8,0.86,1.05c0.37,0.25,0.8,0.37,1.3,0.37
						c0.35,0,0.66-0.06,0.94-0.17c0.28-0.11,0.51-0.28,0.71-0.51s0.35-0.5,0.46-0.83l0.02-0.05h0.95l-0.01,0.05
						c-0.09,0.48-0.28,0.9-0.57,1.25c-0.28,0.36-0.64,0.63-1.07,0.82c-0.43,0.19-0.9,0.29-1.43,0.29
						C184.72,248.79,184.12,248.63,183.6,248.31z"/>
					<path class="st8" d="M190.65,248.53c-0.38-0.18-0.69-0.42-0.91-0.73s-0.35-0.66-0.39-1.06l-0.01-0.06h0.9l0.01,0.05
						c0.04,0.37,0.21,0.67,0.53,0.9c0.32,0.23,0.72,0.35,1.22,0.35c0.33,0,0.62-0.06,0.87-0.17s0.44-0.27,0.58-0.48
						s0.21-0.44,0.21-0.7v-0.01c0-0.46-0.15-0.82-0.46-1.06s-0.72-0.37-1.25-0.37H191v-0.79h0.9c0.3,0,0.56-0.06,0.79-0.17
						s0.41-0.27,0.54-0.46c0.13-0.2,0.19-0.42,0.19-0.67v-0.01c0-0.26-0.06-0.49-0.17-0.67c-0.11-0.18-0.27-0.32-0.49-0.42
						c-0.21-0.1-0.47-0.15-0.78-0.15c-0.29,0-0.56,0.05-0.79,0.15c-0.23,0.1-0.42,0.24-0.55,0.42c-0.14,0.18-0.22,0.4-0.25,0.66
						l-0.01,0.05h-0.9l0-0.05c0.04-0.41,0.17-0.77,0.39-1.07s0.5-0.54,0.86-0.71c0.36-0.17,0.77-0.25,1.24-0.25
						c0.48,0,0.9,0.08,1.25,0.25s0.63,0.39,0.83,0.68c0.2,0.29,0.29,0.62,0.29,1.01v0.01c0,0.31-0.07,0.58-0.2,0.82
						s-0.32,0.44-0.56,0.6c-0.24,0.16-0.52,0.27-0.83,0.34v0.02c0.55,0.04,0.99,0.23,1.33,0.55c0.34,0.32,0.51,0.75,0.51,1.29v0.01
						c0,0.42-0.11,0.79-0.34,1.12c-0.23,0.33-0.53,0.59-0.93,0.78c-0.39,0.19-0.84,0.28-1.34,0.28
						C191.48,248.79,191.03,248.7,190.65,248.53z"/>
					<path class="st8" d="M195.9,241.16h4.56V242h-3.62v2.58h3.33v0.83h-3.33v3.25h-0.94V241.16z"/>
				</g>
			</g>
		</g>
		<g>
			<g>
				<g>
					<path class="st8" d="M285.61,246.63l0.15-0.76h1.55v0.02h2.51v-0.02h1.75l-0.15,0.76H285.61z M290.2,243.88v-0.02h-2.5
						l-0.01,0.02h-1.62l0.15-0.76h5.82l-0.15,0.76H290.2z M286.45,248.67l1.41-7.51h0.76l-0.44,2.33h-0.02l-0.5,2.67h0.02
						l-0.46,2.51H286.45z M288.96,248.67l0.46-2.51h0.02l0.5-2.67h-0.02l0.44-2.33h0.76l-1.41,7.51H288.96z"/>
					<path class="st8" d="M293.84,248.53c-0.38-0.18-0.69-0.42-0.91-0.73s-0.35-0.66-0.39-1.06l-0.01-0.06h0.9l0.01,0.05
						c0.04,0.37,0.21,0.67,0.53,0.9c0.32,0.23,0.72,0.35,1.22,0.35c0.33,0,0.62-0.06,0.87-0.17s0.44-0.27,0.58-0.48
						s0.21-0.44,0.21-0.7v-0.01c0-0.46-0.15-0.82-0.46-1.06s-0.72-0.37-1.25-0.37h-0.94v-0.79h0.9c0.3,0,0.56-0.06,0.79-0.17
						s0.41-0.27,0.54-0.46c0.13-0.2,0.19-0.42,0.19-0.67v-0.01c0-0.26-0.06-0.49-0.17-0.67c-0.11-0.18-0.27-0.32-0.49-0.42
						c-0.21-0.1-0.47-0.15-0.78-0.15c-0.29,0-0.56,0.05-0.79,0.15c-0.23,0.1-0.42,0.24-0.55,0.42c-0.14,0.18-0.22,0.4-0.25,0.66
						l-0.01,0.05h-0.9l0-0.05c0.04-0.41,0.17-0.77,0.39-1.07s0.5-0.54,0.86-0.71c0.36-0.17,0.77-0.25,1.24-0.25
						c0.48,0,0.9,0.08,1.25,0.25s0.63,0.39,0.83,0.68c0.2,0.29,0.29,0.62,0.29,1.01v0.01c0,0.31-0.07,0.58-0.2,0.82
						s-0.32,0.44-0.56,0.6c-0.24,0.16-0.52,0.27-0.83,0.34v0.02c0.55,0.04,0.99,0.23,1.33,0.55c0.34,0.32,0.51,0.75,0.51,1.29v0.01
						c0,0.42-0.11,0.79-0.34,1.12c-0.23,0.33-0.53,0.59-0.93,0.78c-0.39,0.19-0.84,0.28-1.34,0.28
						C294.67,248.79,294.22,248.7,293.84,248.53z"/>
					<path class="st8" d="M300.88,242.15h-0.02l-1.99,1.38v-0.94l2-1.44h0.92v7.51h-0.91V242.15z"/>
					<path class="st8" d="M304.87,248.53c-0.38-0.18-0.69-0.42-0.91-0.73s-0.35-0.66-0.39-1.06l-0.01-0.06h0.9l0.01,0.05
						c0.04,0.37,0.21,0.67,0.53,0.9c0.32,0.23,0.72,0.35,1.22,0.35c0.33,0,0.62-0.06,0.87-0.17s0.44-0.27,0.58-0.48
						s0.21-0.44,0.21-0.7v-0.01c0-0.46-0.15-0.82-0.46-1.06s-0.72-0.37-1.25-0.37h-0.94v-0.79h0.9c0.3,0,0.56-0.06,0.79-0.17
						s0.41-0.27,0.54-0.46c0.13-0.2,0.19-0.42,0.19-0.67v-0.01c0-0.26-0.06-0.49-0.17-0.67c-0.11-0.18-0.27-0.32-0.49-0.42
						c-0.21-0.1-0.47-0.15-0.78-0.15c-0.29,0-0.56,0.05-0.79,0.15c-0.23,0.1-0.42,0.24-0.55,0.42c-0.14,0.18-0.22,0.4-0.25,0.66
						l-0.01,0.05h-0.9l0-0.05c0.04-0.41,0.17-0.77,0.39-1.07s0.5-0.54,0.86-0.71c0.36-0.17,0.77-0.25,1.24-0.25
						c0.48,0,0.9,0.08,1.25,0.25s0.63,0.39,0.83,0.68c0.2,0.29,0.29,0.62,0.29,1.01v0.01c0,0.31-0.07,0.58-0.2,0.82
						s-0.32,0.44-0.56,0.6c-0.24,0.16-0.52,0.27-0.83,0.34v0.02c0.55,0.04,0.99,0.23,1.33,0.55c0.34,0.32,0.51,0.75,0.51,1.29v0.01
						c0,0.42-0.11,0.79-0.34,1.12c-0.23,0.33-0.53,0.59-0.93,0.78c-0.39,0.19-0.84,0.28-1.34,0.28
						C305.7,248.79,305.25,248.7,304.87,248.53z"/>
					<path class="st8" d="M313.83,242.01v-0.02h-4.04v-0.83h4.97v0.87l-3.34,6.64h-0.98L313.83,242.01z"/>
					<path class="st8" d="M317,248.53c-0.38-0.18-0.69-0.42-0.91-0.73s-0.35-0.66-0.39-1.06l-0.01-0.06h0.9l0.01,0.05
						c0.04,0.37,0.21,0.67,0.53,0.9c0.32,0.23,0.72,0.35,1.22,0.35c0.33,0,0.62-0.06,0.87-0.17s0.44-0.27,0.58-0.48
						s0.21-0.44,0.21-0.7v-0.01c0-0.46-0.15-0.82-0.46-1.06s-0.72-0.37-1.25-0.37h-0.94v-0.79h0.9c0.3,0,0.56-0.06,0.79-0.17
						s0.41-0.27,0.54-0.46c0.13-0.2,0.19-0.42,0.19-0.67v-0.01c0-0.26-0.06-0.49-0.17-0.67c-0.11-0.18-0.27-0.32-0.49-0.42
						c-0.21-0.1-0.47-0.15-0.78-0.15c-0.29,0-0.56,0.05-0.79,0.15c-0.23,0.1-0.42,0.24-0.55,0.42c-0.14,0.18-0.22,0.4-0.25,0.66
						l-0.01,0.05h-0.9l0-0.05c0.04-0.41,0.17-0.77,0.39-1.07s0.5-0.54,0.86-0.71c0.36-0.17,0.77-0.25,1.24-0.25
						c0.48,0,0.9,0.08,1.25,0.25s0.63,0.39,0.83,0.68c0.2,0.29,0.29,0.62,0.29,1.01v0.01c0,0.31-0.07,0.58-0.2,0.82
						s-0.32,0.44-0.56,0.6c-0.24,0.16-0.52,0.27-0.83,0.34v0.02c0.55,0.04,0.99,0.23,1.33,0.55c0.34,0.32,0.51,0.75,0.51,1.29v0.01
						c0,0.42-0.11,0.79-0.34,1.12c-0.23,0.33-0.53,0.59-0.93,0.78c-0.39,0.19-0.84,0.28-1.34,0.28
						C317.84,248.79,317.39,248.7,317,248.53z"/>
					<path class="st8" d="M322.25,241.16h4.56V242h-3.62v2.58h3.33v0.83h-3.33v3.25h-0.94V241.16z"/>
				</g>
			</g>
		</g>
		<g>
			<g>
				<g>
					<path class="st8" d="M412.68,246.63l0.15-0.76h1.55v0.02h2.51v-0.02h1.75l-0.15,0.76H412.68z M417.28,243.88v-0.02h-2.5
						l-0.01,0.02h-1.62l0.15-0.76h5.82l-0.15,0.76H417.28z M413.52,248.67l1.41-7.51h0.76l-0.44,2.33h-0.02l-0.5,2.67h0.02
						l-0.46,2.51H413.52z M416.03,248.67l0.46-2.51h0.02l0.5-2.67h-0.02l0.44-2.33h0.76l-1.41,7.51H416.03z"/>
					<path class="st8" d="M421.04,248.52c-0.37-0.18-0.67-0.43-0.9-0.75s-0.36-0.68-0.4-1.09l0-0.06h0.92l0.01,0.04
						c0.03,0.25,0.12,0.47,0.27,0.67c0.15,0.2,0.34,0.36,0.58,0.47c0.24,0.11,0.51,0.17,0.81,0.17c0.34,0,0.64-0.07,0.9-0.22
						c0.26-0.15,0.46-0.35,0.61-0.61c0.15-0.26,0.22-0.56,0.22-0.89v-0.01c0-0.33-0.07-0.62-0.22-0.88
						c-0.15-0.25-0.35-0.46-0.61-0.6c-0.26-0.15-0.55-0.22-0.88-0.22c-0.25,0-0.49,0.04-0.71,0.11c-0.22,0.08-0.41,0.19-0.57,0.34
						c-0.07,0.06-0.13,0.13-0.19,0.2c-0.06,0.07-0.12,0.15-0.16,0.24h-0.83l0.39-4.28h4.3v0.83h-3.53l-0.25,2.52h0.02
						c0.18-0.25,0.41-0.45,0.71-0.58s0.63-0.2,0.99-0.2c0.48,0,0.91,0.11,1.28,0.32s0.67,0.51,0.88,0.88
						c0.21,0.37,0.32,0.8,0.32,1.28v0.01c0,0.5-0.11,0.94-0.34,1.33c-0.23,0.39-0.54,0.69-0.95,0.9c-0.4,0.22-0.86,0.33-1.38,0.33
						C421.83,248.79,421.41,248.7,421.04,248.52z"/>
					<path class="st8" d="M427.88,242.15h-0.02l-1.99,1.38v-0.94l2-1.44h0.92v7.51h-0.91V242.15z"/>
					<path class="st8" d="M431.99,248.52c-0.37-0.18-0.67-0.43-0.9-0.75s-0.36-0.68-0.4-1.09l0-0.06h0.92l0,0.04
						c0.03,0.25,0.12,0.47,0.27,0.67s0.34,0.36,0.58,0.47s0.51,0.17,0.81,0.17c0.34,0,0.64-0.07,0.9-0.22
						c0.26-0.15,0.46-0.35,0.61-0.61c0.15-0.26,0.22-0.56,0.22-0.89v-0.01c0-0.33-0.07-0.62-0.22-0.88
						c-0.15-0.25-0.35-0.46-0.61-0.6c-0.26-0.15-0.55-0.22-0.88-0.22c-0.25,0-0.49,0.04-0.71,0.11c-0.22,0.08-0.41,0.19-0.58,0.34
						c-0.07,0.06-0.13,0.13-0.19,0.2c-0.06,0.07-0.12,0.15-0.16,0.24h-0.83l0.39-4.28h4.3v0.83h-3.53l-0.25,2.52h0.02
						c0.18-0.25,0.41-0.45,0.71-0.58c0.3-0.13,0.63-0.2,0.99-0.2c0.48,0,0.91,0.11,1.28,0.32s0.67,0.51,0.88,0.88
						c0.21,0.37,0.32,0.8,0.32,1.28v0.01c0,0.5-0.11,0.94-0.34,1.33c-0.23,0.39-0.54,0.69-0.95,0.9c-0.4,0.22-0.86,0.33-1.38,0.33
						C432.79,248.79,432.37,248.7,431.99,248.52z"/>
					<path class="st8" d="M438.1,248.52c-0.41-0.18-0.73-0.44-0.96-0.76s-0.35-0.7-0.35-1.12v-0.01c0-0.31,0.07-0.59,0.2-0.86
						s0.32-0.49,0.57-0.67c0.24-0.19,0.53-0.31,0.84-0.39v-0.02c-0.41-0.13-0.74-0.34-0.98-0.64c-0.24-0.29-0.36-0.64-0.36-1.04V243
						c0-0.38,0.11-0.71,0.32-1.01s0.5-0.53,0.88-0.7c0.37-0.17,0.79-0.26,1.26-0.26c0.47,0,0.9,0.09,1.27,0.26
						c0.37,0.17,0.66,0.41,0.87,0.7c0.21,0.3,0.32,0.63,0.32,1.01v0.01c0,0.4-0.12,0.74-0.36,1.04c-0.24,0.29-0.57,0.51-0.98,0.64
						v0.02c0.32,0.07,0.61,0.2,0.85,0.39c0.24,0.19,0.43,0.41,0.56,0.67c0.14,0.26,0.2,0.55,0.2,0.86v0.01
						c0,0.42-0.12,0.79-0.35,1.12s-0.55,0.58-0.96,0.76c-0.41,0.18-0.88,0.28-1.41,0.28S438.51,248.7,438.1,248.52z M440.43,247.79
						c0.27-0.12,0.47-0.28,0.63-0.49c0.15-0.21,0.23-0.45,0.23-0.72v-0.01c0-0.27-0.08-0.52-0.23-0.73
						c-0.15-0.21-0.36-0.38-0.63-0.5c-0.27-0.12-0.57-0.18-0.92-0.18c-0.35,0-0.65,0.06-0.92,0.18c-0.27,0.12-0.48,0.29-0.63,0.5
						c-0.15,0.21-0.23,0.45-0.23,0.73v0.01c0,0.27,0.08,0.51,0.23,0.72s0.36,0.38,0.63,0.49c0.27,0.12,0.57,0.18,0.92,0.18
						C439.86,247.97,440.17,247.91,440.43,247.79z M440.31,244.18c0.23-0.11,0.41-0.25,0.54-0.44s0.19-0.4,0.19-0.65v-0.01
						c0-0.24-0.06-0.46-0.19-0.64c-0.13-0.19-0.31-0.33-0.54-0.44c-0.23-0.11-0.49-0.16-0.8-0.16c-0.3,0-0.57,0.05-0.79,0.16
						c-0.23,0.11-0.41,0.25-0.54,0.44c-0.13,0.19-0.19,0.4-0.19,0.64v0.01c0,0.24,0.06,0.46,0.19,0.65s0.31,0.33,0.54,0.44
						c0.23,0.11,0.49,0.16,0.79,0.16C439.81,244.34,440.08,244.28,440.31,244.18z"/>
					<path class="st8" d="M445.01,248.6c-0.34-0.13-0.64-0.34-0.92-0.63c-0.28-0.29-0.5-0.68-0.66-1.15
						c-0.17-0.48-0.25-1.06-0.25-1.76v-0.01c0-0.84,0.12-1.56,0.35-2.16s0.56-1.06,1-1.37c0.44-0.32,0.96-0.47,1.57-0.47
						c0.43,0,0.81,0.08,1.15,0.23c0.34,0.15,0.63,0.36,0.86,0.64c0.23,0.27,0.38,0.59,0.47,0.96l0.02,0.07h-0.95l-0.02-0.06
						c-0.07-0.21-0.18-0.39-0.32-0.54c-0.14-0.15-0.32-0.26-0.52-0.35c-0.2-0.08-0.43-0.12-0.69-0.12c-0.46,0-0.84,0.14-1.13,0.41
						s-0.5,0.63-0.64,1.07c-0.14,0.44-0.21,0.93-0.23,1.46c0,0.04,0,0.07,0,0.1c0,0.03,0,0.07,0,0.1l0.22,1.23
						c0,0.32,0.08,0.61,0.23,0.87s0.36,0.47,0.62,0.62c0.26,0.15,0.55,0.23,0.87,0.23s0.61-0.08,0.87-0.23
						c0.26-0.15,0.47-0.36,0.62-0.61c0.15-0.26,0.23-0.54,0.23-0.86v-0.01c0-0.33-0.07-0.62-0.22-0.87c-0.15-0.25-0.35-0.45-0.6-0.6
						c-0.26-0.14-0.55-0.22-0.88-0.22c-0.33,0-0.62,0.07-0.88,0.21s-0.47,0.34-0.62,0.59s-0.23,0.53-0.23,0.85v0H444v-1.27h0.11
						c0.1-0.22,0.25-0.42,0.45-0.61c0.2-0.18,0.44-0.33,0.72-0.44s0.59-0.16,0.93-0.16c0.48,0,0.91,0.11,1.28,0.32
						c0.38,0.21,0.67,0.51,0.89,0.88c0.22,0.37,0.33,0.8,0.33,1.27v0.01c0,0.49-0.12,0.93-0.35,1.31c-0.23,0.38-0.55,0.69-0.95,0.91
						c-0.4,0.22-0.85,0.33-1.37,0.33C445.68,248.79,445.34,248.73,445.01,248.6z"/>
					<path class="st8" d="M451.81,242.15h-0.02l-1.99,1.38v-0.94l2-1.44h0.92v7.51h-0.91V242.15z"/>
				</g>
			</g>
		</g>
		<g>
			<g>
				<path class="st0" d="M537.47,246.63l0.15-0.76h1.54v0.02h2.51v-0.02h1.75l-0.15,0.76H537.47z M542.07,243.88v-0.02h-2.5l0,0.02
					h-1.62l0.15-0.76h5.82l-0.15,0.76H542.07z M538.32,248.67l1.41-7.51h0.76l-0.44,2.33h-0.02l-0.5,2.67h0.02l-0.46,2.51H538.32z
					 M540.83,248.67l0.46-2.51h0.02l0.5-2.67h-0.02l0.44-2.33h0.76l-1.4,7.51H540.83z"/>
				<path class="st0" d="M544.65,241.16h0.94v7.51h-0.94V241.16z M545.11,247.84h2.23c0.56,0,0.99-0.11,1.28-0.34
					s0.44-0.55,0.44-0.98v-0.01c0-0.29-0.07-0.53-0.2-0.73c-0.13-0.19-0.34-0.34-0.61-0.44c-0.27-0.1-0.6-0.15-1-0.15h-2.14v-0.81
					h1.87c0.55,0,0.98-0.11,1.27-0.32s0.44-0.53,0.44-0.93v-0.01c0-0.37-0.12-0.65-0.37-0.85c-0.25-0.2-0.6-0.29-1.05-0.29h-2.16
					v-0.83h2.38c0.43,0,0.81,0.08,1.13,0.23c0.32,0.16,0.57,0.37,0.75,0.66c0.18,0.28,0.27,0.61,0.27,0.98v0.01
					c0,0.26-0.06,0.51-0.18,0.74c-0.12,0.24-0.28,0.43-0.48,0.6s-0.44,0.26-0.7,0.3v0.02c0.36,0.04,0.67,0.15,0.93,0.31
					c0.26,0.17,0.46,0.38,0.6,0.64c0.14,0.26,0.21,0.56,0.21,0.89v0.01c0,0.44-0.1,0.82-0.3,1.13c-0.2,0.31-0.49,0.55-0.87,0.72
					c-0.38,0.17-0.83,0.25-1.37,0.25h-2.37V247.84z"/>
				<path class="st0" d="M550.97,248.02l2.64-2.76c0.34-0.35,0.6-0.65,0.78-0.88s0.3-0.44,0.37-0.62c0.07-0.18,0.1-0.38,0.1-0.59
					v-0.01c0-0.26-0.06-0.48-0.18-0.68c-0.12-0.2-0.28-0.35-0.49-0.47c-0.21-0.11-0.45-0.17-0.73-0.17c-0.31,0-0.59,0.07-0.84,0.2
					c-0.25,0.13-0.44,0.3-0.58,0.52s-0.21,0.46-0.21,0.73v0.03h-0.91v-0.03c0-0.43,0.11-0.82,0.34-1.16s0.53-0.61,0.91-0.81
					s0.81-0.29,1.27-0.29c0.45,0,0.86,0.09,1.21,0.28c0.35,0.18,0.63,0.43,0.84,0.75c0.2,0.32,0.3,0.67,0.3,1.06v0.01
					c0,0.27-0.05,0.54-0.15,0.8s-0.28,0.54-0.53,0.87c-0.25,0.32-0.61,0.72-1.07,1.19l-2.06,2.11l0.28-0.58v0.58l-0.28-0.26h3.94
					v0.83h-4.95V248.02z"/>
				<path class="st0" d="M557.12,241.16h0.94v7.51h-0.94V241.16z M557.59,247.84h2.23c0.56,0,0.99-0.11,1.28-0.34
					s0.44-0.55,0.44-0.98v-0.01c0-0.29-0.07-0.53-0.2-0.73c-0.13-0.19-0.34-0.34-0.61-0.44c-0.27-0.1-0.6-0.15-1-0.15h-2.14v-0.81
					h1.87c0.55,0,0.98-0.11,1.27-0.32s0.44-0.53,0.44-0.93v-0.01c0-0.37-0.12-0.65-0.37-0.85c-0.25-0.2-0.6-0.29-1.05-0.29h-2.16
					v-0.83h2.38c0.43,0,0.81,0.08,1.13,0.23c0.32,0.16,0.57,0.37,0.75,0.66c0.18,0.28,0.27,0.61,0.27,0.98v0.01
					c0,0.26-0.06,0.51-0.18,0.74c-0.12,0.24-0.28,0.43-0.48,0.6s-0.44,0.26-0.7,0.3v0.02c0.36,0.04,0.67,0.15,0.93,0.31
					c0.26,0.17,0.46,0.38,0.6,0.64c0.14,0.26,0.21,0.56,0.21,0.89v0.01c0,0.44-0.1,0.82-0.3,1.13c-0.2,0.31-0.49,0.55-0.87,0.72
					c-0.38,0.17-0.83,0.25-1.37,0.25h-2.37V247.84z"/>
				<path class="st0" d="M565.76,241.16h0.69v1.12h-0.24l-2.26,6.38h-0.98L565.76,241.16z M564.55,245.72h3.33l0.31,0.8h-3.96
					L564.55,245.72z M566.23,242.28v-1.12h0.45l2.79,7.51h-0.98L566.23,242.28z"/>
				<path class="st0" d="M571.66,248.31c-0.51-0.32-0.91-0.77-1.19-1.35s-0.42-1.27-0.42-2.05v-0.01c0-0.79,0.14-1.47,0.42-2.05
					s0.68-1.03,1.19-1.35c0.51-0.32,1.12-0.48,1.82-0.48c0.52,0,0.99,0.1,1.42,0.3c0.43,0.2,0.78,0.47,1.07,0.83
					s0.48,0.77,0.57,1.24l0.01,0.05h-0.95l-0.04-0.12c-0.1-0.3-0.24-0.56-0.43-0.78c-0.19-0.21-0.43-0.38-0.71-0.49
					c-0.28-0.11-0.59-0.17-0.95-0.17c-0.5,0-0.93,0.12-1.3,0.37c-0.37,0.25-0.66,0.6-0.86,1.05c-0.2,0.45-0.3,0.98-0.3,1.59v0.01
					c0,0.61,0.1,1.14,0.3,1.59c0.2,0.45,0.49,0.8,0.86,1.05c0.37,0.25,0.8,0.37,1.3,0.37c0.35,0,0.66-0.06,0.94-0.17
					c0.28-0.11,0.51-0.28,0.71-0.51c0.2-0.22,0.35-0.5,0.46-0.83l0.02-0.05h0.95l-0.01,0.05c-0.09,0.48-0.28,0.9-0.57,1.25
					c-0.29,0.36-0.64,0.63-1.07,0.82c-0.43,0.19-0.9,0.29-1.43,0.29C572.78,248.79,572.17,248.63,571.66,248.31z"/>
				<path class="st0" d="M581.09,247.11h-3.77v-0.85c0.22-0.34,0.44-0.68,0.66-1.02c0.22-0.34,0.44-0.68,0.66-1.02
					c0.22-0.34,0.44-0.68,0.66-1.02c0.22-0.34,0.44-0.68,0.66-1.02c0.22-0.34,0.44-0.68,0.66-1.02H582v5.12h1.06v0.82H582v1.56
					h-0.91V247.11z M581.09,246.28v-4.32h-0.03c-0.19,0.29-0.38,0.58-0.56,0.86c-0.19,0.29-0.37,0.57-0.56,0.86
					c-0.19,0.29-0.38,0.57-0.56,0.86c-0.19,0.29-0.38,0.58-0.56,0.86c-0.19,0.29-0.38,0.57-0.56,0.86v0.02H581.09z"/>
			</g>
		</g>
		<g>
			<g>
				<path class="st0" d="M667.18,246.63l0.15-0.76h1.54v0.02h2.51v-0.02h1.75l-0.15,0.76H667.18z M671.77,243.88v-0.02h-2.5l0,0.02
					h-1.62l0.15-0.76h5.82l-0.15,0.76H671.77z M668.02,248.67l1.41-7.51h0.76l-0.44,2.33h-0.02l-0.5,2.67h0.02l-0.46,2.51H668.02z
					 M670.53,248.67l0.46-2.51h0.02l0.5-2.67h-0.02l0.44-2.33h0.76l-1.4,7.51H670.53z"/>
				<path class="st0" d="M674.35,241.16h4.56V242h-3.62v2.58h3.33v0.83h-3.33v3.25h-0.94V241.16z"/>
				<path class="st0" d="M679.98,241.16h4.56V242h-3.62v2.58h3.33v0.83h-3.33v3.25h-0.94V241.16z"/>
				<path class="st0" d="M685.6,241.16h4.56V242h-3.62v2.58h3.33v0.83h-3.33v3.25h-0.94V241.16z"/>
				<path class="st0" d="M691.23,241.16h4.56V242h-3.62v2.58h3.33v0.83h-3.33v3.25h-0.94V241.16z"/>
				<path class="st0" d="M696.85,241.16h4.56V242h-3.62v2.58h3.33v0.83h-3.33v3.25h-0.94V241.16z"/>
				<path class="st0" d="M702.48,241.16h4.56V242h-3.62v2.58h3.33v0.83h-3.33v3.25h-0.94V241.16z"/>
			</g>
		</g>
		
			<ellipse transform="matrix(0.9638 -0.2666 0.2666 0.9638 -49.7781 124.4066)" class="st9" cx="433.34" cy="245.55" rx="46.77" ry="46.77"/>
		
			<ellipse transform="matrix(0.7071 -0.7071 0.7071 0.7071 -9.5214 468.1204)" class="st9" cx="560.31" cy="245.55" rx="46.77" ry="46.77"/>
		
			<ellipse transform="matrix(0.7071 -0.7071 0.7071 0.7071 -121.0278 198.92)" class="st9" cx="179.6" cy="245.55" rx="46.77" ry="46.77"/>
		
			<ellipse transform="matrix(0.9754 -0.2203 0.2203 0.9754 -46.5601 73.5627)" class="st9" cx="306.57" cy="245.55" rx="46.77" ry="46.77"/>
		
			<ellipse transform="matrix(0.9721 -0.2344 0.2344 0.9721 -38.4135 167.9677)" class="st9" cx="687.28" cy="245.55" rx="46.77" ry="46.77"/>
		<g>
			<text transform="matrix(1 0 0 1 223.0693 356.8542)" class="st8 st38 st39">Roboto</text>
		</g>
		<g>
			<text transform="matrix(1 0 0 1 213.1635 426.6891)" class="st8 st40 st39">Noto Sans</text>
		</g>
		<g>
			<text transform="matrix(1 0 0 1 229.7563 499.2477)" class="st8 st40 st39">Arial</text>
		</g>
		<g>
			<path class="st36" d="M396.93,364.21h-49.16c-5.75,0-10.45-4.7-10.45-10.45v-0.03c0-5.75,4.7-10.45,10.45-10.45h49.16
				c5.75,0,10.45,4.7,10.45,10.45v0.03C407.38,359.5,402.68,364.21,396.93,364.21z"/>
			<g>
				<text transform="matrix(1 0 0 1 360.2245 356.0807)" class="st8 st38 st41">English</text>
			</g>
		</g>
		<g>
			<path class="st36" d="M396.93,434.25h-49.16c-5.75,0-10.45-4.7-10.45-10.45v-0.03c0-5.75,4.7-10.45,10.45-10.45h49.16
				c5.75,0,10.45,4.7,10.45,10.45v0.03C407.38,429.54,402.68,434.25,396.93,434.25z"/>
			<path class="st36" d="M480.01,434.25h-49.16c-5.75,0-10.45-4.7-10.45-10.45v-0.03c0-5.75,4.7-10.45,10.45-10.45h49.16
				c5.75,0,10.45,4.7,10.45,10.45v0.03C490.46,429.54,485.76,434.25,480.01,434.25z"/>
			<path class="st36" d="M646.17,434.25h-49.16c-5.75,0-10.45-4.7-10.45-10.45v-0.03c0-5.75,4.7-10.45,10.45-10.45h49.16
				c5.75,0,10.45,4.7,10.45,10.45v0.03C656.63,429.54,651.92,434.25,646.17,434.25z"/>
			<path class="st36" d="M563.09,434.25h-49.16c-5.75,0-10.45-4.7-10.45-10.45v-0.03c0-5.75,4.7-10.45,10.45-10.45h49.16
				c5.75,0,10.45,4.7,10.45,10.45v0.03C573.54,429.54,568.84,434.25,563.09,434.25z"/>
			<g>
				<text transform="matrix(1 0 0 1 356.3271 426.2985)" class="st8 st42 st41">简体中文</text>
			</g>
			<g>
				<text transform="matrix(1 0 0 1 439.4096 426.2985)" class="st8 st42 st41">繁體中文</text>
			</g>
			<g>
				<text transform="matrix(1 0 0 1 526.4965 426.2985)" class="st8 st42 st41">日本語</text>
			</g>
			<g>
				<text transform="matrix(1 0 0 1 613.5825 426.3366)" class="st8 st43 st41">한글</text>
			</g>
		</g>
		<path class="st36" d="M396.93,491.47h-49.16c-5.75,0-10.45-4.7-10.45-10.45v-0.03c0-5.75,4.7-10.45,10.45-10.45h49.16
			c5.75,0,10.45,4.7,10.45,10.45v0.03C407.38,486.77,402.68,491.47,396.93,491.47z"/>
		<path class="st36" d="M480.01,491.47h-49.16c-5.75,0-10.45-4.7-10.45-10.45v-0.03c0-5.75,4.7-10.45,10.45-10.45h49.16
			c5.75,0,10.45,4.7,10.45,10.45v0.03C490.46,486.77,485.76,491.47,480.01,491.47z"/>
		<path class="st36" d="M563.09,491.47h-49.16c-5.75,0-10.45-4.7-10.45-10.45v-0.03c0-5.75,4.7-10.45,10.45-10.45h49.16
			c5.75,0,10.45,4.7,10.45,10.45v0.03C573.54,486.77,568.84,491.47,563.09,491.47z"/>
		<path class="st36" d="M396.93,522.16h-49.16c-5.75,0-10.45-4.7-10.45-10.45v-0.03c0-5.75,4.7-10.45,10.45-10.45h49.16
			c5.75,0,10.45,4.7,10.45,10.45v0.03C407.38,517.45,402.68,522.16,396.93,522.16z"/>
		<path class="st36" d="M480.01,522.16h-49.16c-5.75,0-10.45-4.7-10.45-10.45v-0.03c0-5.75,4.7-10.45,10.45-10.45h49.16
			c5.75,0,10.45,4.7,10.45,10.45v0.03C490.46,517.45,485.76,522.16,480.01,522.16z"/>
		<path class="st36" d="M646.17,522.16h-49.16c-5.75,0-10.45-4.7-10.45-10.45v-0.03c0-5.75,4.7-10.45,10.45-10.45h49.16
			c5.75,0,10.45,4.7,10.45,10.45v0.03C656.63,517.45,651.92,522.16,646.17,522.16z"/>
		<path class="st36" d="M563.09,522.16h-49.16c-5.75,0-10.45-4.7-10.45-10.45v-0.03c0-5.75,4.7-10.45,10.45-10.45h49.16
			c5.75,0,10.45,4.7,10.45,10.45v0.03C573.54,517.45,568.84,522.16,563.09,522.16z"/>
		<g>
			<text transform="matrix(1 0 0 1 356.808 483.3551)" class="st8 st40 st41">Français </text>
		</g>
		<g>
			<text transform="matrix(1 0 0 1 441.6039 483.3551)" class="st8 st40 st41">Deutsch</text>
		</g>
		<g>
			<text transform="matrix(1 0 0 1 521.3056 483.3551)" class="st8 st40 st41">Português</text>
		</g>
		<g>
			<text transform="matrix(1 0 0 1 359.2153 514.0427)" class="st8 st40 st41">Español</text>
		</g>
		<g>
			<text transform="matrix(1 0 0 1 442.9179 514.0427)" class="st8 st40 st41">Italiano</text>
		</g>
		<g>
			<text transform="matrix(1 0 0 1 598.8217 513.57)"><tspan x="0" y="0" class="st8 st44 st41">اللغة</tspan><tspan x="16.39" y="0" class="st8 st40 st41"> </tspan><tspan x="18.47" y="0" class="st8 st44 st41">العربية</tspan></text>
		</g>
		<g>
			<text transform="matrix(1 0 0 1 527.5175 514.0427)" class="st8 st40 st41">Türkçe</text>
		</g>
	</g>
</g>
</svg>
