<svg width="121" height="22" viewBox="0 0 121 22" fill="none" xmlns="http://www.w3.org/2000/svg">
<path d="M4.736 5.576C6.24 5.576 7.34933 5.85333 8.064 6.408C8.78933 6.96267 9.152 7.80533 9.152 8.936C9.152 9.49067 9.04533 9.96533 8.832 10.36C8.62933 10.7547 8.35733 11.0853 8.016 11.352C7.68533 11.608 7.33333 11.816 6.96 11.976L10.24 17H7.936L5.2 12.488H3.536V17H1.488V5.576H4.736ZM4.608 7.288H3.536V10.808H4.672C5.52533 10.808 6.13867 10.6587 6.512 10.36C6.88533 10.0507 7.072 9.59733 7.072 9C7.072 8.38133 6.86933 7.944 6.464 7.688C6.06933 7.42133 5.45067 7.288 4.608 7.288ZM20.8878 5.576V12.968C20.8878 13.7573 20.7171 14.472 20.3758 15.112C20.0451 15.7413 19.5384 16.2427 18.8558 16.616C18.1731 16.9787 17.3091 17.16 16.2638 17.16C14.7811 17.16 13.6558 16.776 12.8878 16.008C12.1198 15.2293 11.7358 14.2053 11.7358 12.936V5.576H13.7838V12.728C13.7838 13.6667 13.9918 14.3493 14.4078 14.776C14.8344 15.2027 15.4744 15.416 16.3278 15.416C17.2131 15.416 17.8531 15.1867 18.2478 14.728C18.6531 14.2587 18.8558 13.5867 18.8558 12.712V5.576H20.8878ZM33.9929 11.272C33.9929 12.456 33.7955 13.4907 33.4009 14.376C33.0169 15.2507 32.4249 15.9333 31.6249 16.424C30.8249 16.9147 29.8222 17.16 28.6169 17.16C27.3902 17.16 26.3822 16.9147 25.5929 16.424C24.8035 15.9333 24.2115 15.2453 23.8169 14.36C23.4329 13.4747 23.2409 12.44 23.2409 11.256C23.2409 10.0827 23.4329 9.05867 23.8169 8.184C24.2115 7.29867 24.8035 6.616 25.5929 6.136C26.3929 5.64533 27.4062 5.4 28.6329 5.4C29.8382 5.4 30.8355 5.64533 31.6249 6.136C32.4249 6.616 33.0169 7.29867 33.4009 8.184C33.7955 9.05867 33.9929 10.088 33.9929 11.272ZM25.4009 11.272C25.4009 12.5627 25.6569 13.576 26.1689 14.312C26.6915 15.048 27.5075 15.416 28.6169 15.416C29.7582 15.416 30.5795 15.048 31.0809 14.312C31.5822 13.576 31.8329 12.5627 31.8329 11.272C31.8329 9.98133 31.5822 8.968 31.0809 8.232C30.5795 7.496 29.7635 7.128 28.6329 7.128C27.5129 7.128 26.6915 7.496 26.1689 8.232C25.6569 8.968 25.4009 9.98133 25.4009 11.272ZM43.9098 10.616L46.5178 5.576H48.7258L44.9338 12.552V17H42.8858V12.632L39.0938 5.576H41.3178L43.9098 10.616ZM59.2628 5.576V12.968C59.2628 13.7573 59.0921 14.472 58.7508 15.112C58.4201 15.7413 57.9134 16.2427 57.2308 16.616C56.5481 16.9787 55.6841 17.16 54.6388 17.16C53.1561 17.16 52.0308 16.776 51.2628 16.008C50.4948 15.2293 50.1108 14.2053 50.1108 12.936V5.576H52.1588V12.728C52.1588 13.6667 52.3668 14.3493 52.7828 14.776C53.2094 15.2027 53.8494 15.416 54.7028 15.416C55.5881 15.416 56.2281 15.1867 56.6228 14.728C57.0281 14.2587 57.2308 13.5867 57.2308 12.712V5.576H59.2628Z" fill="#797979"/>
<path d="M73 11H121" stroke="#162A4B" stroke-width="2"/>
</svg>
