<svg width="24" height="25" viewBox="0 0 24 25" fill="none" xmlns="http://www.w3.org/2000/svg">
<path fill-rule="evenodd" clip-rule="evenodd" d="M12.53 21.03C12.3894 21.1704 12.1988 21.2493 12 21.2493C11.8013 21.2493 11.6107 21.1704 11.47 21.03L5.47003 15.03C5.39634 14.9613 5.33724 14.8785 5.29625 14.7865C5.25526 14.6945 5.23321 14.5952 5.23144 14.4945C5.22966 14.3938 5.24819 14.2938 5.28591 14.2004C5.32363 14.107 5.37977 14.0222 5.45099 13.951C5.52221 13.8797 5.60704 13.8236 5.70043 13.7859C5.79382 13.7481 5.89385 13.7296 5.99455 13.7314C6.09525 13.7332 6.19457 13.7552 6.28657 13.7962C6.37857 13.8372 6.46137 13.8963 6.53003 13.97L11.25 18.69L11.25 4.49999C11.25 4.30108 11.329 4.11031 11.4697 3.96966C11.6104 3.82901 11.8011 3.74999 12 3.74999C12.1989 3.74999 12.3897 3.82901 12.5304 3.96966C12.671 4.11031 12.75 4.30108 12.75 4.49999L12.75 18.69L17.47 13.97C17.5387 13.8963 17.6215 13.8372 17.7135 13.7962C17.8055 13.7552 17.9048 13.7332 18.0055 13.7314C18.1062 13.7296 18.2062 13.7481 18.2996 13.7859C18.393 13.8236 18.4778 13.8797 18.5491 13.951C18.6203 14.0222 18.6764 14.107 18.7142 14.2004C18.7519 14.2938 18.7704 14.3938 18.7686 14.4945C18.7668 14.5952 18.7448 14.6945 18.7038 14.7865C18.6628 14.8785 18.6037 14.9613 18.53 15.03L12.53 21.03Z" fill="#9A9A9A"/>
</svg>
